<svg width="65" height="65" viewBox="0 0 65 65" fill="none" xmlns="http://www.w3.org/2000/svg">
<rect width="65" height="65" rx="9" fill="white"/>
<mask id="mask0_641_444" style="mask-type:luminance" maskUnits="userSpaceOnUse" x="8" y="14" width="48" height="37">
<path d="M8.66699 14.4873H55.6114V50.8528H8.66699V14.4873Z" fill="white"/>
</mask>
<g mask="url(#mask0_641_444)">
<path d="M48.4072 17.7241C45.3637 16.327 42.1518 15.3307 38.8519 14.7602C38.8219 14.7547 38.7909 14.7587 38.7634 14.7718C38.7358 14.7849 38.7131 14.8063 38.6984 14.833C38.2857 15.5667 37.8285 16.5244 37.5086 17.2769C33.9002 16.7366 30.3106 16.7366 26.7764 17.2769C26.4562 16.5075 25.9825 15.5667 25.568 14.833C25.5527 14.8068 25.5298 14.7859 25.5024 14.7729C25.475 14.7599 25.4443 14.7555 25.4143 14.7602C22.1141 15.3295 18.902 16.3259 15.859 17.7241C15.8329 17.7351 15.8109 17.754 15.7961 17.7781C9.71019 26.8703 8.04319 35.739 8.86096 44.4979C8.86324 44.5194 8.86982 44.5402 8.8803 44.559C8.89079 44.5779 8.90497 44.5945 8.92199 44.6077C12.9372 47.5566 16.8267 49.3468 20.644 50.5333C20.6737 50.5422 20.7054 50.5417 20.7349 50.5321C20.7643 50.5225 20.7901 50.504 20.8088 50.4793C21.7118 49.2461 22.5166 47.946 23.207 46.5787C23.2165 46.56 23.2219 46.5395 23.2229 46.5185C23.2239 46.4975 23.2204 46.4766 23.2127 46.457C23.205 46.4375 23.1933 46.4198 23.1782 46.4051C23.1632 46.3905 23.1452 46.3791 23.1255 46.3719C21.8486 45.8875 20.633 45.2971 19.4636 44.6265C19.4423 44.614 19.4244 44.5964 19.4115 44.5753C19.3986 44.5542 19.3911 44.5303 19.3897 44.5056C19.3882 44.4809 19.3928 44.4563 19.4031 44.4338C19.4135 44.4113 19.4291 44.3918 19.4488 44.3768C19.6955 44.1924 19.938 44.0023 20.176 43.8069C20.1968 43.7896 20.2221 43.7786 20.2489 43.7749C20.2756 43.7713 20.3029 43.7752 20.3276 43.7862C28.0105 47.2939 36.3279 47.2939 43.92 43.7862C43.9448 43.7745 43.9724 43.77 43.9996 43.7733C44.0268 43.7767 44.0525 43.7876 44.0738 43.805C44.312 44.0016 44.5551 44.1922 44.8028 44.3768C44.8226 44.3916 44.8384 44.4111 44.8488 44.4334C44.8593 44.4558 44.8641 44.4804 44.8628 44.5051C44.8616 44.5298 44.8543 44.5537 44.8415 44.5749C44.8288 44.5961 44.8111 44.6138 44.7899 44.6265C43.6198 45.3097 42.3942 45.893 41.1261 46.37C41.1064 46.3776 41.0885 46.3892 41.0736 46.4041C41.0587 46.419 41.0472 46.4369 41.0396 46.4566C41.0321 46.4763 41.0289 46.4973 41.0301 46.5184C41.0312 46.5394 41.0369 46.56 41.0465 46.5787C41.7488 47.9351 42.5497 49.2382 43.4426 50.4775C43.4608 50.5028 43.4864 50.5218 43.516 50.5319C43.5456 50.5419 43.5775 50.5424 43.6074 50.5333C47.4432 49.3468 51.3328 47.5566 55.3482 44.6077C55.3654 44.5951 55.3797 44.5789 55.3902 44.5603C55.4007 44.5417 55.4072 44.5211 55.4092 44.4998C56.388 34.3736 53.7697 25.5774 48.4682 17.7799C48.4552 17.7546 48.4336 17.7348 48.4072 17.7241ZM24.3543 39.1648C22.0411 39.1648 20.1351 37.0412 20.1351 34.4332C20.1351 31.8252 22.0042 29.7017 24.3543 29.7017C26.7226 29.7017 28.61 31.844 28.5729 34.4332C28.5729 37.0412 26.7043 39.1648 24.3543 39.1648ZM39.953 39.1648C37.6398 39.1648 35.7341 37.0412 35.7341 34.4332C35.7341 31.8252 37.6029 29.7017 39.953 29.7017C42.3213 29.7017 44.2087 31.844 44.1719 34.4332C44.1719 37.0412 42.3213 39.1648 39.953 39.1648Z" fill="#061A05"/>
</g>
</svg>
