<svg width="32" height="31" viewBox="0 0 32 31" fill="none" xmlns="http://www.w3.org/2000/svg">
<path d="M15.876 18.8749C15.6399 18.8749 10.036 18.8259 5.7507 14.5398C5.65995 14.4491 5.57161 14.3583 5.48488 14.266C4.58784 13.3183 4.1614 12.1924 4.25215 11.0095C4.33165 9.96625 4.8119 8.95436 5.60534 8.16092C6.39879 7.36747 7.40987 6.88723 8.45388 6.80772C9.54688 6.7242 10.5917 7.08238 11.4919 7.84531C11.5891 6.66959 12.075 5.67778 12.9062 4.96384C13.7004 4.28202 14.7557 3.90698 15.8768 3.90698C16.9979 3.90698 18.0539 4.28202 18.8474 4.96384C19.6794 5.67778 20.1645 6.66959 20.2624 7.84531C21.1627 7.08238 22.2075 6.7242 23.3005 6.80772C24.3437 6.88723 25.3556 7.36747 26.1482 8.16092C26.9417 8.95436 27.4219 9.96545 27.5014 11.0095C27.5914 12.1924 27.1649 13.3183 26.2687 14.266C26.182 14.3575 26.0928 14.4491 26.0029 14.5398C21.716 18.8259 16.1129 18.8749 15.876 18.8749ZM8.76227 7.6871C7.79053 7.6871 6.87823 8.13843 6.22934 8.78732C5.06246 9.9542 4.53323 11.9764 6.12655 13.6604C6.20766 13.7464 6.29037 13.8315 6.3755 13.9166C10.4054 17.9465 15.8222 17.9931 15.8768 17.9931C15.9306 17.9931 21.3578 17.9361 25.3781 13.9166C25.4632 13.8315 25.5459 13.7464 25.627 13.6604C27.2203 11.9772 26.6903 9.9542 25.5234 8.78813C24.3565 7.62125 22.3344 7.09201 20.6511 8.68453C20.5652 8.76564 20.4801 8.84836 20.3949 8.93348C20.3291 8.99934 20.2664 9.06599 20.2038 9.13265L19.3622 10.0201L19.3951 8.80097C19.3975 8.70862 19.4007 8.61546 19.4007 8.5215C19.4007 8.40184 19.3991 8.28299 19.3959 8.16413C19.3317 5.84723 17.5271 4.79118 15.8776 4.79118C14.2281 4.79118 12.4227 5.84643 12.3593 8.16413C12.3561 8.28218 12.3545 8.40104 12.3545 8.5215C12.3545 8.61305 12.3569 8.7038 12.3593 8.79375L12.3914 10.0201L11.553 9.13506C11.4895 9.0676 11.4253 9.00014 11.3594 8.93348C11.2743 8.84836 11.1892 8.76564 11.1033 8.68453C10.354 7.97541 9.53885 7.6871 8.76227 7.6871Z" fill="#808080"/>
<path d="M27.3536 25.3783C25.774 26.1043 23.9694 26.2938 22.2621 25.9099C20.6061 25.5373 19.1541 24.6748 18.0386 23.4083C18.1479 23.4838 18.2603 23.5569 18.3759 23.6267C19.33 24.2018 20.3901 24.4909 21.4501 24.4909C22.3922 24.4909 23.335 24.2628 24.2039 23.8034C24.2658 23.7713 24.3268 23.7376 24.3878 23.703L23.951 22.9353C23.8979 22.9658 23.8449 22.9947 23.7911 23.0228C22.2211 23.8524 20.3676 23.7962 18.8321 22.871C17.2605 21.9242 16.3217 20.2674 16.3217 18.4396V18.0991H16.3136H15.4383H15.4302V18.4396C15.4302 20.2674 14.4914 21.9242 12.9198 22.871C11.3843 23.7962 9.53078 23.8532 7.96075 23.0228C7.90694 22.9947 7.85394 22.9658 7.80093 22.9353L7.36406 23.703C7.42509 23.7376 7.48613 23.7713 7.54796 23.8034C8.4169 24.2628 9.35892 24.4909 10.3017 24.4909C11.3618 24.4909 12.4211 24.2018 13.3759 23.6267C13.4916 23.5577 13.604 23.4846 13.7132 23.4083C12.5978 24.6748 11.1458 25.5373 9.48982 25.9099C7.78246 26.2946 5.97793 26.1051 4.39827 25.3783L3.95416 26.1476C5.1347 26.7034 6.43087 26.9877 7.73267 26.9877C8.38638 26.9877 9.0409 26.9162 9.68336 26.7716C11.6638 26.3259 13.3832 25.2498 14.6536 23.6613C14.9508 23.2903 15.2094 22.8919 15.4294 22.4751V26.9877H16.3128V22.4599C16.5353 22.8823 16.7963 23.2862 17.0966 23.6613C18.3679 25.2498 20.0865 26.3251 22.0669 26.7716C22.7094 26.9162 23.3639 26.9877 24.0176 26.9877C25.3194 26.9877 26.6156 26.7034 27.7961 26.1476L27.3536 25.3783Z" fill="#808080"/>
<path d="M15.3017 14.196H14.6593C14.6593 13.2396 13.7285 12.4606 12.5841 12.4606C11.4397 12.4606 10.5089 13.2388 10.5089 14.196H9.86646C9.86646 12.8854 11.0855 11.8181 12.5841 11.8181C14.0826 11.8181 15.3017 12.8846 15.3017 14.196Z" fill="#808080"/>
<path d="M13.323 14.2098C13.8335 14.2098 14.2473 13.7959 14.2473 13.2854C14.2473 12.7749 13.8335 12.3611 13.323 12.3611C12.8125 12.3611 12.3986 12.7749 12.3986 13.2854C12.3986 13.7959 12.8125 14.2098 13.323 14.2098Z" fill="#808080"/>
<path d="M21.8919 14.196H21.2494C21.2494 13.2396 20.3186 12.4606 19.1742 12.4606C18.0298 12.4606 17.0991 13.2388 17.0991 14.196H16.4566C16.4566 12.8854 17.6757 11.8181 19.1742 11.8181C20.6728 11.8181 21.8919 12.8846 21.8919 14.196Z" fill="#808080"/>
<path d="M19.9139 14.2098C20.4244 14.2098 20.8382 13.7959 20.8382 13.2854C20.8382 12.7749 20.4244 12.3611 19.9139 12.3611C19.4033 12.3611 18.9895 12.7749 18.9895 13.2854C18.9895 13.7959 19.4033 14.2098 19.9139 14.2098Z" fill="#808080"/>
<path d="M15.8655 16.5579C15.1082 16.5579 14.4063 16.1684 14.0787 15.5669L14.6432 15.2593C14.8609 15.6576 15.3403 15.9154 15.8663 15.9154C16.3924 15.9154 16.8726 15.6576 17.0894 15.2593L17.654 15.5669C17.3247 16.1684 16.6228 16.5579 15.8655 16.5579Z" fill="#808080"/>
</svg>
