<svg width="65" height="65" viewBox="0 0 65 65" fill="none" xmlns="http://www.w3.org/2000/svg">
<rect width="65" height="65" rx="9" fill="white"/>
<path d="M21.1774 53H12.6772V25.6264H21.1774V53ZM16.9227 21.8924C14.2047 21.8924 12 19.641 12 16.9229C12 15.6172 12.5186 14.3651 13.4418 13.4419C14.365 12.5187 15.6172 12 16.9227 12C18.2283 12 19.4805 12.5187 20.4037 13.4419C21.3268 14.3651 21.8455 15.6172 21.8455 16.9229C21.8455 19.641 19.6399 21.8924 16.9227 21.8924ZM52.9908 53H44.509V39.6747C44.509 36.499 44.4449 32.4263 40.0896 32.4263C35.6702 32.4263 34.9929 35.8766 34.9929 39.4459V53H26.5019V25.6264H34.6543V29.3604H34.7733C35.9081 27.2097 38.6802 24.94 42.8159 24.94C51.4186 24.94 53 30.6051 53 37.9633V53H52.9908Z" fill="#061A05"/>
</svg>
