<svg width="65" height="65" viewBox="0 0 65 65" fill="none" xmlns="http://www.w3.org/2000/svg">
<path d="M9.28571 0C4.16406 0 0 4.16406 0 9.28571V55.7143C0 60.8359 4.16406 65 9.28571 65H55.7143C60.8359 65 65 60.8359 65 55.7143V9.28571C65 4.16406 60.8359 0 55.7143 0H9.28571ZM52.3917 12.1875L37.3315 29.3951L55.0469 52.8125H41.1763L30.3237 38.6083L17.8895 52.8125H10.9978L27.1027 34.4007L10.1127 12.1875H24.3315L34.154 25.173L45.5 12.1875H52.3917ZM46.9074 48.692L22.2567 16.0904H18.1507L43.077 48.692H46.8929H46.9074Z" fill="white"/>
</svg>
