<svg width="20" height="20" viewBox="0 0 20 20" fill="none" xmlns="http://www.w3.org/2000/svg">
<path d="M6.2918 18.125C13.8371 18.125 17.9652 11.8723 17.9652 6.4516C17.9652 6.27582 17.9613 6.09613 17.9535 5.92035C18.7566 5.3396 19.4496 4.62026 20 3.79613C19.2521 4.12888 18.458 4.3462 17.6449 4.44066C18.5011 3.92747 19.1421 3.12127 19.4492 2.17152C18.6438 2.64884 17.763 2.98556 16.8445 3.16722C16.2257 2.50968 15.4075 2.07431 14.5164 1.92842C13.6253 1.78253 12.711 1.93425 11.9148 2.36013C11.1186 2.786 10.4848 3.4623 10.1115 4.28447C9.73825 5.10664 9.64619 6.02889 9.84961 6.90863C8.21874 6.82679 6.62328 6.40313 5.16665 5.66513C3.71002 4.92712 2.42474 3.89124 1.39414 2.62464C0.870333 3.52775 0.710047 4.59642 0.945859 5.61346C1.18167 6.63049 1.79589 7.51959 2.66367 8.10003C2.01219 8.07935 1.37498 7.90395 0.804688 7.58831V7.6391C0.804104 8.58684 1.13175 9.50553 1.73192 10.239C2.3321 10.9725 3.16777 11.4755 4.09687 11.6625C3.49338 11.8277 2.85999 11.8517 2.2457 11.7328C2.50788 12.5479 3.01798 13.2608 3.70481 13.772C4.39164 14.2832 5.22093 14.5672 6.07695 14.5844C4.62369 15.726 2.82848 16.3452 0.980469 16.3422C0.652739 16.3417 0.325333 16.3216 0 16.2821C1.87738 17.4865 4.06128 18.1262 6.2918 18.125Z" fill="#7AAAF6"/>
</svg>
