<svg xmlns="http://www.w3.org/2000/svg" version="1.1" xmlns:xlink="http://www.w3.org/1999/xlink" xmlns:svgjs="http://svgjs.dev/svgjs" viewBox="0 0 800 800"><defs><linearGradient x1="50%" y1="0%" x2="50%" y2="100%" id="wwwhirl-grad"><stop stop-color="#1ED760" stop-opacity="1" offset="45%"></stop><stop stop-color="hsl(184, 74%, 44%)" stop-opacity="1" offset="100%"></stop></linearGradient></defs><g stroke-width="1" stroke="url(#wwwhirl-grad)" fill="none" stroke-linecap="round"><path d="M2.2500012644131857 424.9439195069706C35.39583417627546 404.64209684845497 68.54166708813776 344.3166809488656 134.83333291186227 343.73662887290806C201.12499873558681 343.15657679695045 201.12499873558693 417.69326855750074 267.4166645593114 422.62371120314026C333.7083303830359 427.5541538487798 333.7083303830359 356.497774543975 399.99999620676044 363.4583994554661C466.291662030485 370.41902436695716 466.291662030485 451.62631500101975 532.5833278542095 450.4662108491046C598.8749936779341 449.3061066971894 598.8749936779342 357.3678526579114 665.1666595016587 358.8179828478054C731.4583253253832 360.2681130376994 764.6041582372454 431.9045444184617 797.7499911491077 456.26673160868046 " transform="rotate(107.5, 400, 400)"></path><path d="M11.500001235008227 424.36383225905684C43.87500082333884 404.5341450112044 76.25000041166942 345.6116457604427 140.9999995883306 345.04508326764693C205.7499987649918 344.4785207748511 205.74999876499186 417.28180109910954 270.499997941653 422.0975822878737C335.2499971183141 426.91336347663787 335.2499971183141 357.5094581091542 399.99999629497535 364.30820802270364C464.74999547163657 371.106957936253 464.74999547163657 450.425706927663 529.4999946482977 449.2925819420714C594.2499938249589 448.15945695647986 594.249993824959 358.35930184834785 658.9999930016202 359.7757080803373C723.7499921782812 361.1921143123268 756.1249917666119 431.1625821726063 788.4999913549424 454.9582068700293 " transform="rotate(105, 400, 400)"></path><path d="M20.75000120560327 423.7837373817486C52.35416747040219 404.42618554455925 83.95833373520111 346.9066029426252 147.16666626479892 346.3535300329913C210.3749987943968 345.8004571233573 210.3749987943968 416.8703260113238 273.58333132399457 421.5714457432127C336.79166385359235 426.2725654751015 336.79166385359235 358.52113404493883 399.99999638319025 365.1580089605466C463.20832891278815 371.7948838761544 463.20832891278815 449.2250912249117 526.4166614423858 448.1189454056438C589.6249939719837 447.01279958637576 589.6249939719837 359.3507434093898 652.8333265015815 360.73342568347476C716.0416590311794 362.11610795755973 747.6458252959782 430.42061229735634 779.2499915607772 453.64967450198355 " transform="rotate(102.5, 400, 400)"></path><path d="M30.00000117619831 423.20365013383486C60.83333411746554 404.31823370730865 91.6666670587328 348.2015677542023 153.33333294126723 347.66198442773015C214.99999882380166 347.122401101258 214.99999882380177 416.45885855293267 276.6666647063362 421.0453168279462C338.33333058887064 425.63177510295964 338.33333058887064 359.532817610118 399.9999964714051 366.00781752778414C461.6666623539395 372.4828174454503 461.6666623539395 448.024483151555 523.333328236474 446.9453164986106C584.9999941190085 445.86614984566626 584.9999941190085 360.34219259982626 646.6666600015429 361.69115091600673C708.3333258840775 363.04010923218715 739.1666588253446 429.678650051501 769.9999917666119 452.3411497633324 " transform="rotate(100, 400, 400)"></path><path d="M39.25000114679335 422.62355907122384C69.31250076452892 404.21027805536085 99.37500038226446 349.4965287510821 159.49999961773557 348.97043500777175C219.62499885320665 348.4443412644614 219.6249988532067 416.0473872798442 279.7499980886778 420.51918409798236C339.87499732414886 424.9909809161205 339.87499732414886 360.54449736059996 399.99999655962 366.8576222803244C460.1249957950911 373.1707472000489 460.1249957950911 446.82387126350096 520.2499950305622 445.7716837768802C580.3749942660332 444.7194962902595 580.3749942660334 361.3336379755655 640.4999935015045 362.64887233384144C700.6249927369754 363.96410669211735 730.687492354711 428.9366839909483 760.7499919724465 451.0326212099839 " transform="rotate(97.5, 400, 400)"></path><path d="M48.50000111738839 422.0434680086128C77.79166741159227 404.102322403413 107.08333370579615 350.7914897479619 165.66666629420388 350.27888558781336C224.24999888261164 349.7662814276648 224.24999888261164 415.63591600675574 282.8333314710194 419.99305136801854C341.4166640594271 424.3501867292814 341.4166640594271 361.55617711108187 399.99999664783485 367.70742703286464C458.58332923624266 373.8586769546475 458.58332923624266 445.62325937544693 517.1666618246503 444.5980510551498C575.749994413058 443.57284273485266 575.7499944130582 362.3250833513047 634.3333270014658 363.60659375167614C692.9166595898736 364.88810415204756 722.2083258840775 428.19471793039565 751.4999921782812 449.7240926566355 " transform="rotate(95, 400, 400)"></path><path d="M57.750001087983435 421.4633731313046C86.27083405865562 403.99436293676786 114.79166702932781 352.08644693014446 171.8333329706722 351.5873323531577C228.87499891201657 351.08821777617095 228.87499891201662 415.22444091897 285.916664853361 419.4669148233575C342.9583307947053 423.709388727745 342.9583307947053 362.5678530468665 399.99999673604975 368.5572279707077C457.04166267739413 374.5466028945488 457.04166267739413 444.4226436726957 514.0833286187385 443.42441451872213C571.1249945600828 442.4261853647486 571.1249945600829 363.31652491234667 628.1666605014273 364.5643113548135C685.2083264427716 365.81209779728044 713.7291594134438 427.4527480551457 742.2499923841159 448.41556028858975 " transform="rotate(92.5, 400, 400)"></path><path d="M67.00000105857849 420.88328588339084C94.750000705719 403.88641109951726 122.5000003528595 353.38141174172154 177.9999996471405 352.8957867478966C233.4999989414215 352.4101617540716 233.4999989414216 414.81297346057886 288.99999823570255 418.94078590809096C344.49999752998355 423.0685983556031 344.49999752998355 363.5795366120457 399.9999968242646 369.4070365379452C455.4999961185456 375.2345364638447 455.4999961185456 443.22203559933894 510.9999954128266 442.250785611689C566.4999947071076 441.2795356240391 566.4999947071077 364.30797410278313 621.9999940013887 365.5220365873455C677.4999932956697 366.7360990719079 705.2499929428102 426.7107858092903 732.9999925899507 447.1070355499386 " transform="rotate(90, 400, 400)"></path><path d="M76.25000102917353 420.30319100608256C103.22916735278235 403.77845163287213 130.2083336763912 354.6763689239041 184.16666632360887 354.2042335132409C238.12499897082648 353.73209810257777 238.12499897082654 414.4014983727931 292.0833316180442 418.41464936342993C346.0416642652618 422.42780035406673 346.0416642652618 364.5912125478303 399.9999969124795 370.2568374757882C453.9583295596971 375.922462403746 453.9583295596971 442.02141989658764 507.9166622069147 441.07714907526133C561.8749948541324 440.132878253935 561.8749948541324 365.2994156638251 615.8333275013501 366.47975419048294C669.7916601485678 367.66009271714086 696.7708264721765 425.96881593404044 723.7499927957854 445.7985031818929 " transform="rotate(87.5, 400, 400)"></path><path d="M85.50000099976857 419.7231037581688C111.7083339998457 403.67049979562154 137.91666699992288 355.97133373548115 190.33333300007718 355.5126879079798C242.74999900023147 355.05404208047844 242.74999900023147 413.9900309144019 295.1666650003857 417.8885204481634C347.58333100054 421.7870099819249 347.58333100054 365.6028961130095 399.99999700069435 371.1066460430257C452.41666300084864 376.61039597304193 452.41666300084864 440.8208118232309 504.8333290010029 439.90352016822817C557.2499950011572 438.9862285132255 557.2499950011572 366.29086485426154 609.6666610013115 367.4374794230149C662.0833270014658 368.58409399176827 688.2916600015429 425.226853688185 714.49999300162 444.48997844324174 " transform="rotate(85, 400, 400)"></path><path d="M94.75000097036362 419.1430088808605C120.18750064690909 403.5625403289764 145.62500032345454 357.2662909176637 196.49999967654549 356.82113467332414C247.3749990296364 356.3759784289846 247.37499902963646 413.5785558266162 298.24999838272737 417.36238390350235C349.1249977358183 421.1462119803885 349.1249977358183 366.6145720487942 399.9999970889092 371.9564469808687C450.87499644200017 377.29832191294327 450.87499644200017 439.6201961204796 501.7499957950911 438.72988363180053C552.624995148182 437.8395711431215 552.624995148182 367.2823064153035 603.499994501273 368.39519702615235C654.3749938543639 369.5080876370012 679.8124935309093 424.4848838129351 705.2499932074547 443.181446075196 " transform="rotate(82.5, 400, 400)"></path><path d="M104.00000094095866 418.56292163294677C128.66666729397244 403.4545884917259 153.33333364698623 358.56125572924077 202.6666663530138 358.129589068063C251.99999905904133 357.69792240688525 251.99999905904144 413.167088368225 301.3333317650689 416.83625498823585C350.6666644710965 420.5054216082466 350.6666644710965 367.62625561397334 399.9999971771241 372.8062555481062C449.3333298831517 377.98625548223913 449.3333298831517 438.4195880471229 498.6666625891792 437.5562547247674C547.9999952952066 436.6929214024119 547.9999952952069 368.27375560573995 597.3333280012343 369.3529222586843C646.6666607072619 370.4320889116286 671.3333270602758 423.7429215670797 695.9999934132894 441.8729213365448 " transform="rotate(80, 400, 400)"></path><path d="M113.2500009115537 417.98282675563854C137.1458339410358 403.34662902508074 161.0416669705179 359.8562129114233 208.8333330294821 359.43803583340735C256.6249990884463 359.0198587553914 256.6249990884464 412.7556132804393 304.4166651474105 416.31011844357477C352.20833120637474 419.8646236067102 352.20833120637474 368.637931549758 399.99999726533895 373.6560564859492C447.79166332430316 378.67418142214046 447.79166332430316 437.21897234437165 495.58332938326737 436.38261818833973C543.3749954422315 435.5462640323079 543.3749954422316 369.2651971667819 591.1666615011959 370.3106398618217C638.95832756016 371.35608255686157 662.8541605896421 423.00095169182975 686.7499936191242 440.5643889684991 " transform="rotate(77.5, 400, 400)"></path><path d="M122.50000088214874 417.4027395077248C145.62500058809917 403.23867718783015 168.75000029404958 361.1511777230004 214.99999970595042 360.74649022814623C261.2499991178513 360.3418027332921 261.2499991178513 412.3441458220481 307.49999852975213 415.78398952830827C353.74999794165296 419.22383323456836 353.74999794165296 369.64961511493715 399.99999735355385 374.50586505318677C446.2499967654547 379.36211499143633 446.2499967654547 436.0183642710149 492.4999961773555 435.2089892813066C538.7499955892563 434.39961429159837 538.7499955892564 370.25664635721836 584.9999950011572 371.26836509435367C631.2499944130581 372.28008383148904 654.3749941190085 422.25898944597435 677.4999938249589 439.25586422984793 " transform="rotate(75, 400, 400)"></path><path d="M131.75000085274377 416.8226446304165C154.10416723516252 403.130717721185 176.45833361758127 362.44613490518293 221.16666638241875 362.05493699349057C265.87499914725623 361.66373908179827 265.8749991472563 411.9326707342624 310.58333191209374 415.2578529836472C355.2916646769312 418.583035233032 355.2916646769312 370.6612910507218 399.9999974417687 375.35566599102975C444.7083302066062 380.05004093133766 444.7083302066062 434.8177485682636 489.41666297144366 434.03535274487894C534.1249957362811 433.2529569214943 534.1249957362812 371.2480879182603 578.8333285011187 372.2260826974911C623.5416612659561 373.2040774767219 645.8958276483748 421.5170195707244 668.2499940307936 437.94733186180224 " transform="rotate(72.5, 400, 400)"></path><path d="M141.00000082333884 416.24255738250275C162.58333388222587 403.0227658839344 184.16666694111296 363.74109971676 227.3333330588871 363.36339138822945C270.49999917666116 362.98568305969894 270.4999991766612 411.5212032758712 313.66666529443535 414.7317240683807C356.8333314122094 417.9422448608901 356.8333314122094 371.67297461590096 399.99999752998355 376.20547455826727C443.16666364775773 380.7379745006335 443.16666364775773 433.61714049490683 486.3333297655318 432.8617238378458C529.4999958833059 432.1063071807847 529.4999958833059 372.23953710869677 572.6666620010801 373.1838079300231C615.8333281188542 374.1280787513494 637.4166611777412 420.77505732486907 658.9999942366283 436.638807123151 " transform="rotate(70, 400, 400)"></path><path d="M150.25000079393385 415.66246250519447C171.06250052928925 402.9148064172893 191.87500026464463 365.03605689894255 233.4999997353554 364.6718381535738C275.12499920606615 364.3076194082051 275.1249992060662 411.1097281880855 316.74999867677695 414.2055875237196C358.37499814748764 417.30144685935375 358.37499814748764 372.68465055168565 399.99999761819845 377.05527549611026C441.62499708890925 381.42590044053486 441.62499708890925 432.41652479215554 483.24999655962 431.68808730141814C524.8749960303307 430.9596498106807 524.8749960303307 373.2309786697387 566.4999955010414 374.1415255331605C608.1249949717524 375.0520723965823 628.9374947071076 420.03308744961913 649.749994442463 435.33027475510534 " transform="rotate(67.5, 400, 400)"></path><path d="M159.50000076452892 415.0823714425835C179.5416671763526 402.80685076534144 199.58333358817632 366.33101789582236 239.6666664118237 365.9802887336154C279.74999923547114 365.6295595714085 279.74999923547114 410.69825691499705 319.8333320591185 413.67945479375584C359.9166648827659 416.6606526725146 359.9166648827659 373.69633030216755 399.9999977064133 377.9050802486505C440.0833305300608 382.1138301951335 440.0833305300608 431.2159129041016 480.1666633537081 430.5144545796877C520.2499961773555 429.8129962552739 520.2499961773556 374.2224240454779 560.333329001003 375.09924695099517C600.4166618246503 375.9760698565125 620.458328236474 419.29112138906646 640.4999946482976 434.02174620175686 " transform="rotate(65, 400, 400)"></path><path d="M168.75000073512393 414.5022803799725C188.02083382341596 402.69889511339363 207.29166691170798 367.62597889270216 245.83333308829202 367.288739313657C284.37499926487607 366.9514997346119 284.3749992648761 410.2867856419086 322.9166654414601 413.153322063792C361.4583316180441 416.01985848567546 361.4583316180441 374.70801005264946 399.9999977946282 378.75488500119076C438.54166397121224 382.8017599497321 438.54166397121224 430.01530101604754 477.08333014779623 429.34082185795734C515.6249963243803 428.6663426998671 515.6249963243804 375.2138694212171 554.1666625009643 376.05696836882987C592.7083286775484 376.9000673164427 611.9791617658404 418.5491553285138 631.2499948541324 432.71321764840843 " transform="rotate(62.5, 400, 400)"></path><path d="M178.000000705719 413.9221893173615C196.50000047047934 402.59093946144577 215.00000023523967 368.9209398895819 251.99999976476033 368.5971898936986C288.999999294281 368.2734398978153 288.99999929428105 409.8753143688201 325.9999988238017 412.62718933382826C362.9999983533223 415.37906429883634 362.9999983533223 375.71968980313136 399.99999788284305 379.604689753731C436.99999741236377 383.4896897043307 436.99999741236377 428.8146891279935 473.9999969418844 428.1671891362269C510.9999964714051 427.5196891444603 510.9999964714051 376.2053147969563 547.9999960009259 377.0146897866646C584.9999955304464 377.82406477637284 603.4999952952069 417.8071892679611 621.9999950599671 431.40468909506 " transform="rotate(60, 400, 400)"></path><path d="M187.25000067631402 413.34209825475045C204.9791671175427 402.4829838094979 222.70833355877136 370.2159008864617 258.1666664412287 369.9056404737402C293.624999323686 369.5953800610188 293.624999323686 409.4638430957317 329.0833322061433 412.10105660386444C364.5416650886006 414.7382701119972 364.5416650886006 376.73136955361326 399.99999797105795 380.4544945062713C435.45833085351524 384.1776194589293 435.45833085351524 427.61407723993955 470.9166637359726 426.99355641449654C506.37499661842986 426.37303558905353 506.3749966184299 377.1967601726955 541.8333295008872 377.9724112044993C577.2916623833446 378.74806223630304 595.0208288245732 417.06522320740845 612.7499952658018 430.0961605417115 " transform="rotate(57.5, 400, 400)"></path><path d="M196.5000006469091 412.76200719213944C213.45833376460604 402.37502815755005 230.41666688230305 371.51086188334153 264.33333311769695 371.21409105378183C298.24999935309097 370.9173202242222 298.24999935309097 409.05237182264324 332.1666655884849 411.5749238739007C366.08333182387884 414.09747592515805 366.08333182387884 377.74304930409517 399.9999980592728 381.30429925881157C433.9166642946668 384.8655492135279 433.9166642946668 426.4134653518855 467.8333305300607 425.8199236927661C501.7499967654546 425.2263820336467 501.74999676545474 378.1882055484347 535.6666630008486 378.930132622334C569.5833292362427 379.6720596962332 586.5416623539395 416.3232571468558 603.4999954716366 428.7876319883631 " transform="rotate(55, 400, 400)"></path><path d="M205.7500006175041 412.1819161295284C221.93750041166942 402.2670725056022 238.1250002058347 372.80582288022134 270.4999997941653 372.5225416338235C302.8749993824959 372.2392603874256 302.87499938249596 408.6409005495548 335.2499989708265 411.04879114393685C367.62499855915706 413.45668173831893 367.62499855915706 378.75472905457707 399.99999814748764 382.1541040113518C432.3749977358183 385.5534789681265 432.3749977358183 425.2128534638315 464.74999732414886 424.6462909710357C497.12499691247945 424.07972847823993 497.1249969124795 379.1796509241739 529.4999965008101 379.8878540401687C561.8749960891406 380.5960571561634 578.0624958833059 415.58129108630317 594.2499956774711 427.4791034350146 " transform="rotate(52.5, 400, 400)"></path><path d="M215.00000058809917 411.6018250669174C230.41666705873277 402.1591168536543 245.8333335293664 374.10078387710115 276.66666647063363 373.8309922138651C307.49999941190083 373.561200550629 307.4999994119009 408.2294292764663 338.3333323531681 410.5226584139731C369.16666529443535 412.8158875514798 369.16666529443535 379.76640880505903 399.99999823570255 383.00390876389207C430.83333117696975 386.2414087227251 430.83333117696975 424.01224157577747 461.666664118237 423.4726582493053C492.49999705950427 422.93307492283316 492.49999705950427 380.17109629991313 523.3333300007714 380.8455754580034C554.1666629420388 381.5200546160936 569.5833294126724 414.8393250257505 584.9999958833059 426.1705748816662 " transform="rotate(50, 400, 400)"></path><path d="M224.25000055869418 411.02173400430644C238.89583370579612 402.05116120170646 253.54166685289806 375.39574487398096 282.83333314710194 375.1394427939067C312.1249994413058 374.8831407138324 312.1249994413058 407.81795800337784 341.4166657355097 409.99652568400927C370.7083320297136 412.1750933646407 370.7083320297136 380.77808855554093 399.99999832391745 383.8537135164323C429.29166461812133 386.92933847732377 429.29166461812133 422.8116296877235 458.58333091232515 422.2990255275749C487.874997206529 421.7864213674263 487.8749972065291 381.16254167565234 517.166663500733 381.80329687583804C546.4583297949368 382.44405207602375 561.1041629420388 414.0973589651978 575.7499960891406 424.8620463283178 " transform="rotate(47.5, 400, 400)"></path><path d="M233.50000052928925 410.4416429416954C247.3750003528595 401.9432055497586 261.25000017642975 376.69070587086077 288.99999982357025 376.4478933739483C316.74999947071075 376.2050808770358 316.7499994707108 407.40648673028943 344.4999991178513 409.4703929540455C372.2499987649918 411.5342991778016 372.2499987649918 381.78976830602284 399.9999984121323 384.7035182689726C427.7499980592728 387.61726823192237 427.7499980592728 421.61101779966947 455.4999977064133 421.1253928058445C483.2499973535538 420.63976781201956 483.24999735355385 382.15398705139154 510.99999700069435 382.76101829367275C538.7499966478349 383.36804953595396 552.6249964714051 413.35539290464516 566.4999962949753 423.5535177749693 " transform="rotate(45, 400, 400)"></path><path d="M242.75000049988427 409.8615518790844C255.85416699992285 401.8352498978108 268.95833349996144 377.9856668677406 295.16666650003856 377.7563439539899C321.37499950011573 377.5270210402392 321.37499950011573 406.99501545720096 347.58333250019285 408.9442602240817C373.79166550027 410.89350499096247 373.79166550027 382.80144805650474 399.99999850034715 385.5533230215128C426.2083315004243 388.30519798652097 426.2083315004243 420.41040591161544 452.41666450050144 419.9517600841141C478.6249975005786 419.4931142566127 478.6249975005786 383.14543242713074 504.83333050065573 383.71873971150745C531.041663500733 384.2920469958841 544.1458300007714 412.6134268440925 557.2499965008101 422.24498922162087 " transform="rotate(42.5, 400, 400)"></path><path d="M252.00000047047934 409.28145890912475C264.3333336469862 401.7272923385143 276.66666682349313 379.28062595727175 301.3333331765069 379.0647926266829C325.99999952952066 378.848959296094 325.9999995295207 406.58354227676386 350.66666588253446 408.4181255867693C375.33333223554826 410.25270889677466 375.33333223554826 383.813125899638 399.99999858856205 386.4031258667045C424.66666494157585 388.99312583377093 424.66666494157585 419.2097921162128 449.3333312945896 418.7781254550351C473.9999976476033 418.3464587938573 473.99999764760344 384.1368758955213 498.6666640006172 384.6764592219935C523.333330353631 385.2160425484657 535.6666635301378 411.8714588761912 547.9999967066447 420.93645876092376 " transform="rotate(40, 400, 400)"></path><path d="M261.25000044107435 408.70136784651373C272.8125002940496 401.61933668656644 284.3750001470248 380.57558695415156 307.4999998529752 380.3732432067245C330.62499955892565 380.1708994592974 330.62499955892565 406.17207100367546 353.74999926487607 407.8919928568055C376.8749989708265 409.61191470993555 376.8749989708265 384.82480565011997 399.99999867677695 387.25293061924475C423.1249983827273 389.68105558836953 423.1249983827273 418.0091802281588 446.2499980886778 417.60449273330465C469.37499779462814 417.19980523845055 469.3749977946282 385.1283212712606 492.4999975005786 385.63418063982823C515.6249972065291 386.1400400083959 527.1874970595043 411.12949281563857 538.7499969124794 419.62793020757533 " transform="rotate(37.5, 400, 400)"></path><path d="M270.5000004116694 408.1212767839027C281.2916669411129 401.5113810346186 292.08333347055645 381.87054795103137 313.66666652944355 381.6816937867661C335.2499995883306 381.4928396225008 335.24999958833064 405.760599730587 356.8333326472177 407.3658601268417C378.4166657061047 408.97112052309643 378.4166657061047 385.8364854006019 399.9999987649918 388.102735371785C421.5833318238789 390.36898534296813 421.5833318238789 416.8085683401048 443.1666648827659 416.4308600115743C464.74999794165296 416.0531516830437 464.74999794165296 386.1197666469998 486.33333100054006 386.5919020576629C507.9166640594271 387.06403746832603 518.7083305888706 410.3875267550859 529.4999971183141 418.3194016542269 " transform="rotate(35, 400, 400)"></path><path d="M279.75000038226443 407.54118572129175C289.7708335881763 401.4034253826707 299.79166679408814 383.1655089479112 319.83333320591186 382.9901443668077C339.87499961773557 382.8147797857042 339.87499961773557 405.3491284574985 359.9166660295592 406.8397273968779C379.95833244138294 408.3303263362573 379.95833244138294 386.8481651510838 399.99999885320665 388.95254012432525C420.04166526503036 391.05691509756673 420.04166526503036 415.60795645205076 440.0833316768541 415.25722728984385C460.1249980886777 414.90649812763695 460.1249980886778 387.111212022739 480.1666645005015 387.5496234754976C500.20833091232515 387.98803492825624 510.229164118237 409.64556069453323 520.2499973241488 417.0108731008784 " transform="rotate(32.5, 400, 400)"></path><path d="M289.0000003528595 406.96109465868074C298.25000023523967 401.29546973072286 307.50000011761983 384.460469944791 325.99999988238017 384.29859494684933C344.4999996471405 384.1367199489077 344.4999996471405 404.93765718441006 362.99999941190083 406.3135946669141C381.49999917666116 407.68953214941814 381.49999917666116 387.8598449015657 399.9999989414215 389.8023448768655C418.4999987061819 391.74484485216533 418.4999987061819 414.4073445639968 436.99999847094216 414.0835945681135C455.49999823570255 413.7598445722301 455.49999823570255 388.1026573984782 473.99999800046294 388.5073448933323C492.4999977652232 388.91203238818645 501.74999764760344 408.90359463398056 510.99999752998355 415.70234454753 " transform="rotate(30, 400, 400)"></path><path d="M298.2500003234545 406.3810035960697C306.72916688230305 401.18751407877505 315.2083334411515 385.7554309416708 332.1666665588485 385.60704552689094C349.1249996765455 385.4586601121111 349.1249996765455 404.5261859113216 366.08333279424244 405.7874619369503C383.0416659119394 407.048737962579 383.0416659119394 388.8715246520476 399.9999990296364 390.65214962940576C416.9583321473334 392.4327746067639 416.9583321473334 413.20673267594276 433.91666526503036 412.90996184638306C450.8749983827273 412.61319101682335 450.87499838272737 389.0941027742174 467.8333315004243 389.465066311167C484.79166461812133 389.8360298481166 493.27083117696975 408.1616285734279 501.7499977358183 414.3938159941815 " transform="rotate(27.5, 400, 400)"></path><path d="M307.5000002940496 405.8009125334587C315.20833352936637 401.0795584268272 322.9166667646832 387.0503919385506 338.3333332353168 386.91549610693255C353.7499997059504 386.7806002753145 353.7499997059505 404.1147146382332 369.16666617658404 405.26132920698655C384.5833326472177 406.4079437757399 384.5833326472177 389.8832044025295 399.9999991178513 391.501954381946C415.4166655884849 393.1207043613626 415.4166655884849 412.00612078788873 430.8333320591185 411.7363291246527C446.24999852975213 411.4665374614166 446.24999852975213 390.0855481499566 461.6666650003857 390.4227877290017C477.0833314710194 390.7600273080468 484.7916647063362 407.4196625128752 492.49999794165296 413.0852874408331 " transform="rotate(25, 400, 400)"></path><path d="M316.75000026464465 405.2208214708477C323.68750017642975 400.97160277487933 330.62500008821485 388.34535293543036 344.49999991178515 388.22394668697416C358.37499973535535 388.1025404385179 358.3749997353554 403.7032433651447 372.24999955892565 404.7351964770227C386.1249993824959 405.7671495889008 386.1249993824959 390.8948841530114 399.99999920606615 392.3517591344863C413.8749990296364 393.8086341159612 413.8749990296364 410.8055088998347 427.74999885320665 410.56269640292226C441.6249986767769 410.31988390600975 441.62499867677695 391.0769935256958 455.49999850034715 391.3805091468364C469.37499832391745 391.684024767977 476.31249823570255 406.6776964523226 483.24999814748764 411.7767588874847 " transform="rotate(22.5, 400, 400)"></path><path d="M326.00000023523967 404.6407294545624C332.1666668234931 400.86364616925715 338.3333334117466 389.64031297863585 350.66666658825346 389.53239631334145C362.99999976476033 389.424479648047 362.99999976476033 403.29177113838193 375.33333294126726 404.20906279338465C387.6666661177741 405.12635444838736 387.6666661177741 391.90656294981903 399.999999294281 393.20156293335225C412.3333324707879 394.49656291688547 412.3333324707879 409.6048960581064 424.6666656472948 409.3890627275175C436.99999882380166 409.17322939692866 436.9999988238017 392.0684379477607 449.3333320003086 392.33822961099673C461.6666651768155 392.60802127423284 467.8333317650689 405.9357294380956 473.9999983533223 410.4682293804619 " transform="rotate(20, 400, 400)"></path><path d="M335.2500002058347 404.0606383919514C340.64583347055645 400.7556905173093 346.0416667352782 390.93527397551566 356.8333332647218 390.84084689338306C367.6249997941653 390.7464198112504 367.6249997941653 402.88029986529347 378.41666632360887 403.6829300634208C389.20833285305235 404.4855602615482 389.20833285305235 392.91824270030094 399.9999993824959 394.0513676858925C410.79166591193945 395.18449267148407 410.79166591193945 408.4042841700524 421.58333244138294 408.21543000578714C432.3749989708265 408.0265758415219 432.3749989708265 393.0598833234999 443.16666550027 393.29595102883144C453.9583320297136 393.53201873416305 459.3541652944353 405.19376337754295 464.74999855915706 409.15970082711345 " transform="rotate(17.5, 400, 400)"></path><path d="M344.500003991127 403.48054732934037C349.1250039323171 400.64773486536143 353.7500038735072 392.23023497239546 363.00000375588735 392.14929747342467C372.2500036382675 392.0683599744538 372.2500036382675 402.46882859220506 381.5000035206477 403.15679733345706C390.75000340302785 403.84476607470907 390.75000340302785 393.92992245078284 400.000003285408 394.90117243843275C409.25000316778824 395.87242242608266 409.25000316778824 407.20367228199837 418.50000305016835 407.0417972840567C427.75000293254857 406.87992228611506 427.75000293254857 394.0513286992391 437.00000281492873 394.25367244666614C446.2500026973089 394.4560161940932 450.875002638499 404.4517973169903 455.50000257968907 407.851172273765 " transform="rotate(15, 400, 400)"></path><path d="M353.7500039617221 402.90045626672935C357.6041705793805 400.53977921341357 361.4583371970389 393.5251959692753 369.16667043235566 393.4577480534663C376.87500366767244 393.3903001376573 376.8750036676725 402.0573573191166 384.5833369029893 402.63066460349324C392.29167013830613 403.20397188786995 392.29167013830613 394.94160220126474 400.0000033736229 395.750977190973C407.7083366089397 396.56035218068126 407.7083366089397 406.0030603939444 415.4166698442565 405.86816456232634C423.12500307957333 405.7332687307083 423.12500307957333 395.0427740749783 430.8333363148901 395.21139386450085C438.54166955020696 395.3800136540234 442.39583616786535 403.7098312564376 446.25000278552375 406.54264372041655 " transform="rotate(12.5, 400, 400)"></path><path d="M363.0000039323171 402.32036520411833C366.0833372264438 400.43182356146576 369.16667052057056 394.8201569661551 375.333337108824 394.7661986335079C381.50000369707743 394.7122403008607 381.50000369707743 401.6458860460281 387.6666702853309 402.1045318735295C393.83333687358436 402.56317770103084 393.83333687358436 395.95328195174665 400.00000346183776 396.60078194351325C406.1666700500912 397.2482819352799 406.1666700500912 404.80244850589037 412.3333366383447 404.6945318405959C418.5000032265981 404.5866151753015 418.5000032265981 396.0342194507175 424.66666981485156 396.16911528233555C430.833336403105 396.3040111139536 433.9166696972317 402.96786519588494 437.00000299135843 405.2341151670681 " transform="rotate(10, 400, 400)"></path><path d="M372.2500039029121 401.74027414150737C374.5625038735072 400.3238679095179 376.87500384410225 396.1151179630349 381.5000037852923 396.0746492135495C386.1250037264824 396.0341804640641 386.1250037264824 401.23441477293966 390.75000366767244 401.57839914356566C395.3750036088626 401.9223835141917 395.3750036088626 396.9649617022286 400.0000035500526 397.4505866960535C404.62500349124275 397.9362116898785 404.62500349124275 403.60183661783634 409.2500034324328 403.52089911886554C413.8750033736229 403.4399616198947 413.8750033736229 397.0256648264567 418.500003314813 397.1268367001702C423.1250032560031 397.22800857388376 425.4375032265981 402.22589913533227 427.75000319719317 403.92558661371964 " transform="rotate(7.5, 400, 400)"></path><path d="M381.5000038735072 401.16018212522204C383.04167052057056 400.2159113038957 384.5833371676339 397.4100780062404 387.66667046176065 397.3830988399168C390.75000375588735 397.3561196735932 390.75000375588735 400.82294254617693 393.83333705001405 401.0522654599276C396.9166703441408 401.28158837367823 396.9166703441408 397.9766404990362 400.0000036382675 398.3003904949195C403.0833369323942 398.6241404908028 403.0833369323942 402.401223776108 406.166670226521 402.3472654434608C409.2500035206477 402.2933071108136 409.2500035206477 398.0171092485216 412.3333368147744 398.0845571643306C415.41667010890114 398.15200508013965 416.9583367559645 401.48393212110534 418.50000340302785 402.6170571066969 " transform="rotate(5, 400, 400)"></path><path d="M390.75000384410225 400.580091062611C391.5208371676339 400.10795565194786 392.2916704911656 398.7050390031202 393.83333713822896 398.6915494199584C395.3750037852923 398.6780598367966 395.3750037852923 400.41147127308847 396.91667043235566 400.5261327299638C398.45833707941904 400.6407941868391 398.45833707941904 398.9883202495181 400.0000037264824 399.15019524745975C401.54167037354574 399.3120702454014 401.54167037354574 401.200611888054 403.0833370206091 401.1736327217304C404.62500366767244 401.1466535554068 404.62500366767244 399.0085546242608 406.1666703147358 399.0422785821653C407.7083369617992 399.0760025400698 408.4791702853309 400.74196606055267 409.2500036088626 401.3085285533484 " transform="rotate(2.5, 400, 400)"></path></g></svg>