<svg width="489" height="489" viewBox="0 0 489 489" fill="none" xmlns="http://www.w3.org/2000/svg">
<g style="mix-blend-mode:screen">
<circle cx="244.5" cy="244.501" r="199" transform="rotate(165 244.5 244.501)" fill="#061A05"/>
<circle cx="244.5" cy="244.501" r="199" transform="rotate(165 244.5 244.501)" stroke="#044200"/>
</g>
<path d="M233.691 149.802C233.691 149.802 228.419 149.377 226.67 149.489C193.063 151.736 195.572 241.419 195.572 241.419C200.804 335.294 222.8 333.966 227.317 334.89C231.331 335.711 236.697 334.274 236.697 334.274L233.691 149.802Z" fill="#B6BFC6"/>
<path d="M208.733 242.424C209.712 293.367 221.965 334.444 236.1 334.172C250.235 333.9 260.9 292.383 259.92 241.44C258.941 190.497 246.688 149.42 232.553 149.691C218.418 149.963 207.753 191.481 208.733 242.424Z" fill="#EAF4FD"/>
<path d="M252.902 240.528C252.058 195.339 243.596 158.891 234.097 159.064C224.598 159.238 217.563 196.044 218.462 241.219C219.361 286.393 227.768 322.856 237.267 322.682C246.751 322.453 253.801 285.702 252.902 240.528Z" fill="url(#paint0_linear_439_234)"/>
<path d="M225.763 238.831C226.44 274.058 231.296 302.533 236.608 302.43C241.921 302.328 245.679 273.688 245.001 238.462C244.324 203.235 239.469 174.761 234.156 174.863C228.844 174.965 225.086 203.605 225.763 238.831Z" fill="#EAF4FD"/>
<path d="M237.69 233.1C237.489 222.837 236.085 214.498 234.502 214.566C232.96 214.564 231.838 222.988 232.038 233.25C232.239 243.513 233.643 251.852 235.226 251.784C236.808 251.715 237.89 243.362 237.69 233.1Z" fill="url(#paint1_linear_439_234)"/>
<path d="M307.294 233.537L310.454 238.026C311.322 239.276 310.671 241.051 309.178 241.451C303.742 242.848 292.599 244.411 289.153 234.425L307.294 233.537Z" fill="url(#paint2_linear_439_234)"/>
<path d="M307.264 233.426L310.258 228.888C311.097 227.596 310.387 225.83 308.881 225.522C303.442 224.252 292.252 222.982 289.033 233.093L307.264 233.426Z" fill="url(#paint3_linear_439_234)"/>
<path d="M249.862 234.935C250.391 236.69 251.952 236.984 251.952 236.984C251.952 236.984 305.83 234.049 309.025 234.023C310.622 234.01 311.411 233.858 311.783 233.699C311.949 233.654 311.945 233.418 311.82 233.393C311.414 233.205 310.506 232.915 309.034 232.953C305.84 232.979 251.901 231.483 251.901 231.483C251.901 231.483 250.337 231.843 249.853 233.574C249.853 233.574 249.694 234.09 249.754 234.312C249.728 234.437 249.862 234.935 249.862 234.935Z" fill="url(#paint4_linear_439_234)"/>
<path d="M234.367 233.753L250.144 233.557C250.561 233.563 250.941 233.877 250.949 234.349C250.942 234.766 250.629 235.146 250.157 235.154L234.38 235.35L234.367 233.753Z" fill="url(#paint5_linear_439_234)"/>
<path d="M300.748 354.702L301.769 360.061C302.059 361.584 300.762 362.939 299.201 362.646C293.67 361.697 282.865 358.545 283.786 348.041L300.748 354.702Z" fill="url(#paint6_diamond_439_234)"/>
<path d="M300.733 354.646L305.352 351.748C306.671 350.92 306.765 349.057 305.499 348.092C301.038 344.722 291.315 338.968 284.293 346.837L300.733 354.646Z" fill="url(#paint7_diamond_439_234)"/>
<path d="M247.725 332.504C247.491 334.286 248.813 335.236 248.813 335.236C248.813 335.236 299.176 354.587 302.128 355.871C303.597 356.486 304.365 356.695 304.837 356.687C305.018 356.698 305.084 356.502 304.999 356.406C304.674 356.078 303.969 355.437 302.625 354.849C299.672 353.565 251.06 330.128 251.06 330.128C251.06 330.128 249.485 329.779 248.328 331.216C248.328 331.216 248.015 331.596 247.949 331.792C247.813 331.947 247.725 332.504 247.725 332.504Z" fill="url(#paint8_diamond_439_234)"/>
<path d="M234.292 325.078L248.775 331.335C249.181 331.523 249.37 332.006 249.182 332.412C248.994 332.818 248.511 333.007 248.105 332.819L233.622 326.562L234.292 325.078Z" fill="url(#paint9_diamond_439_234)"/>
<path d="M278.936 187.007L283.514 189.931C284.806 190.77 284.893 192.644 283.658 193.568C279.173 196.963 269.474 202.586 262.452 194.744L278.936 187.007Z" fill="url(#paint10_diamond_439_234)"/>
<path d="M278.867 186.97L279.915 181.59C280.223 180.085 278.908 178.718 277.37 178.952C271.856 179.837 261.018 182.978 261.876 193.48L278.867 186.97Z" fill="url(#paint11_diamond_439_234)"/>
<path d="M226.345 210.232C227.494 211.643 229.072 211.339 229.072 211.339C229.072 211.339 277.787 188.029 280.726 186.827C282.16 186.205 282.86 185.721 283.148 185.466C283.243 185.381 283.184 185.16 283.018 185.204C282.546 185.212 281.616 185.284 280.223 185.835C277.299 187.093 226.819 206.251 226.819 206.251C226.819 206.251 225.459 207.149 225.712 208.978C225.712 208.978 225.79 209.491 225.905 209.698C226.005 209.849 226.345 210.232 226.345 210.232Z" fill="url(#paint12_diamond_439_234)"/>
<path d="M211.37 215.194L225.893 208.99C226.321 208.816 226.782 208.989 226.956 209.416C227.13 209.844 226.957 210.306 226.529 210.479L212.006 216.683L211.37 215.194Z" fill="url(#paint13_diamond_439_234)"/>
<path d="M305.242 278.319L307.989 283.038C308.761 284.372 307.97 286.066 306.447 286.356C300.948 287.296 289.649 287.833 287.088 277.61L305.242 278.319Z" fill="url(#paint14_diamond_439_234)"/>
<path d="M305.212 278.207L308.626 273.913C309.606 272.701 309.062 270.891 307.567 270.402C302.231 268.63 291.205 266.426 287.118 276.178L305.212 278.207Z" fill="url(#paint15_diamond_439_234)"/>
<path d="M247.863 274.604C248.227 276.404 249.762 276.823 249.762 276.823C249.762 276.823 303.734 278.665 306.878 278.89C308.449 279.003 309.253 278.906 309.696 278.787C309.862 278.743 309.873 278.562 309.732 278.481C309.312 278.238 308.444 277.878 306.998 277.791C303.799 277.581 250.224 271.244 250.224 271.244C250.224 271.244 248.616 271.438 248.005 273.143C248.005 273.143 247.833 273.605 247.837 273.841C247.785 274.092 247.863 274.604 247.863 274.604Z" fill="url(#paint16_diamond_439_234)"/>
<path d="M232.609 272.109L248.34 273.289C248.772 273.351 249.097 273.679 249.105 274.151C249.043 274.583 248.715 274.908 248.243 274.916L232.511 273.736L232.609 272.109Z" fill="url(#paint17_diamond_439_234)"/>
<path d="M357.188 277.602L357.288 275.887L316.639 273.529L316.54 275.245L357.188 277.602Z" fill="#515151"/>
<path d="M352.697 248.77L352.75 247.053L332.657 246.439L332.605 248.156L352.697 248.77Z" fill="#515151"/>
<path d="M386.734 265.456L386.819 263.74L310.746 259.995L310.662 261.71L386.734 265.456Z" fill="#515151"/>
<path d="M367.401 334.61C371.347 333.552 373.729 329.433 372.673 325.492L374.273 325.063C375.571 329.909 372.681 334.907 367.829 336.207C362.976 337.507 357.974 334.624 356.676 329.779L358.276 329.35C359.332 333.29 363.455 335.667 367.401 334.61Z" fill="url(#paint18_diamond_439_234)"/>
<path d="M332.668 206.571C336.614 205.514 340.737 207.891 341.793 211.831L343.393 211.402C342.094 206.557 337.093 203.674 332.24 204.974C327.388 206.274 324.498 211.272 325.796 216.117L327.396 215.689C326.34 211.748 328.722 207.629 332.668 206.571Z" fill="url(#paint19_diamond_439_234)"/>
<path d="M393.615 229.434L417.344 223.076L410.117 245.159L393.615 229.434ZM414.115 226.167L397.851 230.525L409.182 241.244L414.115 226.167Z" fill="url(#paint20_diamond_439_234)"/>
<path d="M365.423 133.487L363.382 133.462C361.853 136.538 358.73 138.645 355.036 138.619C349.941 138.587 345.836 134.418 345.887 129.388C345.922 124.3 350.1 120.196 355.135 120.244C358.517 120.29 361.497 122.158 363.062 124.913L365.162 124.922C363.446 121.128 359.619 118.471 355.149 118.399C349.042 118.385 344.058 123.275 344.04 129.375C344.021 135.475 348.914 140.45 355.022 140.464C359.788 140.457 363.777 137.547 365.423 133.487Z" fill="url(#paint21_diamond_439_234)"/>
<path d="M125.734 313.518C127.837 312.804 130.056 313.084 131.869 314.309L133.127 315.096C134.451 315.923 136.016 316.072 137.432 315.574C138.889 315.009 139.917 313.808 140.307 312.299C140.871 310.071 142.487 308.222 144.674 307.376C146.86 306.529 149.253 306.826 151.197 308.134L152.414 308.987C153.631 309.839 155.088 310.012 156.462 309.581C157.837 309.149 158.956 308.096 159.437 306.737L161.605 307.54C160.884 309.578 159.194 311.103 157.09 311.817C155.028 312.465 152.743 312.143 150.997 310.959L149.78 310.107C148.498 309.213 146.867 309.023 145.409 309.587C143.951 310.152 142.858 311.312 142.534 312.862C141.969 315.09 140.395 316.873 138.275 317.76C136.088 318.607 133.762 318.351 131.842 317.151L130.584 316.365C129.326 315.579 127.803 315.364 126.345 315.928C124.929 316.426 123.901 317.628 123.445 319.095L123.287 319.642C122.657 321.829 121.124 323.545 119.045 324.367C116.966 325.188 114.64 324.933 112.72 323.732L113.963 321.743C115.221 322.53 116.786 322.678 118.202 322.18C119.618 321.682 120.646 320.48 121.061 319.08L121.218 318.533C121.849 316.345 123.382 314.629 125.527 313.849C125.585 313.609 125.692 313.584 125.734 313.518Z" fill="url(#paint22_diamond_439_234)"/>
<path d="M132.646 236.085C130.488 235.557 128.767 234.129 127.897 232.122L127.258 230.783C126.586 229.373 125.346 228.407 123.884 228.066C122.352 227.759 120.839 228.221 119.7 229.283C118.026 230.859 115.671 231.55 113.372 231.089C111.073 230.628 109.215 229.093 108.277 226.945L107.709 225.572C107.141 224.199 106.005 223.27 104.614 222.896C103.223 222.521 101.714 222.808 100.578 223.696L99.1797 221.854C100.884 220.522 103.129 220.144 105.286 220.672C107.373 221.234 109.127 222.733 109.964 224.67L110.532 226.042C111.134 227.485 112.407 228.522 113.94 228.829C115.472 229.136 117.018 228.745 118.124 227.612C119.798 226.036 122.083 225.379 124.348 225.769C126.647 226.23 128.472 227.695 129.446 229.739L130.085 231.078C130.723 232.417 131.893 233.417 133.425 233.724C134.887 234.065 136.4 233.604 137.572 232.612L137.999 232.235C139.707 230.729 141.921 230.106 144.116 230.53C146.31 230.954 148.135 232.419 149.11 234.463L146.992 235.473C146.354 234.134 145.114 233.168 143.652 232.827C142.19 232.486 140.678 232.948 139.575 233.906L139.149 234.282C137.441 235.788 135.227 236.412 132.998 235.917C132.82 236.089 132.716 236.052 132.646 236.085Z" fill="url(#paint23_diamond_439_234)"/>
<path d="M142.492 151.326C140.717 149.991 139.697 148.001 139.687 145.813L139.627 144.331C139.564 142.771 138.805 141.395 137.595 140.506C136.307 139.62 134.735 139.449 133.27 139.977C131.111 140.767 128.673 140.475 126.741 139.146C124.81 137.818 123.706 135.674 123.689 133.331L123.708 131.845C123.726 130.36 123.048 129.059 121.916 128.167C120.785 127.275 119.284 126.944 117.891 127.313L117.331 125.07C119.421 124.516 121.634 125.052 123.409 126.387C125.107 127.725 126.129 129.794 126.136 131.904L126.118 133.389C126.102 134.953 126.865 136.406 128.153 137.292C129.441 138.178 131.016 138.427 132.478 137.821C134.638 137.031 136.997 137.326 138.926 138.577C140.857 139.905 141.958 141.971 142.049 144.233L142.109 145.716C142.169 147.198 142.851 148.577 144.138 149.463C145.348 150.352 146.92 150.523 148.389 150.073L148.929 149.894C151.091 149.182 153.373 149.481 155.223 150.735C157.074 151.988 158.174 154.054 158.266 156.316L155.922 156.411C155.862 154.928 155.102 153.553 153.893 152.664C152.683 151.775 151.111 151.604 149.72 152.051L149.18 152.229C147.018 152.941 144.736 152.642 142.883 151.311C142.651 151.398 142.57 151.323 142.492 151.326Z" fill="url(#paint24_diamond_439_234)"/>
<defs>
<linearGradient id="paint0_linear_439_234" x1="260.599" y1="234.162" x2="210.723" y2="247.526" gradientUnits="userSpaceOnUse">
<stop stop-color="#FA655C"/>
<stop offset="1" stop-color="#FFBF8A"/>
</linearGradient>
<linearGradient id="paint1_linear_439_234" x1="239.939" y1="231.794" x2="229.818" y2="234.507" gradientUnits="userSpaceOnUse">
<stop stop-color="#FA655C"/>
<stop offset="1" stop-color="#FFBF8A"/>
</linearGradient>
<linearGradient id="paint2_linear_439_234" x1="309.802" y1="235.089" x2="290.704" y2="240.206" gradientUnits="userSpaceOnUse">
<stop stop-color="#E30613"/>
<stop offset="0.11" stop-color="#E30B13"/>
<stop offset="0.25" stop-color="#E41C15"/>
<stop offset="0.42" stop-color="#E73718"/>
<stop offset="0.53" stop-color="#E94E1B"/>
<stop offset="0.82" stop-color="#EF7A09"/>
<stop offset="1" stop-color="#F39200"/>
</linearGradient>
<linearGradient id="paint3_linear_439_234" x1="310.544" y1="227.115" x2="288.981" y2="232.893" gradientUnits="userSpaceOnUse">
<stop stop-color="#E30613"/>
<stop offset="0.11" stop-color="#E30B13"/>
<stop offset="0.25" stop-color="#E41C15"/>
<stop offset="0.42" stop-color="#E73718"/>
<stop offset="0.53" stop-color="#E94E1B"/>
<stop offset="0.82" stop-color="#EF7A09"/>
<stop offset="1" stop-color="#F39200"/>
</linearGradient>
<linearGradient id="paint4_linear_439_234" x1="309.676" y1="225.144" x2="251.425" y2="240.752" gradientUnits="userSpaceOnUse">
<stop stop-color="#E30613"/>
<stop offset="0.11" stop-color="#E30B13"/>
<stop offset="0.25" stop-color="#E41C15"/>
<stop offset="0.42" stop-color="#E73718"/>
<stop offset="0.53" stop-color="#E94E1B"/>
<stop offset="0.82" stop-color="#EF7A09"/>
<stop offset="1" stop-color="#F39200"/>
</linearGradient>
<linearGradient id="paint5_linear_439_234" x1="250.423" y1="232.28" x2="234.688" y2="236.496" gradientUnits="userSpaceOnUse">
<stop stop-color="#E30613"/>
<stop offset="0.11" stop-color="#E30B13"/>
<stop offset="0.25" stop-color="#E41C15"/>
<stop offset="0.42" stop-color="#E73718"/>
<stop offset="0.53" stop-color="#E94E1B"/>
<stop offset="0.82" stop-color="#EF7A09"/>
<stop offset="1" stop-color="#F39200"/>
</linearGradient>
<radialGradient id="paint6_diamond_439_234" cx="0" cy="0" r="1" gradientUnits="userSpaceOnUse" gradientTransform="translate(286.138 351.595) rotate(-15) scale(6.18513 260.405)">
<stop stop-color="#22FF71"/>
<stop offset="1" stop-color="#07CC4D"/>
</radialGradient>
<radialGradient id="paint7_diamond_439_234" cx="0" cy="0" r="1" gradientUnits="userSpaceOnUse" gradientTransform="translate(287.325 347.094) rotate(-15) scale(8.26215 196.301)">
<stop stop-color="#22FF71"/>
<stop offset="1" stop-color="#07CC4D"/>
</radialGradient>
<radialGradient id="paint8_diamond_439_234" cx="0" cy="0" r="1" gradientUnits="userSpaceOnUse" gradientTransform="translate(255.952 337.656) rotate(-15) scale(19.7696 566.161)">
<stop stop-color="#22FF71"/>
<stop offset="1" stop-color="#07CC4D"/>
</radialGradient>
<radialGradient id="paint9_diamond_439_234" cx="0" cy="0" r="1" gradientUnits="userSpaceOnUse" gradientTransform="translate(235.773 327.247) rotate(-15) scale(5.48355 159.706)">
<stop stop-color="#22FF71"/>
<stop offset="1" stop-color="#07CC4D"/>
</radialGradient>
<radialGradient id="paint10_diamond_439_234" cx="0" cy="0" r="1" gradientUnits="userSpaceOnUse" gradientTransform="translate(265.146 192.921) rotate(-15) scale(8.87342 138.112)">
<stop stop-color="#22FF71"/>
<stop offset="1" stop-color="#07CC4D"/>
</radialGradient>
<radialGradient id="paint11_diamond_439_234" cx="0" cy="0" r="1" gradientUnits="userSpaceOnUse" gradientTransform="translate(262.596 185.057) rotate(-15) scale(8.29961 144.964)">
<stop stop-color="#22FF71"/>
<stop offset="1" stop-color="#07CC4D"/>
</radialGradient>
<radialGradient id="paint12_diamond_439_234" cx="0" cy="0" r="1" gradientUnits="userSpaceOnUse" gradientTransform="translate(232.451 201.179) rotate(-15) scale(24.6858 163.017)">
<stop stop-color="#22FF71"/>
<stop offset="1" stop-color="#07CC4D"/>
</radialGradient>
<radialGradient id="paint13_diamond_439_234" cx="0" cy="0" r="1" gradientUnits="userSpaceOnUse" gradientTransform="translate(213.227 213.254) rotate(-15) scale(6.62806 54.6406)">
<stop stop-color="#22FF71"/>
<stop offset="1" stop-color="#07CC4D"/>
</radialGradient>
<radialGradient id="paint14_diamond_439_234" cx="0" cy="0" r="1" gradientUnits="userSpaceOnUse" gradientTransform="translate(290.382 279.803) rotate(-15) scale(7.55114 191.379)">
<stop stop-color="#22FF71"/>
<stop offset="1" stop-color="#07CC4D"/>
</radialGradient>
<radialGradient id="paint15_diamond_439_234" cx="0" cy="0" r="1" gradientUnits="userSpaceOnUse" gradientTransform="translate(289.553 273.327) rotate(-15) scale(8.91514 159.877)">
<stop stop-color="#22FF71"/>
<stop offset="1" stop-color="#07CC4D"/>
</radialGradient>
<radialGradient id="paint16_diamond_439_234" cx="0" cy="0" r="1" gradientUnits="userSpaceOnUse" gradientTransform="translate(256.348 274.772) rotate(-15) scale(23.547 322.52)">
<stop stop-color="#22FF71"/>
<stop offset="1" stop-color="#07CC4D"/>
</radialGradient>
<radialGradient id="paint17_diamond_439_234" cx="0" cy="0" r="1" gradientUnits="userSpaceOnUse" gradientTransform="translate(234.635 273.116) rotate(-15) scale(6.38479 96.4699)">
<stop stop-color="#22FF71"/>
<stop offset="1" stop-color="#07CC4D"/>
</radialGradient>
<radialGradient id="paint18_diamond_439_234" cx="0" cy="0" r="1" gradientUnits="userSpaceOnUse" gradientTransform="translate(359.636 331.063) rotate(-15) scale(7.29245 129.288)">
<stop stop-color="#22FF71"/>
<stop offset="1" stop-color="#07CC4D"/>
</radialGradient>
<radialGradient id="paint19_diamond_439_234" cx="0" cy="0" r="1" gradientUnits="userSpaceOnUse" gradientTransform="translate(326.402 208.615) rotate(-15) scale(7.29245 129.288)">
<stop stop-color="#22FF71"/>
<stop offset="1" stop-color="#07CC4D"/>
</radialGradient>
<radialGradient id="paint20_diamond_439_234" cx="0" cy="0" r="1" gradientUnits="userSpaceOnUse" gradientTransform="translate(398.018 232.699) rotate(-15) scale(9.83376 276.597)">
<stop stop-color="#22FF71"/>
<stop offset="1" stop-color="#07CC4D"/>
</radialGradient>
<radialGradient id="paint21_diamond_439_234" cx="0" cy="0" r="1" gradientUnits="userSpaceOnUse" gradientTransform="translate(345.761 125.548) rotate(-15) scale(8.78503 313.516)">
<stop stop-color="#22FF71"/>
<stop offset="1" stop-color="#07CC4D"/>
</radialGradient>
<radialGradient id="paint22_diamond_439_234" cx="0" cy="0" r="1" gradientUnits="userSpaceOnUse" gradientTransform="translate(121.812 322.931) rotate(-57.9929) scale(15.8685 469.408)">
<stop stop-color="#22FF71"/>
<stop offset="1" stop-color="#07CC4D"/>
</radialGradient>
<radialGradient id="paint23_diamond_439_234" cx="0" cy="0" r="1" gradientUnits="userSpaceOnUse" gradientTransform="translate(141.011 230.254) rotate(154.507) scale(15.8685 469.407)">
<stop stop-color="#22FF71"/>
<stop offset="1" stop-color="#07CC4D"/>
</radialGradient>
<radialGradient id="paint24_diamond_439_234" cx="0" cy="0" r="1" gradientUnits="userSpaceOnUse" gradientTransform="translate(152.478 149.259) rotate(177.689) scale(15.8685 469.408)">
<stop stop-color="#22FF71"/>
<stop offset="1" stop-color="#07CC4D"/>
</radialGradient>
</defs>
</svg>
