<svg width="90" height="91" viewBox="0 0 90 91" fill="none" xmlns="http://www.w3.org/2000/svg">
<path d="M82.3487 51.5549L82.2135 52.3426L82.7919 52.8942L87.9286 57.7925L82.5235 69.8261L75.5911 69.4371L74.7845 69.3918L74.3028 70.0404C72.3621 72.6535 70.1574 74.6108 67.6228 76.5317L67.0373 76.9755L67.0289 77.7101L66.9512 84.544L54.6349 89.1097L49.9486 84.0379L49.4519 83.5003L48.7225 83.5611C45.6085 83.8203 42.3374 83.7317 39.3486 83.2199L38.5841 83.089L38.0353 83.6372L33.1273 88.5403L21.3272 83.3011L21.7163 76.3814L21.7617 75.5738L21.1119 75.0921C18.4961 73.1533 16.5368 70.9508 14.6141 68.4188L14.1703 67.8344L13.4365 67.8261L6.57364 67.7482L1.7714 55.5224L6.83198 50.8557L7.37085 50.3588L7.30992 49.6283C7.05045 46.5177 7.1391 43.2502 7.65138 40.2649L7.78278 39.4991L7.23311 38.95L2.32918 34.051L7.7449 21.9936L14.6774 22.3827L15.484 22.428L15.9657 21.7794C17.9063 19.1663 20.1109 17.209 22.6456 15.2881L23.2311 14.8443L23.2395 14.1097L23.3174 7.26275L35.3739 2.63024L40.0514 7.69253L40.5481 8.23012L41.2775 8.1694C44.3915 7.91015 47.6627 7.99867 50.6514 8.51051L51.416 8.64145L51.9647 8.09322L56.87 3.19285L68.9061 8.58833L68.2875 15.3867L68.2111 16.2259L68.8881 16.7277C71.5039 18.6665 73.4632 20.869 75.3859 23.401L75.8297 23.9854L76.5635 23.9937L83.4264 24.0716L88.2286 36.2974L83.168 40.9641L82.6291 41.461L82.6901 42.1915C82.9496 45.3021 82.861 48.5696 82.3487 51.5549ZM26.6331 37.521L26.631 37.5258C22.0911 47.7545 26.6341 59.5432 36.7833 64.0816C46.9243 68.6164 58.8229 64.1792 63.369 53.9365C67.9052 43.7163 63.4638 31.9197 53.2119 27.3786C42.9761 22.8446 31.1767 27.3805 26.6331 37.521Z" stroke="url(#paint0_diamond_439_964)" stroke-width="3"/>
<defs>
<radialGradient id="paint0_diamond_439_964" cx="0" cy="0" r="1" gradientUnits="userSpaceOnUse" gradientTransform="translate(77.5173 71.0123) rotate(-180) scale(36.0267 1279.22)">
<stop stop-color="#22FF71"/>
<stop offset="1" stop-color="#07CC4D"/>
</radialGradient>
</defs>
</svg>
