<svg width="53" height="57" viewBox="0 0 53 57" fill="none" xmlns="http://www.w3.org/2000/svg">
<path d="M21.8556 29.0037C21.8556 29.0037 33.9336 26.706 36.8093 11.7715C36.8093 11.7715 39.9725 26.4188 52.0505 28.7165C52.0505 28.7165 38.8223 33.8861 37.0968 45.9487C37.0968 45.9487 34.2211 31.5885 21.8556 29.0037Z" fill="#1ED760"/>
<path d="M0 13.8966C0 13.8966 9.54735 12.0585 11.8479 0.283203C11.8479 0.283203 14.321 11.8862 23.8684 13.6669C23.8684 13.6669 13.4008 17.7452 12.0204 27.2803C12.0204 27.2803 9.7774 15.9071 0 13.8966Z" fill="#1ED760"/>
<path d="M1.84045 44.6284C1.84045 44.6284 9.94994 43.0775 11.9054 33.0254C11.9054 33.0254 14.0334 42.9052 22.1429 44.3986C22.1429 44.3986 13.2282 47.9025 12.078 56.0016C12.078 56.0016 10.1225 46.3516 1.84045 44.6284Z" fill="#1ED760"/>
</svg>
