<svg width="55" height="49" viewBox="0 0 55 49" fill="none" xmlns="http://www.w3.org/2000/svg">
<path d="M29.3344 37.7319C27.8372 35.652 27.3979 33.1093 28.1379 30.6961L28.5809 29.0427C29.0473 27.3023 28.6828 25.5259 27.6556 24.1314C26.5413 22.7137 24.8687 21.9857 23.0733 22.0642C20.4238 22.1937 17.8393 21.0348 16.1679 18.9082C14.4965 16.7815 14.0166 14.0415 14.8033 11.4542L15.3334 9.82419C15.8635 8.19417 15.5629 6.52808 14.6229 5.157C13.6828 3.78591 12.1439 2.90723 10.4823 2.83507L10.6357 0.171416C13.1281 0.279658 15.3813 1.62952 16.8784 3.70949C18.2885 5.76612 18.7045 8.39581 17.9878 10.722L17.4577 12.352C16.9042 14.069 17.2454 15.9325 18.3596 17.3503C19.4739 18.7681 21.1233 19.5831 22.942 19.4175C25.5915 19.2881 28.0888 20.4236 29.7836 22.4632C31.455 24.5899 31.9582 27.2429 31.282 29.7665L30.839 31.4198C30.3959 33.0732 30.6733 34.8263 31.7876 36.2441C32.8147 37.6385 34.4874 38.3665 36.2594 38.375L36.916 38.3644C39.5422 38.322 41.9524 39.4341 43.56 41.4504C45.1676 43.4667 45.6708 46.1197 44.9946 48.6433L42.3807 47.9429C42.8237 46.2895 42.4592 44.5131 41.4321 43.1186C40.4049 41.7242 38.7322 40.9962 37.0473 41.0111L36.3908 41.0217C33.7646 41.0641 31.3544 39.952 29.7701 37.8487C29.4854 37.8656 29.4215 37.7553 29.3344 37.7319Z" fill="#1ED760"/>
</svg>
