<svg width="506" height="506" viewBox="0 0 506 506" fill="none" xmlns="http://www.w3.org/2000/svg">
<g style="mix-blend-mode:screen">
<circle cx="253" cy="253" r="253" fill="#061A05"/>
</g>
<path d="M139.029 411.021C139.029 411.021 103.585 331.792 124.306 294.444C127.578 288.461 135.757 287.373 140.483 292.268C150.571 302.784 163.84 331.611 157.387 411.021H139.029Z" fill="url(#paint0_diamond_175_309)"/>
<path d="M146.391 411.113C146.3 410.206 131.85 295.533 131.85 295.533C137.666 322.547 148.027 409.934 148.118 410.841L146.391 411.113Z" fill="white"/>
<path d="M117.672 426.068C117.672 426.068 30.0606 345.661 35.968 287.372C36.8768 278.126 46.5104 272.324 55.1443 275.95C73.5026 283.656 105.857 312.845 140.847 416.096L117.672 426.068Z" fill="url(#paint1_diamond_175_309)"/>
<path d="M126.942 422.26C126.306 421.173 46.0562 284.834 46.0562 284.834C68.0498 315.655 128.396 419.994 129.123 420.991L126.942 422.26Z" fill="white"/>
<path d="M2.7959 456.98C2.7959 456.98 32.7872 373.581 106.948 406.306C106.948 406.306 138.302 420.538 172.565 385.003C172.565 385.003 236.001 303.237 297.347 330.251C297.347 330.251 327.338 341.672 342.97 397.151C342.97 397.151 421.402 394.34 431.399 456.889L2.7959 456.98Z" fill="url(#paint2_diamond_175_309)"/>
<path d="M176.109 456.798C176.109 456.798 206.1 384.278 254.541 414.102C254.541 414.102 274.535 436.855 297.346 416.912C297.346 416.912 338.698 361.434 385.775 381.377C432.853 401.32 449.939 456.798 449.939 456.798H176.109Z" fill="url(#paint3_diamond_175_309)"/>
<path d="M444.608 273.693C445.079 270.946 445.158 267.962 444.922 265.136L450.032 260.426L445.158 248.022L438.24 247.944C436.51 245.667 434.702 243.626 432.265 241.82L432.894 234.912L420.63 229.416L415.677 234.362C412.926 233.891 409.938 233.813 407.108 234.048L402.391 228.945L390.127 233.656L390.049 240.564C387.769 242.291 385.725 244.097 383.917 246.53L376.92 246.138L371.417 258.385L376.37 263.331C375.898 266.078 375.819 269.061 376.055 271.888L370.945 276.598L375.819 289.002L382.738 289.08C384.467 291.357 386.275 293.398 388.712 295.204L388.319 302.191L400.347 307.529L405.3 302.583C408.052 303.054 411.039 303.133 413.869 302.897L418.586 308L431.086 303.368L431.164 296.46C433.444 294.733 435.488 292.927 437.296 290.493L444.293 290.886L449.796 278.639L444.608 273.693ZM403.806 283.271C395.552 279.581 391.857 270.004 395.552 261.682C399.247 253.439 408.838 249.749 417.171 253.439C425.504 257.129 429.12 266.706 425.425 275.028C421.731 283.349 412.061 286.961 403.806 283.271Z" fill="url(#paint4_linear_175_309)"/>
<path d="M383.603 206.494C383.131 204.374 382.345 202.254 381.323 200.292L383.603 195.424L376.449 188.045L371.496 190.008C369.609 188.908 367.723 187.966 365.443 187.417L363.87 182.314L353.572 182L351.528 187.024C349.405 187.495 347.283 188.28 345.317 189.301L340.443 187.024L333.053 194.011L335.019 198.957C333.918 200.841 332.975 202.725 332.424 205.002L327.314 206.808L327 217.092L332.031 219.133C332.503 221.253 333.289 223.372 334.311 225.335L332.031 230.202L339.185 237.582L344.138 235.619C346.025 236.718 347.912 237.66 350.191 238.21L352 243.313L362.141 243.627L364.185 238.602C366.308 238.131 368.43 237.346 370.395 236.326L375.27 238.602L382.817 231.615L380.851 226.669C381.952 224.785 382.895 222.901 383.446 220.625L388.556 218.819L388.87 208.535L383.603 206.494ZM357.267 225.335C350.27 225.099 344.846 219.368 345.003 212.382C345.16 205.395 350.978 199.978 357.974 200.135C364.971 200.37 370.395 206.101 370.238 213.088C370.002 220.075 364.264 225.492 357.267 225.335Z" fill="url(#paint5_linear_175_309)"/>
<path d="M228.914 281.349C228.914 281.349 234.487 283.335 236.409 283.719C273.373 291.022 296.627 193.392 296.627 193.392C318.152 90.4452 294.001 85.5124 289.388 83.2062C285.288 81.1562 279.074 81.1562 279.074 81.1562L228.914 281.349Z" fill="#B6BFC6"/>
<path d="M282.697 188.499C296.388 133.171 295.041 85.2402 279.69 81.4414C264.338 77.6427 240.795 119.415 227.104 174.742C213.413 230.07 214.759 278.001 230.111 281.8C245.463 285.599 269.006 243.827 282.697 188.499Z" fill="#EAF4FD"/>
<path d="M234.423 177.759C222.252 226.83 220.842 268.662 231.156 271.225C241.47 273.787 259.728 236.055 271.835 186.984C283.943 137.913 285.416 96.0803 275.102 93.5178C264.789 91.0194 246.531 128.688 234.423 177.759Z" fill="url(#paint6_linear_175_309)"/>
<path d="M263.256 187.449C272.723 149.191 275.72 117.018 269.95 115.591C264.181 114.163 251.829 144.02 242.361 182.279C232.894 220.538 229.897 252.71 235.667 254.138C241.436 255.566 253.788 225.708 263.256 187.449Z" fill="#EAF4FD"/>
<path d="M248.71 190.186C245.955 201.333 245.058 210.75 246.788 211.134C248.453 211.583 252.105 202.806 254.859 191.66C257.614 180.513 258.511 171.096 256.781 170.711C255.052 170.327 251.464 179.039 248.71 190.186Z" fill="url(#paint7_linear_175_309)"/>
<path d="M173.629 169.56L171.515 163.794C170.938 162.193 172.156 160.463 173.885 160.463C180.163 160.527 192.655 162.064 193.488 173.852L173.629 169.56Z" fill="url(#paint8_linear_175_309)"/>
<path d="M173.629 169.688L169.081 173.723C167.8 174.876 168.056 176.991 169.594 177.759C175.103 180.706 186.826 185.319 193.232 175.325L173.629 169.688Z" fill="url(#paint9_linear_175_309)"/>
<path d="M236.089 184.679C236.025 182.629 234.424 181.861 234.424 181.861C234.424 181.861 175.359 169.433 171.9 168.536C170.17 168.087 169.273 168.023 168.825 168.087C168.632 168.087 168.568 168.344 168.697 168.408C169.081 168.728 169.978 169.305 171.579 169.689C175.039 170.586 232.886 187.818 232.886 187.818C232.886 187.818 234.68 187.882 235.705 186.153C235.705 186.153 236.025 185.64 236.025 185.384C236.089 185.256 236.089 184.679 236.089 184.679Z" fill="url(#paint10_linear_175_309)"/>
<path d="M252.489 190.442L235.385 186.086C234.936 185.958 234.616 185.51 234.744 184.997C234.872 184.549 235.321 184.228 235.833 184.357L252.938 188.713L252.489 190.442Z" fill="url(#paint11_linear_175_309)"/>
<path d="M215.782 40.5388L216.23 34.4529C216.358 32.7233 218.152 31.6342 219.754 32.403C225.455 35.0295 236.217 41.5638 232.182 52.6464L215.782 40.5388Z" fill="url(#paint12_diamond_175_309)"/>
<path d="M215.782 40.6016L209.952 42.3953C208.287 42.9078 207.646 44.8937 208.735 46.303C212.579 51.2358 221.419 60.2685 231.285 53.7983L215.782 40.6016Z" fill="url(#paint13_diamond_175_309)"/>
<path d="M266.647 79.8731C267.416 78.0153 266.263 76.6059 266.263 76.6059C266.263 76.6059 217.448 41.1158 214.629 38.8736C213.22 37.7846 212.451 37.3362 211.938 37.208C211.746 37.144 211.618 37.3362 211.682 37.4643C211.938 37.9127 212.515 38.8096 213.796 39.8346C216.615 42.0767 262.355 81.4746 262.355 81.4746C262.355 81.4746 263.956 82.3074 265.622 81.0902C265.622 81.0902 266.07 80.7699 266.199 80.5777C266.391 80.4496 266.647 79.8731 266.647 79.8731Z" fill="url(#paint14_diamond_175_309)"/>
<path d="M279.011 91.7877L265.174 80.8332C264.789 80.5129 264.725 79.9363 265.045 79.552C265.366 79.1676 265.942 79.1035 266.327 79.4238L280.164 90.3784L279.011 91.7877Z" fill="url(#paint15_diamond_175_309)"/>
<path d="M190.798 228.049L186.698 223.565C185.545 222.284 185.993 220.234 187.594 219.593C193.424 217.223 205.532 213.956 210.849 224.462L190.798 228.049Z" fill="url(#paint16_diamond_175_309)"/>
<path d="M190.862 228.11L188.171 233.619C187.402 235.157 188.427 237.015 190.157 237.207C196.371 237.847 208.991 237.591 211.105 225.996L190.862 228.11Z" fill="url(#paint17_diamond_175_309)"/>
<path d="M254.347 218.181C253.514 216.323 251.721 216.195 251.721 216.195C251.721 216.195 192.336 227.278 188.812 227.726C187.082 227.983 186.186 228.303 185.801 228.495C185.673 228.559 185.673 228.815 185.865 228.815C186.378 228.944 187.403 229.136 189.068 228.944C192.592 228.431 252.682 222.345 252.682 222.345C252.682 222.345 254.411 221.769 254.667 219.719C254.667 219.719 254.731 219.142 254.667 218.886C254.603 218.694 254.347 218.181 254.347 218.181Z" fill="url(#paint18_diamond_175_309)"/>
<path d="M271.964 217.157L254.475 219.655C253.963 219.719 253.514 219.399 253.45 218.887C253.386 218.374 253.706 217.926 254.219 217.862L271.708 215.363L271.964 217.157Z" fill="url(#paint19_diamond_175_309)"/>
<path d="M188.811 121.77L187.21 115.877C186.761 114.211 188.106 112.61 189.836 112.738C196.05 113.314 208.414 116.005 208.222 127.792L188.811 121.77Z" fill="url(#paint20_diamond_175_309)"/>
<path d="M188.811 121.898L183.879 125.55C182.469 126.575 182.533 128.689 184.007 129.65C189.26 133.109 200.535 138.683 207.773 129.33L188.811 121.898Z" fill="url(#paint21_diamond_175_309)"/>
<path d="M249.734 142.398C249.862 140.348 248.324 139.451 248.324 139.451C248.324 139.451 190.541 121.834 187.21 120.681C185.544 120.105 184.647 119.977 184.135 119.977C183.943 119.977 183.878 120.169 184.007 120.297C184.391 120.681 185.224 121.322 186.761 121.834C190.157 122.987 246.21 145.345 246.21 145.345C246.21 145.345 248.004 145.601 249.157 143.936C249.157 143.936 249.478 143.487 249.542 143.231C249.67 142.975 249.734 142.398 249.734 142.398Z" fill="url(#paint22_diamond_175_309)"/>
<path d="M265.493 149.51L248.837 143.681C248.389 143.488 248.132 143.04 248.261 142.528C248.453 142.079 248.901 141.823 249.414 141.951L266.07 147.781L265.493 149.51Z" fill="url(#paint23_diamond_175_309)"/>
<path d="M132.476 107.502L131.872 109.326L175.111 123.642L175.715 121.817L132.476 107.502Z" fill="#515151"/>
<path d="M128.981 139.957L128.427 141.797L149.959 148.277L150.513 146.437L128.981 139.957Z" fill="#515151"/>
<path d="M97.0354 112.073L96.4473 113.902L177.559 139.974L178.148 138.145L97.0354 112.073Z" fill="#515151"/>
<path d="M123.326 75.0279C117.54 75.0279 112.771 79.7908 112.771 85.5687H110.425C110.425 78.4634 116.211 72.6855 123.326 72.6855C130.442 72.6855 136.228 78.4634 136.228 85.5687H133.882C133.882 79.7908 129.112 75.0279 123.326 75.0279Z" fill="url(#paint24_diamond_175_309)"/>
<path d="M123.326 234.187C117.54 234.187 112.771 229.424 112.771 223.646H110.425C110.425 230.752 116.211 236.53 123.326 236.53C130.442 236.53 136.228 230.752 136.228 223.646H133.882C133.882 229.424 129.112 234.187 123.326 234.187Z" fill="url(#paint25_diamond_175_309)"/>
<path d="M82.319 179.921H47.5249L65.5083 152.359L82.319 179.921ZM53.0763 176.876H76.9239L65.352 158.059L53.0763 176.876Z" fill="url(#paint26_diamond_175_309)"/>
<defs>
<radialGradient id="paint0_diamond_175_309" cx="0" cy="0" r="1" gradientUnits="userSpaceOnUse" gradientTransform="translate(153.363 384.145) rotate(-180) scale(16.5255 1731.71)">
<stop stop-color="#22FF71"/>
<stop offset="1" stop-color="#07CC4D"/>
</radialGradient>
<radialGradient id="paint1_diamond_175_309" cx="0" cy="0" r="1" gradientUnits="userSpaceOnUse" gradientTransform="translate(126.261 392.713) rotate(-180) scale(42.097 2149.24)">
<stop stop-color="#22FF71"/>
<stop offset="1" stop-color="#07CC4D"/>
</radialGradient>
<radialGradient id="paint2_diamond_175_309" cx="0" cy="0" r="1" gradientUnits="userSpaceOnUse" gradientTransform="translate(371.953 427.818) rotate(-180) scale(171.568 1879.07)">
<stop stop-color="#22FF71"/>
<stop offset="1" stop-color="#07CC4D"/>
</radialGradient>
<radialGradient id="paint3_diamond_175_309" cx="0" cy="0" r="1" gradientUnits="userSpaceOnUse" gradientTransform="translate(411.959 439.207) rotate(-180) scale(109.613 1133.49)">
<stop stop-color="#22FF71"/>
<stop offset="1" stop-color="#84FFB0"/>
</radialGradient>
<linearGradient id="paint4_linear_175_309" x1="370.939" y1="268.468" x2="450.026" y2="268.468" gradientUnits="userSpaceOnUse">
<stop stop-color="#E30613"/>
<stop offset="0.11" stop-color="#E30B13"/>
<stop offset="0.25" stop-color="#E41C15"/>
<stop offset="0.42" stop-color="#E73718"/>
<stop offset="0.53" stop-color="#E94E1B"/>
<stop offset="0.82" stop-color="#EF7A09"/>
<stop offset="1" stop-color="#F39200"/>
</linearGradient>
<linearGradient id="paint5_linear_175_309" x1="326.995" y1="212.81" x2="388.865" y2="212.81" gradientUnits="userSpaceOnUse">
<stop stop-color="#E30613"/>
<stop offset="0.11" stop-color="#E30B13"/>
<stop offset="0.25" stop-color="#E41C15"/>
<stop offset="0.42" stop-color="#E73718"/>
<stop offset="0.53" stop-color="#E94E1B"/>
<stop offset="0.82" stop-color="#EF7A09"/>
<stop offset="1" stop-color="#F39200"/>
</linearGradient>
<linearGradient id="paint6_linear_175_309" x1="224.263" y1="182.409" x2="282.023" y2="182.409" gradientUnits="userSpaceOnUse">
<stop stop-color="#FA655C"/>
<stop offset="1" stop-color="#FFBF8A"/>
</linearGradient>
<linearGradient id="paint7_linear_175_309" x1="245.901" y1="190.945" x2="257.623" y2="190.945" gradientUnits="userSpaceOnUse">
<stop stop-color="#FA655C"/>
<stop offset="1" stop-color="#FFBF8A"/>
</linearGradient>
<linearGradient id="paint8_linear_175_309" x1="171.368" y1="167.157" x2="193.486" y2="167.157" gradientUnits="userSpaceOnUse">
<stop stop-color="#E30613"/>
<stop offset="0.11" stop-color="#E30B13"/>
<stop offset="0.25" stop-color="#E41C15"/>
<stop offset="0.42" stop-color="#E73718"/>
<stop offset="0.53" stop-color="#E94E1B"/>
<stop offset="0.82" stop-color="#EF7A09"/>
<stop offset="1" stop-color="#F39200"/>
</linearGradient>
<linearGradient id="paint9_linear_175_309" x1="168.259" y1="175.557" x2="193.23" y2="175.557" gradientUnits="userSpaceOnUse">
<stop stop-color="#E30613"/>
<stop offset="0.11" stop-color="#E30B13"/>
<stop offset="0.25" stop-color="#E41C15"/>
<stop offset="0.42" stop-color="#E73718"/>
<stop offset="0.53" stop-color="#E94E1B"/>
<stop offset="0.82" stop-color="#EF7A09"/>
<stop offset="1" stop-color="#F39200"/>
</linearGradient>
<linearGradient id="paint10_linear_175_309" x1="168.625" y1="177.941" x2="236.084" y2="177.941" gradientUnits="userSpaceOnUse">
<stop stop-color="#E30613"/>
<stop offset="0.11" stop-color="#E30B13"/>
<stop offset="0.25" stop-color="#E41C15"/>
<stop offset="0.42" stop-color="#E73718"/>
<stop offset="0.53" stop-color="#E94E1B"/>
<stop offset="0.82" stop-color="#EF7A09"/>
<stop offset="1" stop-color="#F39200"/>
</linearGradient>
<linearGradient id="paint11_linear_175_309" x1="234.714" y1="187.385" x2="252.936" y2="187.385" gradientUnits="userSpaceOnUse">
<stop stop-color="#E30613"/>
<stop offset="0.11" stop-color="#E30B13"/>
<stop offset="0.25" stop-color="#E41C15"/>
<stop offset="0.42" stop-color="#E73718"/>
<stop offset="0.53" stop-color="#E94E1B"/>
<stop offset="0.82" stop-color="#EF7A09"/>
<stop offset="1" stop-color="#F39200"/>
</linearGradient>
<radialGradient id="paint12_diamond_175_309" cx="0" cy="0" r="1" gradientUnits="userSpaceOnUse" gradientTransform="translate(230.669 48.1257) rotate(-180) scale(6.9188 291.294)">
<stop stop-color="#22FF71"/>
<stop offset="1" stop-color="#07CC4D"/>
</radialGradient>
<radialGradient id="paint13_diamond_175_309" cx="0" cy="0" r="1" gradientUnits="userSpaceOnUse" gradientTransform="translate(228.082 52.6428) rotate(-180) scale(9.24219 219.586)">
<stop stop-color="#22FF71"/>
<stop offset="1" stop-color="#07CC4D"/>
</radialGradient>
<radialGradient id="paint14_diamond_175_309" cx="0" cy="0" r="1" gradientUnits="userSpaceOnUse" gradientTransform="translate(259.249 71.9238) rotate(-180) scale(22.1147 633.317)">
<stop stop-color="#22FF71"/>
<stop offset="1" stop-color="#07CC4D"/>
</radialGradient>
<radialGradient id="paint15_diamond_175_309" cx="0" cy="0" r="1" gradientUnits="userSpaceOnUse" gradientTransform="translate(278.039 89.0152) rotate(-180) scale(6.134 178.65)">
<stop stop-color="#22FF71"/>
<stop offset="1" stop-color="#07CC4D"/>
</radialGradient>
<radialGradient id="paint16_diamond_175_309" cx="0" cy="0" r="1" gradientUnits="userSpaceOnUse" gradientTransform="translate(207.41 225.652) rotate(-180) scale(9.92597 154.495)">
<stop stop-color="#22FF71"/>
<stop offset="1" stop-color="#07CC4D"/>
</radialGradient>
<radialGradient id="paint17_diamond_175_309" cx="0" cy="0" r="1" gradientUnits="userSpaceOnUse" gradientTransform="translate(207.888 234.888) rotate(-180) scale(9.28409 162.159)">
<stop stop-color="#22FF71"/>
<stop offset="1" stop-color="#07CC4D"/>
</radialGradient>
<radialGradient id="paint18_diamond_175_309" cx="0" cy="0" r="1" gradientUnits="userSpaceOnUse" gradientTransform="translate(245.128 226.195) rotate(-180) scale(27.614 182.354)">
<stop stop-color="#22FF71"/>
<stop offset="1" stop-color="#07CC4D"/>
</radialGradient>
<radialGradient id="paint19_diamond_175_309" cx="0" cy="0" r="1" gradientUnits="userSpaceOnUse" gradientTransform="translate(269.395 218.715) rotate(-180) scale(7.41426 61.1219)">
<stop stop-color="#22FF71"/>
<stop offset="1" stop-color="#07CC4D"/>
</radialGradient>
<radialGradient id="paint20_diamond_175_309" cx="0" cy="0" r="1" gradientUnits="userSpaceOnUse" gradientTransform="translate(205.297 124.47) rotate(-180) scale(8.44684 214.08)">
<stop stop-color="#22FF71"/>
<stop offset="1" stop-color="#07CC4D"/>
</radialGradient>
<radialGradient id="paint21_diamond_175_309" cx="0" cy="0" r="1" gradientUnits="userSpaceOnUse" gradientTransform="translate(204.318 131.705) rotate(-180) scale(9.97263 178.841)">
<stop stop-color="#22FF71"/>
<stop offset="1" stop-color="#07CC4D"/>
</radialGradient>
<radialGradient id="paint22_diamond_175_309" cx="0" cy="0" r="1" gradientUnits="userSpaceOnUse" gradientTransform="translate(240.615 139.76) rotate(-180) scale(26.3401 360.776)">
<stop stop-color="#22FF71"/>
<stop offset="1" stop-color="#07CC4D"/>
</radialGradient>
<radialGradient id="paint23_diamond_175_309" cx="0" cy="0" r="1" gradientUnits="userSpaceOnUse" gradientTransform="translate(263.595 147.835) rotate(-180) scale(7.14214 107.913)">
<stop stop-color="#22FF71"/>
<stop offset="1" stop-color="#07CC4D"/>
</radialGradient>
<radialGradient id="paint24_diamond_175_309" cx="0" cy="0" r="1" gradientUnits="userSpaceOnUse" gradientTransform="translate(132.649 82.7268) rotate(-180) scale(10.3286 183.115)">
<stop stop-color="#22FF71"/>
<stop offset="1" stop-color="#07CC4D"/>
</radialGradient>
<radialGradient id="paint25_diamond_175_309" cx="0" cy="0" r="1" gradientUnits="userSpaceOnUse" gradientTransform="translate(132.649 233.688) rotate(-180) scale(10.3286 183.115)">
<stop stop-color="#22FF71"/>
<stop offset="1" stop-color="#07CC4D"/>
</radialGradient>
<radialGradient id="paint26_diamond_175_309" cx="0" cy="0" r="1" gradientUnits="userSpaceOnUse" gradientTransform="translate(77.4931 173.842) rotate(-180) scale(13.9279 391.756)">
<stop stop-color="#22FF71"/>
<stop offset="1" stop-color="#07CC4D"/>
</radialGradient>
</defs>
</svg>
