<svg width="688" height="617" viewBox="0 0 688 617" fill="none" xmlns="http://www.w3.org/2000/svg">
<g style="mix-blend-mode:screen">
<path d="M644 311.5C644 480.223 507.223 617 338.5 617C169.777 617 33 480.223 33 311.5C33 142.777 169.777 6 338.5 6C507.223 6 644 142.777 644 311.5Z" fill="#0C310A"/>
</g>
<path opacity="0.47" d="M624.608 412H53.2176C53.2176 412 45.2505 323.907 125.733 329.647C125.733 329.647 104.694 241.876 175.062 259.848C175.062 259.848 187.37 219.074 218.571 244.344C218.571 244.344 300.15 94.9282 382.207 191.498C392.273 203.355 408.541 247.294 388.266 266.018C388.266 266.018 462.975 220.362 491.218 312.479C519.508 404.65 551.425 335.334 591.308 363.876C631.096 392.418 624.608 412 624.608 412Z" fill="url(#paint0_linear_175_308)"/>
<path d="M522.305 457.307C522.305 457.307 540.37 415.784 562.132 410.629C565.593 409.825 568.912 412.568 568.675 416.068C568.201 423.635 561.706 438.91 528.801 464.401L522.305 457.307Z" fill="url(#paint1_diamond_175_308)"/>
<path d="M524.818 460.144C525.102 459.766 564.313 413.893 564.313 413.893C555.921 425.668 525.861 460.381 525.529 460.759L524.818 460.144Z" fill="white"/>
<path d="M515.952 452.624C515.952 452.624 520.361 400.603 542.171 386.935C545.632 384.76 550.279 386.557 551.322 390.482C553.598 398.948 552.175 418.006 525.624 457.968L515.952 452.624Z" fill="url(#paint2_diamond_175_308)"/>
<path d="M519.745 454.799C519.934 454.278 545.774 389.725 545.774 389.725C540.986 405.662 520.93 454.704 520.74 455.177L519.745 454.799Z" fill="white"/>
<path d="M599.067 469.365C599.067 469.365 586.265 433.849 554.783 447.8C554.783 447.8 541.46 453.853 526.904 438.767C526.904 438.767 499.878 404.055 473.849 415.594C473.849 415.594 461.142 420.465 454.504 444.016C454.504 444.016 421.172 442.881 417 469.46L599.067 469.365Z" fill="url(#paint3_diamond_175_308)"/>
<path d="M363.501 265.392L333.632 269.255C329.603 269.255 326.272 265.983 326.272 261.905V224.728C326.272 220.704 329.549 217.378 333.632 217.378L363.501 213.516C367.53 213.516 370.861 216.788 370.861 220.865V258.043C370.861 262.12 367.53 265.392 363.501 265.392Z" fill="url(#paint4_diamond_175_308)"/>
<path d="M345.397 255.843C345.075 255.789 344.752 255.735 344.376 255.628C338.037 253.804 334.652 245.972 336.855 238.139C339.058 230.307 346.095 225.371 352.434 227.195C352.757 227.302 353.079 227.41 353.401 227.517L354.207 224.674C353.885 224.566 353.563 224.405 353.24 224.298C345.612 222.152 337.177 228.053 334.491 237.442C331.805 246.884 335.834 256.325 343.517 258.471C343.839 258.579 344.108 258.579 344.484 258.632L345.397 255.843Z" fill="white"/>
<path d="M353.509 224.352L352.703 227.249C358.666 229.609 361.728 237.066 359.633 244.523C357.538 251.98 350.93 256.808 344.645 255.681L343.839 258.578C351.467 260.081 359.526 254.233 362.104 245.22C364.576 236.154 360.761 227.088 353.509 224.352Z" fill="url(#paint5_linear_175_308)"/>
<path d="M97.4154 307.666C93.44 307.666 90.1629 310.939 90.1629 314.908H88.5513C88.5513 310.027 92.5267 306.057 97.4154 306.057C102.304 306.057 106.28 310.027 106.28 314.908H104.668C104.668 310.939 101.391 307.666 97.4154 307.666Z" fill="url(#paint6_diamond_175_308)"/>
<path d="M222.319 396.559L224.039 397.042C226.026 394.789 229.142 393.716 232.258 394.574C236.556 395.754 239.081 400.207 237.899 404.445C236.717 408.737 232.258 411.258 228.014 410.078C225.167 409.274 223.072 407.02 222.373 404.338L220.6 403.855C221.191 407.449 223.824 410.561 227.584 411.634C232.742 413.029 238.06 410.025 239.457 404.874C240.854 399.724 237.845 394.413 232.688 393.018C228.659 391.945 224.63 393.501 222.319 396.559Z" fill="url(#paint7_diamond_175_308)"/>
<path d="M379.887 369.143C378.705 368.177 378.06 366.783 378.114 365.28V364.261C378.114 363.188 377.63 362.223 376.824 361.579C375.965 360.935 374.89 360.774 373.87 361.096C372.365 361.579 370.7 361.31 369.411 360.345C368.121 359.379 367.423 357.877 367.477 356.268L367.53 355.248C367.584 354.229 367.154 353.317 366.402 352.673C365.65 352.03 364.629 351.761 363.662 351.976L363.34 350.42C364.791 350.098 366.295 350.527 367.477 351.493C368.605 352.459 369.25 353.907 369.196 355.356L369.142 356.375C369.088 357.448 369.572 358.467 370.431 359.111C371.291 359.755 372.365 359.969 373.386 359.594C374.89 359.111 376.502 359.379 377.791 360.291C379.081 361.257 379.779 362.705 379.779 364.261V365.28C379.779 366.3 380.209 367.265 381.068 367.909C381.874 368.553 382.949 368.714 383.969 368.446L384.345 368.338C385.85 367.909 387.408 368.177 388.643 369.089C389.879 370.001 390.577 371.45 390.577 373.006H388.966C388.966 371.986 388.482 371.021 387.676 370.377C386.87 369.733 385.796 369.572 384.829 369.84L384.453 369.948C382.949 370.377 381.391 370.109 380.155 369.143C379.994 369.197 379.94 369.143 379.887 369.143Z" fill="url(#paint8_diamond_175_308)"/>
<path d="M554.86 174.084C550.884 174.084 547.607 170.812 547.607 166.842H545.995C545.995 171.724 549.971 175.694 554.86 175.694C559.748 175.694 563.724 171.724 563.724 166.842H562.112C562.112 170.812 558.835 174.084 554.86 174.084Z" fill="url(#paint9_diamond_175_308)"/>
<path d="M531.92 390.014H508.014L520.37 371.076L531.92 390.014ZM511.828 387.921H528.213L520.263 374.992L511.828 387.921Z" fill="url(#paint10_diamond_175_308)"/>
<path d="M595.473 336.515C594.023 336.997 592.519 336.783 591.229 335.924L590.37 335.334C589.51 334.744 588.382 334.637 587.415 335.013C586.448 335.388 585.696 336.193 585.427 337.212C585.051 338.768 583.923 340.002 582.419 340.538C580.915 341.075 579.249 340.86 577.96 339.948L577.1 339.358C576.295 338.768 575.274 338.607 574.307 338.929C573.34 339.197 572.588 339.894 572.212 340.86L570.708 340.27C571.245 338.875 572.373 337.856 573.823 337.373C575.274 336.944 576.778 337.158 578.014 338.07L578.873 338.661C579.733 339.304 580.861 339.412 581.828 339.036C582.849 338.661 583.601 337.856 583.869 336.837C584.246 335.281 585.374 334.1 586.824 333.51C588.328 332.92 589.94 333.135 591.229 333.993L592.089 334.583C592.949 335.173 594.023 335.281 594.99 334.905C595.957 334.53 596.709 333.779 596.978 332.759L597.085 332.384C597.515 330.882 598.589 329.755 600.04 329.165C601.49 328.629 603.048 328.789 604.391 329.648L603.532 330.989C602.672 330.399 601.598 330.292 600.631 330.667C599.664 331.043 598.912 331.794 598.643 332.813L598.536 333.189C598.106 334.691 597.031 335.871 595.527 336.407C595.581 336.515 595.527 336.515 595.473 336.515Z" fill="url(#paint11_diamond_175_308)"/>
<path d="M595.473 336.515C594.023 336.997 592.519 336.783 591.229 335.924L590.37 335.334C589.51 334.744 588.382 334.637 587.415 335.013C586.448 335.388 585.696 336.193 585.427 337.212C585.051 338.768 583.923 340.002 582.419 340.538C580.915 341.075 579.249 340.86 577.96 339.948L577.1 339.358C576.295 338.768 575.274 338.607 574.307 338.929C573.34 339.197 572.588 339.894 572.212 340.86L570.708 340.27C571.245 338.875 572.373 337.856 573.823 337.373C575.274 336.944 576.778 337.158 578.014 338.07L578.873 338.661C579.733 339.304 580.861 339.412 581.828 339.036C582.849 338.661 583.601 337.856 583.869 336.837C584.246 335.281 585.374 334.1 586.824 333.51C588.328 332.92 589.94 333.135 591.229 333.993L592.089 334.583C592.949 335.173 594.023 335.281 594.99 334.905C595.957 334.53 596.709 333.779 596.978 332.759L597.085 332.384C597.515 330.882 598.589 329.755 600.04 329.165C601.49 328.629 603.048 328.789 604.391 329.648L603.532 330.989C602.672 330.399 601.598 330.292 600.631 330.667C599.664 331.043 598.912 331.794 598.643 332.813L598.536 333.189C598.106 334.691 597.031 335.871 595.527 336.407C595.581 336.515 595.527 336.515 595.473 336.515Z" fill="url(#paint12_diamond_175_308)"/>
<path d="M191.073 499.036C191.073 499.036 172.581 457.702 183.392 438.218C185.099 435.097 189.366 434.529 191.831 437.083C197.094 442.569 204.016 457.608 200.65 499.036H191.073Z" fill="url(#paint13_diamond_175_308)"/>
<path d="M194.913 499.085C194.866 498.612 187.327 438.787 187.327 438.787C190.362 452.88 195.767 498.47 195.814 498.943L194.913 499.085Z" fill="white"/>
<path d="M179.93 506.886C179.93 506.886 134.224 464.938 137.306 434.529C137.78 429.705 142.806 426.679 147.31 428.57C156.887 432.59 173.766 447.818 192.021 501.684L179.93 506.886Z" fill="url(#paint14_diamond_175_308)"/>
<path d="M184.767 504.9C184.435 504.333 142.569 433.205 142.569 433.205C154.043 449.284 185.525 503.718 185.905 504.238L184.767 504.9Z" fill="white"/>
<path d="M120 523.013C120 523.013 135.646 479.504 174.336 496.576C174.336 496.576 190.693 504.001 208.568 485.463C208.568 485.463 241.663 442.805 273.666 456.898C273.666 456.898 289.313 462.857 297.468 491.8C297.468 491.8 338.386 490.334 343.601 522.965L120 523.013Z" fill="url(#paint15_diamond_175_308)"/>
<path d="M210.417 522.919C210.417 522.919 226.064 485.085 251.335 500.644C251.335 500.644 261.766 512.514 273.667 502.11C273.667 502.11 295.24 473.167 319.8 483.571C344.36 493.976 353.274 522.919 353.274 522.919H210.417Z" fill="url(#paint16_diamond_175_308)"/>
<defs>
<linearGradient id="paint0_linear_175_308" x1="52.9546" y1="285.486" x2="624.955" y2="285.486" gradientUnits="userSpaceOnUse">
<stop stop-color="#E30613"/>
<stop offset="0.11" stop-color="#E30B13"/>
<stop offset="0.25" stop-color="#E41C15"/>
<stop offset="0.42" stop-color="#E73718"/>
<stop offset="0.53" stop-color="#E94E1B"/>
<stop offset="0.82" stop-color="#EF7A09"/>
<stop offset="1" stop-color="#F39200"/>
</linearGradient>
<radialGradient id="paint1_diamond_175_308" cx="0" cy="0" r="1" gradientUnits="userSpaceOnUse" gradientTransform="translate(562.254 452.508) rotate(-180) scale(18.5666 766.284)">
<stop stop-color="#22FF71"/>
<stop offset="1" stop-color="#07CC4D"/>
</radialGradient>
<radialGradient id="paint2_diamond_175_308" cx="0" cy="0" r="1" gradientUnits="userSpaceOnUse" gradientTransform="translate(547.063 442.093) rotate(-180) scale(14.4591 1022.93)">
<stop stop-color="#22FF71"/>
<stop offset="1" stop-color="#07CC4D"/>
</radialGradient>
<radialGradient id="paint3_diamond_175_308" cx="0" cy="0" r="1" gradientUnits="userSpaceOnUse" gradientTransform="translate(573.815 457.059) rotate(-180) scale(72.8807 799.022)">
<stop stop-color="#22FF71"/>
<stop offset="1" stop-color="#07CC4D"/>
</radialGradient>
<radialGradient id="paint4_diamond_175_308" cx="0" cy="0" r="1" gradientUnits="userSpaceOnUse" gradientTransform="translate(364.677 256.96) rotate(-180) scale(17.849 792.254)">
<stop stop-color="#22FF71"/>
<stop offset="1" stop-color="#07CC4D"/>
</radialGradient>
<linearGradient id="paint5_linear_175_308" x1="362.822" y1="241.547" x2="343.763" y2="241.547" gradientUnits="userSpaceOnUse">
<stop stop-color="#FA655C"/>
<stop offset="1" stop-color="#FFBF8A"/>
</linearGradient>
<radialGradient id="paint6_diamond_175_308" cx="0" cy="0" r="1" gradientUnits="userSpaceOnUse" gradientTransform="translate(103.821 312.956) rotate(-180) scale(7.09658 125.815)">
<stop stop-color="#22FF71"/>
<stop offset="1" stop-color="#07CC4D"/>
</radialGradient>
<radialGradient id="paint7_diamond_175_308" cx="0" cy="0" r="1" gradientUnits="userSpaceOnUse" gradientTransform="translate(237.136 407.719) rotate(-180) scale(7.68498 274.258)">
<stop stop-color="#22FF71"/>
<stop offset="1" stop-color="#07CC4D"/>
</radialGradient>
<radialGradient id="paint8_diamond_175_308" cx="0" cy="0" r="1" gradientUnits="userSpaceOnUse" gradientTransform="translate(386.8 368) rotate(-180) scale(10.9029 322.521)">
<stop stop-color="#22FF71"/>
<stop offset="1" stop-color="#07CC4D"/>
</radialGradient>
<radialGradient id="paint9_diamond_175_308" cx="0" cy="0" r="1" gradientUnits="userSpaceOnUse" gradientTransform="translate(561.265 173.741) rotate(-180) scale(7.09658 125.815)">
<stop stop-color="#22FF71"/>
<stop offset="1" stop-color="#07CC4D"/>
</radialGradient>
<radialGradient id="paint10_diamond_175_308" cx="0" cy="0" r="1" gradientUnits="userSpaceOnUse" gradientTransform="translate(528.605 385.836) rotate(-180) scale(9.56962 269.168)">
<stop stop-color="#22FF71"/>
<stop offset="1" stop-color="#07CC4D"/>
</radialGradient>
<radialGradient id="paint11_diamond_175_308" cx="0" cy="0" r="1" gradientUnits="userSpaceOnUse" gradientTransform="translate(599.72 338.212) rotate(-180) scale(13.4835 170.628)">
<stop stop-color="#22FF71"/>
<stop offset="1" stop-color="#07CC4D"/>
</radialGradient>
<radialGradient id="paint12_diamond_175_308" cx="0" cy="0" r="1" gradientUnits="userSpaceOnUse" gradientTransform="translate(599.72 338.212) rotate(-180) scale(13.4835 170.628)">
<stop stop-color="#22FF71"/>
<stop offset="1" stop-color="#07CC4D"/>
</radialGradient>
<radialGradient id="paint13_diamond_175_308" cx="0" cy="0" r="1" gradientUnits="userSpaceOnUse" gradientTransform="translate(198.551 485.015) rotate(-180) scale(8.62131 903.428)">
<stop stop-color="#22FF71"/>
<stop offset="1" stop-color="#07CC4D"/>
</radialGradient>
<radialGradient id="paint14_diamond_175_308" cx="0" cy="0" r="1" gradientUnits="userSpaceOnUse" gradientTransform="translate(184.411 489.485) rotate(-180) scale(21.9619 1121.25)">
<stop stop-color="#22FF71"/>
<stop offset="1" stop-color="#07CC4D"/>
</radialGradient>
<radialGradient id="paint15_diamond_175_308" cx="0" cy="0" r="1" gradientUnits="userSpaceOnUse" gradientTransform="translate(312.588 507.799) rotate(-180) scale(89.5067 980.306)">
<stop stop-color="#22FF71"/>
<stop offset="1" stop-color="#07CC4D"/>
</radialGradient>
<radialGradient id="paint16_diamond_175_308" cx="0" cy="0" r="1" gradientUnits="userSpaceOnUse" gradientTransform="translate(333.46 513.741) rotate(-180) scale(57.1848 591.341)">
<stop stop-color="#22FF71"/>
<stop offset="1" stop-color="#84FFB0"/>
</radialGradient>
</defs>
</svg>
