<svg width="687" height="687" viewBox="0 0 687 687" fill="none" xmlns="http://www.w3.org/2000/svg">
<path d="M687 343.5C687 533.21 533.21 687 343.5 687C153.79 687 0 533.21 0 343.5C0 153.79 153.79 0 343.5 0C533.21 0 687 153.79 687 343.5Z" fill="#044200"/>
<g opacity="0.47">
<path d="M642.592 512H47.0765C47.0765 512 41.5077 445.903 125.388 451.526C125.388 451.526 127.576 353.866 200.865 371.637C200.865 371.637 213.693 331.321 246.211 356.306C246.211 356.306 320.297 199.551 419.242 286.018C429.585 295.089 454.545 335.883 437.639 376.199C437.639 376.199 490.344 353.388 503.521 413.65C524.056 507.491 566.269 436.248 607.836 464.47C649.354 492.638 642.592 512 642.592 512Z" fill="#FF0000"/>
</g>
<path d="M273.318 188.496C273.318 188.496 297.028 192.532 299.793 220.463C300.431 227.101 300.697 235.225 300.005 247.173L275.497 220.782L273.318 188.496Z" fill="url(#paint0_linear_154_354)"/>
<path d="M277.677 208.991L256.571 214.886L216.646 73.0527C216.646 73.0527 253.328 80.8586 266.034 133.694C270.446 152.226 273.211 164.971 277.677 208.991Z" fill="url(#paint1_linear_154_354)"/>
<path d="M228.821 200.975C228.821 200.975 210.692 216.799 222.866 242.022C225.79 248.022 229.778 255.085 236.636 264.961L243.759 229.649L228.821 200.975Z" fill="url(#paint2_linear_154_354)"/>
<path d="M278.208 226.092L277.411 208.834L256.305 214.781L261.409 232.836L278.208 226.092Z" fill="url(#paint3_linear_154_354)"/>
<path d="M235.784 220.727L256.89 214.833L216.965 73C216.965 73 189.692 98.754 206.439 150.474C212.34 168.529 216.646 180.848 235.784 220.727Z" fill="url(#paint4_linear_154_354)"/>
<path d="M244.237 235.596L235.943 220.463L256.996 214.568L262.1 232.623L244.237 235.596Z" fill="url(#paint5_linear_154_354)"/>
<path d="M234.562 153.448C244.192 153.448 251.999 145.65 251.999 136.03C251.999 126.411 244.192 118.613 234.562 118.613C224.931 118.613 217.125 126.411 217.125 136.03C217.125 145.65 224.931 153.448 234.562 153.448Z" fill="url(#paint6_linear_154_354)"/>
<path d="M234.562 147.344C240.815 147.344 245.885 142.28 245.885 136.033C245.885 129.787 240.815 124.723 234.562 124.723C228.308 124.723 223.238 129.787 223.238 136.033C223.238 142.28 228.308 147.344 234.562 147.344Z" fill="url(#paint7_linear_154_354)"/>
<path d="M268.48 255.827C267.417 256.092 266.353 255.508 266.088 254.499L249.554 195.823C249.288 194.761 249.873 193.699 250.883 193.433C251.946 193.168 253.01 193.752 253.275 194.761L269.809 253.384C270.128 254.446 269.49 255.508 268.48 255.827Z" fill="url(#paint8_linear_154_354)"/>
<path d="M252.242 275.908L250.697 276.307L265.025 331.729L266.569 331.331L252.242 275.908Z" fill="#515151"/>
<path d="M285.042 286.416L283.498 286.814L297.825 342.237L299.369 341.839L285.042 286.416Z" fill="#515151"/>
<path d="M285.361 246.438L283.817 246.836L298.144 302.259L299.689 301.86L285.361 246.438Z" fill="#515151"/>
<path d="M271.049 283.191L269.507 283.598L277.884 315.331L279.427 314.925L271.049 283.191Z" fill="#515151"/>
<path d="M510.074 555.065C510.074 555.065 530.329 508.442 554.731 502.654C558.612 501.752 562.333 504.832 562.068 508.761C561.536 517.257 554.253 534.409 517.358 563.03L510.074 555.065Z" fill="url(#paint9_diamond_154_354)"/>
<path d="M512.892 558.251C513.211 557.826 557.177 506.318 557.177 506.318C547.767 519.541 514.062 558.517 513.689 558.942L512.892 558.251Z" fill="white"/>
<path d="M502.951 549.808C502.951 549.808 507.895 491.397 532.35 476.05C536.23 473.608 541.44 475.626 542.61 480.033C545.162 489.538 543.567 510.938 513.796 555.808L502.951 549.808Z" fill="url(#paint10_diamond_154_354)"/>
<path d="M507.204 552.249C507.417 551.665 536.39 479.182 536.39 479.182C531.021 497.077 508.533 552.142 508.32 552.674L507.204 552.249Z" fill="white"/>
<path d="M596.145 568.604C596.145 568.604 581.791 528.725 546.491 544.39C546.491 544.39 531.552 551.187 515.231 534.248C515.231 534.248 484.928 495.272 455.742 508.228C455.742 508.228 441.494 513.698 434.052 540.142C434.052 540.142 396.678 538.867 392 568.71L596.145 568.604Z" fill="url(#paint11_diamond_154_354)"/>
<path d="M197.691 569.761C197.691 569.761 176.957 523.35 189.078 501.473C190.992 497.968 195.777 497.331 198.541 500.198C204.442 506.358 212.204 523.244 208.43 569.761H197.691Z" fill="url(#paint12_diamond_154_354)"/>
<path d="M201.997 569.815C201.944 569.284 193.491 502.111 193.491 502.111C196.894 517.935 202.954 569.125 203.008 569.656L201.997 569.815Z" fill="white"/>
<path d="M185.197 578.576C185.197 578.576 133.949 531.475 137.404 497.331C137.936 491.915 143.571 488.516 148.621 490.64C159.36 495.154 178.286 512.252 198.754 572.734L185.197 578.576Z" fill="url(#paint13_diamond_154_354)"/>
<path d="M190.62 576.347C190.248 575.71 143.305 495.846 143.305 495.846C156.171 513.9 191.471 575.019 191.896 575.604L190.62 576.347Z" fill="white"/>
<path d="M118 596.684C118 596.684 135.544 547.831 178.924 567C178.924 567 197.266 575.337 217.308 554.521C217.308 554.521 254.415 506.624 290.3 522.448C290.3 522.448 307.844 529.139 316.988 561.637C316.988 561.637 362.867 559.991 368.715 596.63L118 596.684Z" fill="url(#paint14_diamond_154_354)"/>
<path d="M219.381 596.578C219.381 596.578 236.925 554.097 265.261 571.567C265.261 571.567 276.957 584.895 290.301 573.213C290.301 573.213 314.49 540.715 342.028 552.397C369.566 564.08 379.561 596.578 379.561 596.578H219.381Z" fill="url(#paint15_diamond_154_354)"/>
<path d="M182.109 428.454C178.175 428.454 174.932 431.694 174.932 435.623H173.337C173.337 430.791 177.271 426.861 182.109 426.861C186.947 426.861 190.881 430.791 190.881 435.623H189.286C189.286 431.694 186.043 428.454 182.109 428.454Z" fill="url(#paint16_diamond_154_354)"/>
<path d="M94.6565 319.971L96.3577 320.449C98.3248 318.218 101.408 317.156 104.492 318.006C108.745 319.174 111.243 323.582 110.074 327.777C108.904 332.025 104.492 334.52 100.292 333.352C97.4742 332.556 95.4008 330.326 94.7097 327.67L92.9553 327.193C93.5401 330.75 96.1451 333.83 99.8665 334.892C104.97 336.273 110.233 333.299 111.615 328.201C112.998 323.104 110.021 317.847 104.917 316.466C100.93 315.404 96.9425 316.944 94.6565 319.971Z" fill="url(#paint17_diamond_154_354)"/>
<path d="M161.483 191.252C160.313 190.296 159.675 188.916 159.728 187.429V186.42C159.728 185.358 159.25 184.402 158.452 183.765C157.602 183.128 156.539 182.968 155.529 183.287C154.04 183.765 152.392 183.499 151.116 182.544C149.84 181.588 149.149 180.101 149.202 178.508L149.255 177.499C149.308 176.49 148.883 175.587 148.139 174.95C147.395 174.313 146.385 174.047 145.428 174.26L145.109 172.72C146.544 172.401 148.033 172.826 149.202 173.782C150.319 174.738 150.957 176.171 150.903 177.605L150.85 178.614C150.797 179.676 151.276 180.685 152.126 181.322C152.977 181.959 154.04 182.172 155.05 181.8C156.539 181.322 158.134 181.588 159.409 182.49C160.685 183.446 161.376 184.88 161.376 186.42V187.429C161.376 188.438 161.802 189.394 162.652 190.031C163.45 190.668 164.513 190.827 165.523 190.562L165.895 190.456C167.384 190.031 168.926 190.296 170.148 191.199C171.371 192.102 172.062 193.535 172.062 195.075H170.467C170.467 194.066 169.989 193.111 169.191 192.473C168.394 191.836 167.331 191.677 166.374 191.942L166.002 192.049C164.513 192.473 162.971 192.208 161.749 191.252C161.589 191.305 161.536 191.252 161.483 191.252Z" fill="url(#paint18_diamond_154_354)"/>
<path d="M549.995 180.473C546.061 180.473 542.819 177.234 542.819 173.305H541.224C541.224 178.137 545.158 182.066 549.995 182.066C554.833 182.066 558.767 178.137 558.767 173.305H557.172C557.172 177.234 553.93 180.473 549.995 180.473Z" fill="url(#paint19_diamond_154_354)"/>
<path d="M558.395 454.741H534.738L546.965 435.996L558.395 454.741ZM538.512 452.67H554.727L546.912 439.819L538.512 452.67Z" fill="url(#paint20_diamond_154_354)"/>
<path d="M610.972 312.057C609.59 312.641 608.049 312.535 606.773 311.845L605.869 311.367C604.965 310.836 603.849 310.836 602.945 311.261C601.988 311.739 601.35 312.588 601.191 313.597C600.925 315.137 599.915 316.465 598.479 317.102C597.044 317.739 595.396 317.686 594.014 316.889L593.11 316.358C592.259 315.88 591.249 315.774 590.292 316.146C589.335 316.518 588.697 317.261 588.378 318.217L586.837 317.739C587.262 316.305 588.272 315.19 589.707 314.659C591.09 314.128 592.631 314.234 593.907 314.978L594.811 315.509C595.715 316.04 596.831 316.093 597.788 315.668C598.745 315.243 599.436 314.341 599.596 313.332C599.862 311.792 600.818 310.517 602.254 309.827C603.689 309.137 605.284 309.19 606.666 309.986L607.57 310.464C608.474 310.942 609.537 310.995 610.494 310.57C611.451 310.146 612.089 309.296 612.302 308.287L612.355 307.915C612.674 306.428 613.631 305.154 615.013 304.517C616.395 303.88 617.99 303.933 619.319 304.623L618.575 306.004C617.671 305.526 616.608 305.473 615.704 305.897C614.8 306.322 614.109 307.172 613.896 308.181L613.843 308.553C613.524 310.092 612.567 311.314 611.132 311.951C611.079 312.004 611.026 312.057 610.972 312.057Z" fill="url(#paint21_diamond_154_354)"/>
<path d="M200.715 327.298C200.715 327.298 211.879 325.173 214.538 311.367C214.538 311.367 217.461 324.908 228.626 327.032C228.626 327.032 216.398 331.811 214.803 342.962C214.803 342.962 212.145 329.687 200.715 327.298Z" fill="url(#paint22_linear_154_354)"/>
<path d="M180.514 313.333C180.514 313.333 189.339 311.634 191.465 300.748C191.465 300.748 193.751 311.474 202.576 313.121C202.576 313.121 192.901 316.891 191.625 325.706C191.625 325.706 189.552 315.192 180.514 313.333Z" fill="url(#paint23_linear_154_354)"/>
<path d="M182.215 341.74C182.215 341.74 189.711 340.306 191.518 331.014C191.518 331.014 193.485 340.147 200.981 341.528C200.981 341.528 192.741 344.767 191.678 352.254C191.678 352.254 189.87 343.333 182.215 341.74Z" fill="url(#paint24_linear_154_354)"/>
<path d="M334.686 195.077C334.686 195.077 345.85 192.953 348.508 179.146C348.508 179.146 351.432 192.687 362.596 194.811C362.596 194.811 350.369 199.59 348.774 210.742C348.774 210.742 346.116 197.466 334.686 195.077Z" fill="url(#paint25_diamond_154_354)"/>
<path d="M314.484 181.11C314.484 181.11 323.309 179.411 325.435 168.525C325.435 168.525 327.721 179.252 336.546 180.898C336.546 180.898 326.871 184.668 325.595 193.483C325.595 193.483 323.522 182.969 314.484 181.11Z" fill="url(#paint26_diamond_154_354)"/>
<path d="M316.185 209.517C316.185 209.517 323.681 208.084 325.488 198.791C325.488 198.791 327.455 207.924 334.951 209.305C334.951 209.305 326.711 212.544 325.648 220.031C325.648 220.031 323.84 211.11 316.185 209.517Z" fill="url(#paint27_diamond_154_354)"/>
<defs>
<linearGradient id="paint0_linear_154_354" x1="311.123" y1="247.23" x2="276.729" y2="200.835" gradientUnits="userSpaceOnUse">
<stop offset="0.2509" stop-color="#8990F9"/>
<stop offset="1" stop-color="#9DDEFF"/>
</linearGradient>
<linearGradient id="paint1_linear_154_354" x1="241.35" y1="101.898" x2="271.318" y2="258.636" gradientUnits="userSpaceOnUse">
<stop stop-color="#FA655C"/>
<stop offset="1" stop-color="#FFBF8A"/>
</linearGradient>
<linearGradient id="paint2_linear_154_354" x1="229.777" y1="265.817" x2="231.802" y2="211.389" gradientUnits="userSpaceOnUse">
<stop offset="0.2509" stop-color="#8990F9"/>
<stop offset="1" stop-color="#9DDEFF"/>
</linearGradient>
<linearGradient id="paint3_linear_154_354" x1="269.234" y1="272.999" x2="266.387" y2="196.604" gradientUnits="userSpaceOnUse">
<stop stop-color="#2B233C"/>
<stop offset="1" stop-color="#635C70"/>
</linearGradient>
<linearGradient id="paint4_linear_154_354" x1="196.034" y1="84.8464" x2="238.867" y2="172.497" gradientUnits="userSpaceOnUse">
<stop stop-color="#DD4B47"/>
<stop offset="1" stop-color="#FFBF8A"/>
</linearGradient>
<linearGradient id="paint5_linear_154_354" x1="259.297" y1="234.225" x2="236.157" y2="209.693" gradientUnits="userSpaceOnUse">
<stop stop-color="#2B233C"/>
<stop offset="1" stop-color="#635C70"/>
</linearGradient>
<linearGradient id="paint6_linear_154_354" x1="217.819" y1="140.702" x2="251.339" y2="131.273" gradientUnits="userSpaceOnUse">
<stop stop-color="#2B233C"/>
<stop offset="1" stop-color="#635C70"/>
</linearGradient>
<linearGradient id="paint7_linear_154_354" x1="223.657" y1="139.066" x2="245.502" y2="132.921" gradientUnits="userSpaceOnUse">
<stop offset="0.2509" stop-color="#8990F9"/>
<stop offset="1" stop-color="#9DDEFF"/>
</linearGradient>
<linearGradient id="paint8_linear_154_354" x1="258.504" y1="256.626" x2="260.476" y2="203.641" gradientUnits="userSpaceOnUse">
<stop offset="0.2509" stop-color="#8990F9"/>
<stop offset="1" stop-color="#9DDEFF"/>
</linearGradient>
<radialGradient id="paint9_diamond_154_354" cx="0" cy="0" r="1" gradientUnits="userSpaceOnUse" gradientTransform="translate(554.868 549.677) rotate(-180) scale(20.818 860.407)">
<stop stop-color="#22FF71"/>
<stop offset="1" stop-color="#07CC4D"/>
</radialGradient>
<radialGradient id="paint10_diamond_154_354" cx="0" cy="0" r="1" gradientUnits="userSpaceOnUse" gradientTransform="translate(537.834 537.983) rotate(-180) scale(16.2124 1148.57)">
<stop stop-color="#22FF71"/>
<stop offset="1" stop-color="#07CC4D"/>
</radialGradient>
<radialGradient id="paint11_diamond_154_354" cx="0" cy="0" r="1" gradientUnits="userSpaceOnUse" gradientTransform="translate(567.831 554.787) rotate(-180) scale(81.7184 897.166)">
<stop stop-color="#22FF71"/>
<stop offset="1" stop-color="#07CC4D"/>
</radialGradient>
<radialGradient id="paint12_diamond_154_354" cx="0" cy="0" r="1" gradientUnits="userSpaceOnUse" gradientTransform="translate(206.076 554.018) rotate(-180) scale(9.66675 1014.4)">
<stop stop-color="#22FF71"/>
<stop offset="1" stop-color="#07CC4D"/>
</radialGradient>
<radialGradient id="paint13_diamond_154_354" cx="0" cy="0" r="1" gradientUnits="userSpaceOnUse" gradientTransform="translate(190.222 559.037) rotate(-180) scale(24.625 1258.97)">
<stop stop-color="#22FF71"/>
<stop offset="1" stop-color="#07CC4D"/>
</radialGradient>
<radialGradient id="paint14_diamond_154_354" cx="0" cy="0" r="1" gradientUnits="userSpaceOnUse" gradientTransform="translate(333.942 579.601) rotate(-180) scale(100.36 1100.72)">
<stop stop-color="#22FF71"/>
<stop offset="1" stop-color="#07CC4D"/>
</radialGradient>
<radialGradient id="paint15_diamond_154_354" cx="0" cy="0" r="1" gradientUnits="userSpaceOnUse" gradientTransform="translate(357.344 586.273) rotate(-180) scale(64.1191 663.976)">
<stop stop-color="#22FF71"/>
<stop offset="1" stop-color="#84FFB0"/>
</radialGradient>
<radialGradient id="paint16_diamond_154_354" cx="0" cy="0" r="1" gradientUnits="userSpaceOnUse" gradientTransform="translate(188.448 433.69) rotate(-180) scale(7.02267 124.535)">
<stop stop-color="#22FF71"/>
<stop offset="1" stop-color="#07CC4D"/>
</radialGradient>
<radialGradient id="paint17_diamond_154_354" cx="0" cy="0" r="1" gradientUnits="userSpaceOnUse" gradientTransform="translate(109.319 331.017) rotate(-180) scale(7.60494 271.466)">
<stop stop-color="#22FF71"/>
<stop offset="1" stop-color="#07CC4D"/>
</radialGradient>
<radialGradient id="paint18_diamond_154_354" cx="0" cy="0" r="1" gradientUnits="userSpaceOnUse" gradientTransform="translate(168.324 190.121) rotate(-180) scale(10.7894 319.239)">
<stop stop-color="#22FF71"/>
<stop offset="1" stop-color="#07CC4D"/>
</radialGradient>
<radialGradient id="paint19_diamond_154_354" cx="0" cy="0" r="1" gradientUnits="userSpaceOnUse" gradientTransform="translate(556.334 180.134) rotate(-180) scale(7.02267 124.535)">
<stop stop-color="#22FF71"/>
<stop offset="1" stop-color="#07CC4D"/>
</radialGradient>
<radialGradient id="paint20_diamond_154_354" cx="0" cy="0" r="1" gradientUnits="userSpaceOnUse" gradientTransform="translate(555.114 450.606) rotate(-180) scale(9.46997 266.428)">
<stop stop-color="#22FF71"/>
<stop offset="1" stop-color="#07CC4D"/>
</radialGradient>
<radialGradient id="paint21_diamond_154_354" cx="0" cy="0" r="1" gradientUnits="userSpaceOnUse" gradientTransform="translate(614.814 315.096) rotate(-180) scale(13.0026 201.073)">
<stop stop-color="#22FF71"/>
<stop offset="1" stop-color="#07CC4D"/>
</radialGradient>
<linearGradient id="paint22_linear_154_354" x1="200.715" y1="327.165" x2="228.626" y2="327.165" gradientUnits="userSpaceOnUse">
<stop stop-color="#FA655C"/>
<stop offset="1" stop-color="#FFBF8A"/>
</linearGradient>
<linearGradient id="paint23_linear_154_354" x1="180.514" y1="313.218" x2="202.576" y2="313.218" gradientUnits="userSpaceOnUse">
<stop stop-color="#FA655C"/>
<stop offset="1" stop-color="#FFBF8A"/>
</linearGradient>
<linearGradient id="paint24_linear_154_354" x1="182.202" y1="341.625" x2="200.981" y2="341.625" gradientUnits="userSpaceOnUse">
<stop stop-color="#FA655C"/>
<stop offset="1" stop-color="#FFBF8A"/>
</linearGradient>
<radialGradient id="paint25_diamond_154_354" cx="0" cy="0" r="1" gradientUnits="userSpaceOnUse" gradientTransform="translate(358.725 203.772) rotate(-180) scale(11.1724 449.079)">
<stop stop-color="#22FF71"/>
<stop offset="1" stop-color="#07CC4D"/>
</radialGradient>
<radialGradient id="paint26_diamond_154_354" cx="0" cy="0" r="1" gradientUnits="userSpaceOnUse" gradientTransform="translate(333.486 187.978) rotate(-180) scale(8.83154 354.735)">
<stop stop-color="#22FF71"/>
<stop offset="1" stop-color="#07CC4D"/>
</radialGradient>
<radialGradient id="paint27_diamond_154_354" cx="0" cy="0" r="1" gradientUnits="userSpaceOnUse" gradientTransform="translate(332.348 215.346) rotate(-180) scale(7.51213 301.902)">
<stop stop-color="#22FF71"/>
<stop offset="1" stop-color="#07CC4D"/>
</radialGradient>
</defs>
</svg>
