<svg width="100" height="100" viewBox="0 0 100 100" fill="none" xmlns="http://www.w3.org/2000/svg">
<path d="M37.536 76.6667H62.4587M50 2V7.33333M83.9413 16.0587L80.1707 19.8293M98 50H92.6667M7.33333 50H2M19.8293 19.8293L16.0587 16.0587M31.1413 68.8587C27.4126 65.129 24.8736 60.3774 23.8452 55.2048C22.8168 50.0322 23.3453 44.6707 25.3639 39.7985C27.3824 34.9262 30.8004 30.7618 35.1855 27.832C39.5707 24.9021 44.7261 23.3383 50 23.3383C55.2739 23.3383 60.4293 24.9021 64.8145 27.832C69.1996 30.7618 72.6176 34.9262 74.6361 39.7985C76.6547 44.6707 77.1832 50.0322 76.1548 55.2048C75.1264 60.3774 72.5874 65.129 68.8587 68.8587L65.936 71.776C64.2651 73.4472 62.9398 75.4312 62.0357 77.6146C61.1315 79.798 60.6664 82.1381 60.6667 84.5013V87.3333C60.6667 90.1623 59.5429 92.8754 57.5425 94.8758C55.5421 96.8762 52.829 98 50 98C47.171 98 44.4579 96.8762 42.4575 94.8758C40.4571 92.8754 39.3333 90.1623 39.3333 87.3333V84.5013C39.3333 79.728 37.4347 75.1467 34.064 71.776L31.1413 68.8587Z" stroke="url(#paint0_linear_439_966)" stroke-width="3" stroke-linecap="round" stroke-linejoin="round"/>
<defs>
<linearGradient id="paint0_linear_439_966" x1="1.99238" y1="49.9947" x2="97.9924" y2="49.9947" gradientUnits="userSpaceOnUse">
<stop stop-color="#E30613"/>
<stop offset="0.11" stop-color="#E30B13"/>
<stop offset="0.25" stop-color="#E41C15"/>
<stop offset="0.42" stop-color="#E73718"/>
<stop offset="0.53" stop-color="#E94E1B"/>
<stop offset="0.82" stop-color="#EF7A09"/>
<stop offset="1" stop-color="#F39200"/>
</linearGradient>
</defs>
</svg>
