<svg width="196" height="375" viewBox="0 0 196 375" fill="none" xmlns="http://www.w3.org/2000/svg">
<path d="M164.766 336.344L154.29 346.805L149.777 342.299L139.839 332.374L152.088 321.645L157.299 327.707L164.766 336.344Z" fill="#FFC0BF"/>
<path d="M172.072 339.99L163.315 334.465C163.315 334.465 160.844 344.282 152.302 344.819L145.265 372.876C144.889 374.432 146.823 375.398 147.843 374.164L172.77 344.121C173.791 342.834 173.522 340.849 172.072 339.99Z" fill="url(#paint0_linear_175_174)"/>
<path d="M161.65 238.814L160.2 253.513L155.794 253.084L139.946 251.582L142.471 235.541L149.294 236.668L161.65 238.814Z" fill="#FFC0BF"/>
<path d="M169.601 236.988L159.34 238.276C159.34 238.276 163.691 247.396 157.406 253.243L169.816 279.369C170.514 280.818 172.609 280.335 172.663 278.726L172.77 239.724C172.77 238.061 171.266 236.774 169.601 236.988Z" fill="url(#paint1_linear_175_174)"/>
<path d="M72.5786 103.033C68.066 107.056 64.1443 109.899 60.8672 111.884C52.5403 116.874 48.0276 116.444 48.0276 116.444C30.2993 119.502 9.83115 58.9883 9.83115 58.9883C5.37221 57.0034 0 49.8683 0 47.6151C0 45.3619 1.55794 45.7375 1.55794 45.7375C0.859551 42.3041 4.3515 42.3041 4.3515 42.3041C4.67383 39.0852 8.11205 39.1925 8.11205 39.1925C6.98388 32.4866 4.51266 25.5125 4.29777 23.9567C4.08288 22.401 7.35993 21.3817 8.32693 23.9567C9.72371 27.4438 12.7859 36.6175 13.914 38.6024C15.0422 40.5874 16.7076 41.2848 22.0261 39.2998C27.2909 37.3149 27.7206 40.1045 27.7206 40.1045C17.4597 45.0937 19.2325 49.761 20.3607 53.3554C23.9601 65.3187 42.9777 93.8589 43.7298 93.1079C47.2218 97.1314 53.6684 92.1422 58.1274 87.5822C60.9746 84.6853 63.0698 82.0029 63.0698 82.0029L72.5786 103.033Z" fill="#FFC0BF"/>
<path d="M72.5787 103.033C68.0661 107.056 64.1443 109.899 60.8673 111.884C60.1689 105.071 59.0407 95.3611 58.1274 87.6359C60.9747 84.739 63.0699 82.0566 63.0699 82.0566L72.5787 103.033Z" fill="#EFA3B2"/>
<path d="M78.3268 66.123L57.6975 87.0454L67.3675 110.06L86.4926 92.3565L78.3268 66.123Z" fill="#1ED760"/>
<path d="M155.794 253.084L139.946 251.582L142.525 235.541L149.294 236.721C151.443 242.14 154.183 249.06 155.794 253.084Z" fill="#EFA3B2"/>
<path d="M152.625 265.689C150.637 265.368 113.622 256.623 107.015 255.175C20.4145 236.237 25.5718 209.253 25.5718 209.253C23.4767 181.893 83.7529 124.49 83.7529 124.49L120.015 148.471C74.8888 184.414 65.2188 206.946 65.2188 206.946C63.0699 213.008 87.6209 221.913 106.961 226.473C109.002 226.956 110.99 227.385 112.87 227.815C122.97 230.014 148.757 234.789 148.757 234.789L152.625 265.689Z" fill="url(#paint2_linear_175_174)"/>
<path d="M157.299 327.707L149.777 342.299L139.839 332.374L152.088 321.645L157.299 327.707Z" fill="#EFA3B2"/>
<path d="M158.212 326.364L135.595 348.199C109.271 305.12 77.9509 241.494 72.2026 220.894C67.5288 204.049 73.8142 168.534 78.9716 143.481C81.4965 131.196 83.6454 122.666 83.6454 122.666L126.945 143.052L115.288 195.143L112.011 209.843C121.627 258.447 158.212 326.364 158.212 326.364Z" fill="url(#paint3_linear_175_174)"/>
<path d="M195.334 151.367C194.958 156.41 191.734 156.088 191.734 156.088C190.445 159.361 186.147 158.61 186.147 158.61C180.56 162.043 181.635 154.425 181.635 154.425C181.635 154.425 176.477 157.269 176.477 154.372C176.477 151.475 180.184 144.715 180.184 144.715C180.184 144.715 167.882 108.611 164.82 100.993C163.154 96.8619 157.03 91.6581 151.819 87.7955C147.414 84.5231 143.653 82.2162 143.653 82.2162L155.042 67.7852C157.567 68.9654 159.77 70.1993 161.704 71.3795C168.365 75.5103 171.374 79.1583 171.374 79.1583C186.899 103.89 190.015 140.96 190.015 140.96C190.015 140.96 195.656 146.325 195.334 151.367Z" fill="#FFC0BF"/>
<path d="M126.892 143.106L115.288 195.143C108.411 189.886 101.535 182.59 96.9146 172.611C91.5962 161.077 84.8809 151.099 78.9714 143.481C81.4964 131.196 83.6453 122.666 83.6453 122.666L126.892 143.106Z" fill="url(#paint4_linear_175_174)"/>
<path d="M105.725 38.6012L106.155 67.6242L90.8979 66.444L89.7697 54.1052L89.125 47.0774V47.0238C89.125 47.0238 70.0537 55.5 73.6531 29.4811L70.1611 27.8717C70.1611 27.8717 76.6615 18.5908 78.8641 14.4063L88.4804 7.05664L111.151 24.2774L105.725 38.6012Z" fill="#FFC0BF"/>
<path d="M161.596 71.3795L151.711 87.7955C147.306 84.5231 143.546 82.2162 143.546 82.2162L154.935 67.7852C157.513 68.9654 159.716 70.1456 161.596 71.3795Z" fill="#EFA3B2"/>
<path d="M106.262 41.1769C106.209 41.7134 100.46 37.207 100.729 36.0804C100.998 34.9539 110.184 29.16 103.899 24.1171C103.899 24.1171 98.6875 21.0056 95.6253 28.9454C95.6253 28.9454 93.9062 25.4047 96.1625 20.8447C96.1625 20.8447 85.9553 21.9176 83.5378 19.1816C83.5378 19.1816 90.7903 17.5722 92.1871 16.7138C92.1871 16.7138 83.4304 20.3082 78.3268 15.9091L74.4588 21.7567C74.4588 21.7567 70.9131 18.9134 71.6115 13.3877L69.9461 16.0701C69.9461 16.0701 66.5616 4.91146 77.3598 1.20981C88.1042 -2.49184 107.337 3.19475 109.754 6.30629C109.754 6.30629 123.991 10.0616 112.333 26.6922C112.387 26.5849 107.068 34.6856 106.262 41.1769Z" fill="url(#paint5_linear_175_174)"/>
<path d="M162.241 71.0043L143.76 85.7036L133.768 78.8368C133.768 78.8368 141.289 137.366 136.938 161.507C136.938 161.507 127.106 163.546 120.391 163.975C118.565 164.082 117.007 164.082 115.932 163.867C107.337 162.365 91.9722 146.057 85.0958 143.374C84.8271 143.267 84.5585 143.16 84.2362 143.052C79.5624 141.389 69.6775 138.922 69.6775 138.922C69.6775 138.922 86.0627 102.281 79.7772 74.8133C79.1863 72.0773 78.3268 69.4485 77.1986 66.9808L90.1457 55.8758C90.1457 55.8758 100.568 64.0838 106.37 51.4768L117.383 48.0433C120.714 47.024 124.367 47.2923 127.483 48.9017L162.241 71.0043Z" fill="url(#paint6_diamond_175_174)"/>
<path d="M120.177 164.083C130.652 134.792 133.553 78.9453 133.553 78.9453C133.553 78.9453 141.074 137.474 136.723 161.616C136.723 161.669 126.892 163.708 120.177 164.083Z" fill="#1ED760"/>
<path d="M98.5264 41.7129C98.5264 45.951 92.402 51.7986 89.8234 54.1054L89.1787 47.0776C93.369 45.039 98.5264 41.7129 98.5264 41.7129Z" fill="#EFA3B2"/>
<defs>
<linearGradient id="paint0_linear_175_174" x1="171.355" y1="356.8" x2="147.786" y2="353.584" gradientUnits="userSpaceOnUse">
<stop stop-color="#2B233C"/>
<stop offset="1" stop-color="#635C70"/>
</linearGradient>
<linearGradient id="paint1_linear_175_174" x1="179.868" y1="250.446" x2="159.645" y2="262.96" gradientUnits="userSpaceOnUse">
<stop stop-color="#2B233C"/>
<stop offset="1" stop-color="#635C70"/>
</linearGradient>
<linearGradient id="paint2_linear_175_174" x1="65.9786" y1="173.66" x2="197.913" y2="335.855" gradientUnits="userSpaceOnUse">
<stop stop-color="#2B233C"/>
<stop offset="1" stop-color="#635C70"/>
</linearGradient>
<linearGradient id="paint3_linear_175_174" x1="127.886" y1="309.198" x2="105.625" y2="209.017" gradientUnits="userSpaceOnUse">
<stop stop-color="#2B233C"/>
<stop offset="1" stop-color="#635C70"/>
</linearGradient>
<linearGradient id="paint4_linear_175_174" x1="108.398" y1="145.964" x2="86.9495" y2="177.107" gradientUnits="userSpaceOnUse">
<stop stop-color="#2B233C"/>
<stop offset="1" stop-color="#635C70"/>
</linearGradient>
<linearGradient id="paint5_linear_175_174" x1="69.5134" y1="20.5543" x2="116.971" y2="20.5543" gradientUnits="userSpaceOnUse">
<stop stop-color="#2B233C"/>
<stop offset="1" stop-color="#635C70"/>
</linearGradient>
<radialGradient id="paint6_diamond_175_174" cx="0" cy="0" r="1" gradientUnits="userSpaceOnUse" gradientTransform="translate(149.403 138.324) rotate(-180) scale(37.0527 1657.35)">
<stop stop-color="#22FF71"/>
<stop offset="1" stop-color="#07CC4D"/>
</radialGradient>
</defs>
</svg>
