<svg width="193" height="380" viewBox="0 0 193 380" fill="none" xmlns="http://www.w3.org/2000/svg">
<path d="M153.927 66.5927C153.927 67.0175 135.745 68.6636 135.745 68.6636L134.629 61.0171L133.672 54.3263V54.2201C108.047 60.8046 115.915 33.9886 115.915 33.9886L112.619 31.1212C112.619 31.1212 118.414 25.7579 120.487 22.0409C122.561 18.3238 127.505 11.3145 127.505 11.3145L152.279 18.3238L151.056 43.9185C151.056 43.9185 153.927 66.1679 153.927 66.5927Z" fill="#FFC0BF"/>
<path d="M50.1531 351.957L45.1558 362.949L42.1787 369.427L28.4627 364.33L32.0778 354.559L35.427 345.426L50.1531 351.957Z" fill="#FFC0BF"/>
<path d="M41.9129 377.501L43.242 367.359C43.242 367.359 33.4069 369.218 29.3665 361.73L1.19031 366.987C-0.351413 367.253 -0.404582 369.43 1.08397 369.855L38.4573 379.785C40.1054 380.21 41.7003 379.148 41.9129 377.501Z" fill="url(#paint0_linear_147_1499)"/>
<path d="M141.805 328.965L129.844 337.355L127.717 334.435L118.201 320.894L131.917 312.504L136.596 320.257L141.805 328.965Z" fill="#FFC0BF"/>
<path d="M50.1531 351.957L45.1558 362.949L32.0778 354.559L35.427 345.426L50.1531 351.957Z" fill="#EFA3B2"/>
<path d="M136.596 320.257L127.717 334.435L118.201 320.894L131.917 312.504L136.596 320.257Z" fill="#EFA3B2"/>
<path d="M148.291 333.743L140.689 326.893C140.689 326.893 136.648 336.026 128.195 335.123L116.553 361.249C115.915 362.683 117.669 363.957 118.839 362.948L148.238 337.885C149.514 336.822 149.567 334.858 148.291 333.743Z" fill="url(#paint1_linear_147_1499)"/>
<path d="M94.0124 235.351L98.3717 243.741L112.619 271.141L137.553 319.092L115.171 339.535L96.8832 311.498L79.2332 284.47L55.7352 248.68C48.0267 241.511 48.0798 229.298 55.8416 222.129L126.016 160.744L179.498 172.745C171.736 191.702 94.0124 235.351 94.0124 235.351Z" fill="url(#paint2_linear_147_1499)"/>
<path d="M112.619 271.14L96.8296 311.603L79.1796 284.522L98.3713 243.74L112.619 271.14Z" fill="url(#paint3_linear_147_1499)"/>
<path d="M181.093 160.74C181.093 160.74 181.093 161.431 180.934 162.758C180.349 167.644 177.425 181.291 163.603 202.159C162.22 204.23 160.732 206.354 159.137 208.585C149.408 222.019 135.426 238.109 115.171 256.376L59.7226 361.781L31.8122 354.028L85.1876 228.816L121.019 174.228L123.412 170.564L131.173 158.723L168.6 160.209L181.093 160.74Z" fill="url(#paint4_linear_147_1499)"/>
<path d="M181.093 160.74C181.093 160.74 181.093 161.431 180.933 162.758C180.348 167.644 177.424 181.291 163.602 202.159C162.22 204.23 160.731 206.354 159.136 208.585C158.392 183.202 129.844 175.874 121.019 174.228L123.411 170.564L131.173 158.723L168.599 160.209L181.093 160.74Z" fill="url(#paint5_linear_147_1499)"/>
<path d="M129.897 99.6215V133.128L125.698 131.801L116.128 128.827L114.055 99.2498L114.002 98.7188L129.897 99.6215Z" fill="#FFC0BF"/>
<path d="M129.897 99.6215V133.128L125.698 131.801L121.657 105.834L114.055 99.2498L114.002 98.7188L129.897 99.6215Z" fill="#EFA3B2"/>
<path d="M188.27 102.969C188.163 105.518 188.004 108.385 187.791 111.571C186.675 129.36 184.07 156.866 178.275 184.797C177.956 186.39 176.042 187.134 174.713 186.178C169.503 182.408 160.785 175.027 142.39 173.806C126.016 172.69 120.381 169.664 118.414 167.752C117.67 167.009 117.563 165.84 118.095 164.938C119.477 162.654 124.155 154.53 126.069 146.512C126.707 143.91 127.026 141.255 126.92 138.865C126.92 138.706 126.92 138.599 126.92 138.44C126.973 137.962 126.92 136.263 126.76 133.82C126.122 124.422 124.262 104.137 123.836 102.066C123.836 102.066 114.267 99.4109 114.055 98.8799L114.427 84.1178V84.0647C114.374 82.9496 115.384 67.5503 134.629 62.134C135.054 62.0277 136.436 66.9661 141.327 66.5413C147.175 66.0103 152.704 58.5762 153.023 58.5762C158.445 58.6293 182.953 66.7537 188.11 91.5519C188.11 91.605 188.589 95.8 188.27 102.969Z" fill="url(#paint6_diamond_147_1499)"/>
<path d="M106.186 113.004L147.547 131.058V134.51L113.948 131.058L106.186 113.004Z" fill="url(#paint7_linear_147_1499)"/>
<g filter="url(#filter0_d_147_1499)">
<path d="M188.27 102.969C188.163 105.518 188.004 108.385 187.791 111.571C181.093 128.351 167.855 159.362 160.466 160.53C155.522 161.327 134.735 150.919 126.069 146.565C126.707 143.963 127.026 141.308 126.92 138.918C126.92 138.759 126.92 138.653 126.92 138.493C126.973 138.015 126.92 136.316 126.761 133.874L155.681 141.414L174.82 110.084L188.27 102.969Z" fill="url(#paint8_diamond_147_1499)"/>
</g>
<path d="M147.547 134.51L116.554 133.661L113.949 128.51L147.547 131.059V134.51Z" fill="url(#paint9_linear_147_1499)"/>
<path d="M48.08 64.9472L106.027 83.6919C107.729 84.276 109.004 85.7098 109.323 87.5152L116.607 133.607L64.6136 116.296C63.1782 115.818 62.0618 114.703 61.5833 113.269L46.113 66.912C45.6877 65.7438 46.8041 64.5755 48.08 64.9472Z" fill="url(#paint10_linear_147_1499)"/>
<path d="M180.508 120.227L175.564 128.936L163.337 150.336C162.433 152.3 160.147 153.256 158.127 152.513L113.523 135.839L103.209 134.299L89.4404 127.396L86.8354 123.785L116.553 132.6L153.98 134.087L160.997 112.262L161.529 109.926L180.508 120.227Z" fill="#FFC0BF"/>
<path d="M180.508 120.227L175.511 128.936L160.997 112.262L161.582 109.926L180.508 120.227Z" fill="#EFA3B2"/>
<path d="M82.3167 93.9933C83.38 96.6484 82.6357 99.4096 80.6687 100.206C78.7017 101.003 76.203 99.5158 75.1397 96.8608C74.0765 94.2057 74.8208 91.4445 76.7878 90.648C78.7548 89.8514 81.2535 91.3914 82.3167 93.9933Z" fill="url(#paint11_linear_147_1499)"/>
<path d="M167.855 84.7562L160.678 111.732L180.827 122.086L186.196 108.652C186.196 108.652 191.672 92.7744 185.505 83.8535C184.017 81.6763 182.741 79.0213 179.126 78.0654C174.235 76.6848 169.184 79.8178 167.855 84.7562Z" fill="url(#paint12_diamond_147_1499)"/>
<path d="M162.007 23.9005C162.007 23.9005 162.486 18.2187 156.212 10.4659C151.906 5.15583 133.299 -8.49114 124.208 7.59848C116.393 21.4048 136.276 26.7149 142.071 27.9362L139.094 35.2641L142.815 36.4855C142.815 36.4855 152.012 31.494 150.418 39.9901C149.992 42.1673 149.354 43.2824 146.856 46.1499L151.481 48.4863C151.428 48.4863 171.47 39.9901 162.007 23.9005Z" fill="url(#paint13_linear_147_1499)"/>
<path d="M142.921 51.1406C142.23 54.8046 137.871 58.6279 134.681 61.0174L133.724 54.3267C138.03 53.0523 142.921 51.1406 142.921 51.1406Z" fill="#EFA3B2"/>
<defs>
<filter id="filter0_d_147_1499" x="122.069" y="102.969" width="70.2004" height="65.6055" filterUnits="userSpaceOnUse" color-interpolation-filters="sRGB">
<feFlood flood-opacity="0" result="BackgroundImageFix"/>
<feColorMatrix in="SourceAlpha" type="matrix" values="0 0 0 0 0 0 0 0 0 0 0 0 0 0 0 0 0 0 127 0" result="hardAlpha"/>
<feOffset dy="4"/>
<feGaussianBlur stdDeviation="2"/>
<feComposite in2="hardAlpha" operator="out"/>
<feColorMatrix type="matrix" values="0 0 0 0 0 0 0 0 0 0 0 0 0 0 0 0 0 0 0.25 0"/>
<feBlend mode="normal" in2="BackgroundImageFix" result="effect1_dropShadow_147_1499"/>
<feBlend mode="normal" in="SourceGraphic" in2="effect1_dropShadow_147_1499" result="shape"/>
</filter>
<linearGradient id="paint0_linear_147_1499" x1="26.4822" y1="383.944" x2="19.6414" y2="361.444" gradientUnits="userSpaceOnUse">
<stop stop-color="#2B233C"/>
<stop offset="1" stop-color="#635C70"/>
</linearGradient>
<linearGradient id="paint1_linear_147_1499" x1="144.764" y1="350.095" x2="122.334" y2="342.957" gradientUnits="userSpaceOnUse">
<stop stop-color="#2B233C"/>
<stop offset="1" stop-color="#635C70"/>
</linearGradient>
<linearGradient id="paint2_linear_147_1499" x1="115.348" y1="209.455" x2="134.052" y2="358.827" gradientUnits="userSpaceOnUse">
<stop stop-color="#2B233C"/>
<stop offset="1" stop-color="#635C70"/>
</linearGradient>
<linearGradient id="paint3_linear_147_1499" x1="105.131" y1="286.585" x2="82.3025" y2="259.477" gradientUnits="userSpaceOnUse">
<stop stop-color="#2B233C"/>
<stop offset="1" stop-color="#635C70"/>
</linearGradient>
<linearGradient id="paint4_linear_147_1499" x1="41.5147" y1="351.172" x2="147.277" y2="177.747" gradientUnits="userSpaceOnUse">
<stop stop-color="#2B233C"/>
<stop offset="1" stop-color="#635C70"/>
</linearGradient>
<linearGradient id="paint5_linear_147_1499" x1="169.561" y1="153.128" x2="135.542" y2="195.803" gradientUnits="userSpaceOnUse">
<stop stop-color="#2B233C"/>
<stop offset="1" stop-color="#635C70"/>
</linearGradient>
<radialGradient id="paint6_diamond_147_1499" cx="0" cy="0" r="1" gradientUnits="userSpaceOnUse" gradientTransform="translate(178.071 158.361) rotate(-180) scale(29.7519 1819.71)">
<stop stop-color="#22FF71"/>
<stop offset="1" stop-color="#07CC4D"/>
</radialGradient>
<linearGradient id="paint7_linear_147_1499" x1="106.212" y1="123.774" x2="147.535" y2="123.774" gradientUnits="userSpaceOnUse">
<stop stop-color="#2B233C"/>
<stop offset="1" stop-color="#635C70"/>
</linearGradient>
<radialGradient id="paint8_diamond_147_1499" cx="0" cy="0" r="1" gradientUnits="userSpaceOnUse" gradientTransform="translate(179.643 147.867) rotate(-180) scale(24.8986 818.769)">
<stop stop-color="#22FF71"/>
<stop offset="1" stop-color="#07CC4D"/>
</radialGradient>
<linearGradient id="paint9_linear_147_1499" x1="125.599" y1="131.513" x2="159.175" y2="131.513" gradientUnits="userSpaceOnUse">
<stop stop-color="#2B233C"/>
<stop offset="1" stop-color="#635C70"/>
</linearGradient>
<linearGradient id="paint10_linear_147_1499" x1="45.9922" y1="99.278" x2="116.543" y2="99.278" gradientUnits="userSpaceOnUse">
<stop stop-color="#2B233C"/>
<stop offset="1" stop-color="#635C70"/>
</linearGradient>
<linearGradient id="paint11_linear_147_1499" x1="75.1045" y1="96.9122" x2="82.3028" y2="94.0194" gradientUnits="userSpaceOnUse">
<stop stop-color="#D7C4EC"/>
<stop offset="1" stop-color="#F0F0F2"/>
</linearGradient>
<radialGradient id="paint12_diamond_147_1499" cx="0" cy="0" r="1" gradientUnits="userSpaceOnUse" gradientTransform="translate(184.587 112.304) rotate(-180) scale(11.1119 630.342)">
<stop stop-color="#22FF71"/>
<stop offset="1" stop-color="#07CC4D"/>
</radialGradient>
<linearGradient id="paint13_linear_147_1499" x1="122.398" y1="24.2333" x2="164.545" y2="24.2333" gradientUnits="userSpaceOnUse">
<stop stop-color="#2B233C"/>
<stop offset="1" stop-color="#635C70"/>
</linearGradient>
</defs>
</svg>
