<svg width="70" height="70" viewBox="0 0 70 70" fill="none" xmlns="http://www.w3.org/2000/svg">
<path d="M62.5762 28.1462L62.7497 28.9289L63.4968 29.2196L68.4684 31.1538L68.1762 40.7508L63.3613 42.4589L62.5948 42.7308L62.4045 43.5215C61.8311 45.903 60.8449 47.8983 59.6311 49.9845L59.2649 50.6138L59.5328 51.2909L61.3793 55.9557L54.3328 62.5051L49.7347 60.3489L49.0626 60.0337L48.4044 60.3769C46.2905 61.4789 44.012 62.3238 41.745 62.8289L40.9766 63.0001L40.681 63.7296L38.7608 68.4683L29.3574 68.1759L27.6534 63.3479L27.3825 62.5806L26.5917 62.3892C24.2175 61.8147 22.2281 60.8265 20.1474 59.6096L19.5156 59.2402L18.8356 59.5107L14.1668 61.3681L7.48781 54.4514L9.63129 49.8571L9.94354 49.1878L9.60351 48.5322C8.50401 46.4124 7.66096 44.1274 7.15698 41.8537L6.98677 41.0858L6.25833 40.7891L1.53103 38.8638L1.82388 29.2491L6.63875 27.5411L7.40521 27.2692L7.59558 26.4785C8.16897 24.097 9.15512 22.1017 10.3689 20.0155L10.7351 19.3861L10.4672 18.7091L8.61649 14.0336L15.4998 7.49978L20.0875 9.6511L20.7595 9.96625L21.4177 9.62311C23.5317 8.52106 25.8102 7.67616 28.0771 7.1711L28.8455 6.99992L29.1412 6.27034L31.0615 1.53125L40.5964 1.82313L42.0603 6.59296L42.311 7.40981L43.1415 7.61078C45.5157 8.18531 47.5051 9.17349 49.5859 10.3904L50.2176 10.7598L50.8976 10.4893L55.5664 8.63187L62.2454 15.5486L60.1019 20.1429L59.7897 20.8121L60.1297 21.4677C61.2292 23.5875 62.0722 25.8725 62.5762 28.1462ZM34.1933 50.722L34.2017 50.7223L34.2102 50.7225C42.9516 50.9195 50.1248 44.1167 50.4191 35.3625L50.4194 35.3541L50.4196 35.3457C50.6158 26.5913 43.8361 19.395 35.0951 19.0996L35.0867 19.0993L35.0783 19.0991C26.3521 18.9025 19.0657 25.6932 18.8689 34.4759C18.6727 43.2303 25.4524 50.4267 34.1933 50.722Z" stroke="#1ED760" stroke-width="3"/>
</svg>
