<svg width="268" height="370" viewBox="0 0 268 370" fill="none" xmlns="http://www.w3.org/2000/svg">
<path d="M34.224 327.819L21.1158 338.978L18.6983 341.07L9.08203 329.858L15.7436 323.259L22.8886 316.178L34.224 327.819Z" fill="#FFC0BF"/>
<path d="M1.50709 332.861L10.6936 328.033C10.6936 328.033 12.359 338.012 20.8471 339.192L25.6821 367.732C25.9507 369.288 23.9092 370.146 22.996 368.859L0.540098 336.939C-0.480623 335.597 0.00286984 333.666 1.50709 332.861Z" fill="url(#paint0_linear_175_204)"/>
<path d="M146.449 281.843L138.069 296.435L136.296 299.493L123.456 292.143L127.485 283.721L131.837 274.654L146.449 281.843Z" fill="#FFC0BF"/>
<path d="M117.869 297.024L124.853 289.406C124.853 289.406 129.795 298.204 138.176 296.488L152.359 321.702C153.111 323.097 151.499 324.545 150.21 323.633L118.353 301.209C116.956 300.243 116.741 298.258 117.869 297.024Z" fill="url(#paint1_linear_175_204)"/>
<path d="M34.2238 327.819L21.1156 338.978L15.7434 323.259L22.8884 316.178L34.2238 327.819Z" fill="#EFA3B2"/>
<path d="M146.45 281.843L138.069 296.435L127.486 283.721L131.837 274.654L146.45 281.843Z" fill="#EFA3B2"/>
<path d="M87.9997 85.4936C87.9997 85.4936 76.933 89.1416 69.5193 93.7016C67.1018 95.1501 65.1141 96.7595 63.9859 98.3153C59.4195 104.699 39.811 135.654 39.811 135.654C39.811 135.654 40.8854 143.701 40.187 146.437C39.5423 149.119 36.2653 144.452 36.2653 144.452C36.2653 144.452 35.5669 151.801 31.108 147.295C31.108 147.295 26.9176 146.973 26.4341 143.701C26.4341 143.701 23.3183 143.325 24.1241 138.497C24.9299 133.669 32.075 129.913 32.075 129.913C32.075 129.913 42.712 96.0621 62.804 76.4273C62.804 76.4273 66.8332 73.3694 74.999 70.9016C76.6643 70.3651 78.5446 69.8823 80.5861 69.4531L87.9997 85.4936Z" fill="#FFC0BF"/>
<path d="M90.4172 136.996C90.4172 136.996 181.691 180.182 182.497 195.579C183.357 210.975 162.942 270.256 150.479 296.543L127.324 283.56C127.324 283.56 150.586 223.046 146.288 213.068C141.238 201.373 93.372 184.366 93.372 184.366L90.4172 136.996Z" fill="url(#paint2_linear_175_204)"/>
<path d="M117.332 233.668C114.27 274.494 33.1494 344.02 33.1494 344.02L14.5615 321.81C14.5615 321.81 33.9552 304.804 49.9107 283.292C74.9452 249.548 76.5569 238.389 76.5569 238.389C78.3297 232.649 75.9659 214.945 73.2261 198.798C71.2384 187.102 69.1432 176.158 68.3911 171.277C68.2837 170.74 68.23 170.204 68.1225 169.667C67.8002 167.736 67.5316 165.912 67.263 164.195C65.8125 155.29 71.6682 148.262 71.6682 148.262L82.0903 145.526L112.658 137.425L114.27 136.996L114.485 144.078L114.807 155.075V155.719L115.022 161.727V162.425L115.076 163.766L117.332 233.668Z" fill="url(#paint3_linear_175_204)"/>
<path d="M267.002 82.0617C263.993 83.7784 256.741 87.7482 243.257 85.7097L200.118 110.763C197.432 112.372 194.101 112.694 191.2 111.514L182.336 108.027L169.066 102.769L177.125 83.2419L182.604 86.0852L198.452 94.4005L236.595 77.8772L246.749 71.815L252.336 69.0254C252.336 69.0254 252.389 72.6734 251.046 73.8L248.414 75.5167L266.787 80.5595C267.485 80.7205 267.647 81.6861 267.002 82.0617Z" fill="#FFC0BF"/>
<path d="M182.336 107.972L169.066 102.715L177.125 83.1875L182.604 86.0308C182.443 92.8976 182.336 101.481 182.336 107.972Z" fill="#EFA3B2"/>
<path d="M182.98 44.3475L178.844 44.7767C173.149 72.8342 156.549 57.2765 156.549 57.2765V57.3302L153.702 63.6069L147.792 76.6431L131.676 72.405L142.528 42.7381L142.044 25.9466L171.591 16.3438L178.522 27.7706C179.22 32.8671 182.98 44.3475 182.98 44.3475Z" fill="#FFC0BF"/>
<path d="M135.114 46.9756C135.114 46.9756 147.631 44.7224 151.231 41.7718C151.231 41.7718 148.383 33.3492 154.293 32.4909C154.293 32.4909 158.752 32.6518 159.88 37.6946C159.88 37.6946 168.368 32.4372 170.839 24.8193C170.839 24.8193 171.967 27.0725 171.753 31.096C171.753 31.096 179.811 33.9393 183.195 32.2226C183.195 32.2226 182.604 6.63295 162.781 11.1393C162.781 11.1393 150.64 2.50213 137.908 16.8259C137.908 16.8259 136.135 -5.81318 109.113 1.42918C109.113 1.42918 126.519 -0.341176 132.374 9.20801C132.374 9.20801 116.58 -5.33036 91.5454 12.856C91.5454 12.856 85.7434 19.7228 73.5485 13.4998C73.5485 13.4998 55.6053 0.892711 36.5339 24.1756C36.5339 24.1756 53.725 15.592 61.6759 28.4673C69.6268 41.3426 77.9537 56.954 94.3927 45.6881C94.3927 45.6881 110.294 33.7248 119.803 21.8687C119.803 21.8687 125.498 14.1972 134.792 20.0447C134.792 20.0447 130.064 28.7892 137.478 38.1238C137.424 38.2311 137.8 43.3812 135.114 46.9756Z" fill="url(#paint4_linear_175_204)"/>
<path d="M115.076 162.371C89.2353 166.126 78.0611 184.795 73.2798 198.743C71.2921 187.048 69.1969 176.104 68.4448 171.222C68.3374 170.686 68.2837 170.149 68.1762 169.613C67.8539 167.682 67.5853 165.858 67.3167 164.141C65.8662 155.236 71.7219 148.208 71.7219 148.208L82.144 145.472L112.712 137.371L114.538 144.023L114.861 155.021V155.665L115.076 161.673V162.371Z" fill="url(#paint5_linear_175_204)"/>
<path d="M87.9997 85.4936C87.9997 85.4936 76.9329 89.1416 69.5193 93.7016L74.9989 70.9016C76.6643 70.3651 78.5446 69.8823 80.5861 69.4531L87.9997 85.4936Z" fill="#EFA3B2"/>
<path d="M182.658 85.3872L172.612 109.636L158.537 102.286C158.537 102.286 138.767 118.917 140.97 163.497C140.97 163.497 136.565 156.953 105.513 162.961C89.2891 166.073 66.7258 157.328 65.544 156.845C65.4902 156.845 65.4902 156.845 65.4902 156.845C65.4902 156.845 90.8471 102.983 95.1986 89.0889L93.3183 89.5717L75.9661 94.0244L75.2139 70.7952L101.43 58.0809C106.803 55.5058 112.873 54.7011 118.729 55.935L136.403 59.6366C136.403 59.6366 143.011 71.9755 152.413 66.5571L182.658 85.3872Z" fill="url(#paint6_diamond_175_204)"/>
<path d="M110.832 85.1719L65.4902 156.844C65.4365 156.844 65.4365 156.844 65.4365 156.844C65.4365 156.844 90.7934 102.983 95.1449 89.0881L110.832 85.1719Z" fill="#1ED760"/>
<path d="M156.549 57.33L153.702 63.6067C148.061 55.5059 148.974 46.5469 148.974 46.5469C151.66 51.9116 154.884 55.6132 156.549 57.33Z" fill="#EFA3B2"/>
<defs>
<linearGradient id="paint0_linear_175_204" x1="0.828974" y1="349.741" x2="24.5803" y2="348.382" gradientUnits="userSpaceOnUse">
<stop stop-color="#2B233C"/>
<stop offset="1" stop-color="#635C70"/>
</linearGradient>
<linearGradient id="paint1_linear_175_204" x1="122.93" y1="313.135" x2="144.824" y2="303.84" gradientUnits="userSpaceOnUse">
<stop stop-color="#2B233C"/>
<stop offset="1" stop-color="#635C70"/>
</linearGradient>
<linearGradient id="paint2_linear_175_204" x1="90.4318" y1="216.752" x2="182.563" y2="216.752" gradientUnits="userSpaceOnUse">
<stop stop-color="#2B233C"/>
<stop offset="1" stop-color="#635C70"/>
</linearGradient>
<linearGradient id="paint3_linear_175_204" x1="14.5615" y1="240.497" x2="117.353" y2="240.497" gradientUnits="userSpaceOnUse">
<stop stop-color="#2B233C"/>
<stop offset="1" stop-color="#635C70"/>
</linearGradient>
<linearGradient id="paint4_linear_175_204" x1="36.5153" y1="24.8742" x2="183.181" y2="24.8742" gradientUnits="userSpaceOnUse">
<stop stop-color="#2B233C"/>
<stop offset="1" stop-color="#635C70"/>
</linearGradient>
<linearGradient id="paint5_linear_175_204" x1="67.0657" y1="168.081" x2="115.081" y2="168.081" gradientUnits="userSpaceOnUse">
<stop stop-color="#2B233C"/>
<stop offset="1" stop-color="#635C70"/>
</linearGradient>
<radialGradient id="paint6_diamond_175_204" cx="0" cy="0" r="1" gradientUnits="userSpaceOnUse" gradientTransform="translate(166.407 139.748) rotate(-180) scale(46.9019 1538.78)">
<stop stop-color="#22FF71"/>
<stop offset="1" stop-color="#07CC4D"/>
</radialGradient>
</defs>
</svg>
