<svg width="185" height="45" viewBox="0 0 185 45" fill="none" xmlns="http://www.w3.org/2000/svg">
<path d="M9.98644 21.2323C9.98644 21.2323 9.98644 21.2259 9.98 21.2196L15.3228 15.8615C15.3228 15.8615 15.3357 15.8615 15.3357 15.8678C15.3228 16.4374 15.3808 17.0069 15.5097 17.5605C15.6096 18.3496 16.2476 18.741 17.0275 18.5246L17.4367 18.5087C18.5484 18.5851 19.9824 17.6178 20.092 17.5415C20.0952 17.5415 20.0984 17.5415 20.1017 17.5415C20.1242 17.5955 20.2853 17.9487 20.5786 18.076C21.0362 18.2701 21.207 18.0219 21.4325 18.391C21.4325 18.4037 21.4325 18.4132 21.4325 18.426C21.294 18.5914 21.2198 18.811 21.2488 19.04C21.2488 19.0528 21.2553 19.0623 21.2585 19.075C21.2617 19.1037 21.2714 19.1291 21.2778 19.1578C21.2811 19.1737 21.2843 19.1928 21.2907 19.2087C21.3391 19.3582 21.4325 19.4887 21.5614 19.581C21.5711 19.5873 21.5808 19.5937 21.5904 19.5969C21.613 19.6096 21.6323 19.6255 21.6549 19.6382C21.671 19.6478 21.6903 19.6541 21.7097 19.6637C21.7129 19.6637 21.7193 19.6669 21.7225 19.67C21.758 19.686 21.7934 19.6987 21.8289 19.7114C21.8482 19.7178 21.8675 19.7241 21.8869 19.7273C21.903 19.7305 21.9191 19.7337 21.9352 19.7369C22.1608 19.7782 22.4057 19.7591 22.6699 19.4823C22.8214 19.3264 22.9213 19.1196 22.9116 18.9001C22.8891 18.4196 22.4573 18.0664 21.9836 18.1269C21.9642 18.1269 21.9481 18.1364 21.932 18.1396C21.9062 18.1428 21.8837 18.1492 21.8579 18.1555C21.845 18.1587 21.8321 18.1619 21.8192 18.1651C21.7902 18.0919 21.7451 18.0251 21.6871 17.9614C21.0877 17.1437 21.8514 16.8287 22.6184 16.6919C22.7247 16.6728 22.9342 16.6665 22.9406 16.6665C23.0147 16.8574 23.1597 17.0101 23.3402 17.0992C23.482 17.1692 23.6431 17.201 23.8139 17.1787C24.2522 17.1246 24.5647 16.7396 24.5325 16.3069C24.5325 16.2942 24.5325 16.2783 24.5325 16.2656C24.51 16.081 24.4229 15.9219 24.3005 15.7978C24.265 15.7628 24.2296 15.731 24.1877 15.7024C24.1684 15.6897 24.149 15.6769 24.1297 15.6674C23.9782 15.5783 23.7978 15.5338 23.6109 15.5592C23.2596 15.6038 22.9922 15.8583 22.9116 16.1765C22.7988 16.1956 22.1608 16.2719 21.8611 16.291C21.0942 16.2274 21.5421 15.4956 21.9223 15.2156C22.0061 15.136 22.251 15.0279 22.338 14.9865C22.3928 15.0279 22.4573 15.0629 22.5217 15.0883C22.6506 15.1424 22.7956 15.1679 22.9471 15.152C22.96 15.152 22.9728 15.1456 22.9857 15.1424C23.4175 15.0692 23.7205 14.6747 23.6657 14.2388C23.6302 13.962 23.4594 13.7361 23.2274 13.6183C23.0953 13.5515 22.9406 13.5197 22.7827 13.5324C22.7698 13.5324 22.7569 13.5324 22.7441 13.5324C22.2929 13.5897 21.9739 13.9938 22.0255 14.4392C21.642 14.7765 20.3852 15.9474 20.4529 14.5188C20.4594 14.3979 20.469 14.277 20.4561 14.1561C20.4561 14.1497 20.4561 14.1465 20.4529 14.1433C20.4529 14.1433 20.4529 14.1433 20.4561 14.1433C20.8686 14.0542 21.1554 13.6692 21.1006 13.2492C21.0523 12.8706 20.7461 12.5875 20.3788 12.5429C20.179 12.5206 19.9695 12.5429 19.7375 12.7784C19.4991 13.0202 19.3863 13.3797 19.5281 13.6852C19.6054 13.8506 19.7343 13.9842 19.8922 14.067C19.8922 14.067 19.8922 14.0701 19.8954 14.0733C19.8922 14.3629 19.976 14.6556 19.8696 14.9356C19.7053 15.346 19.3057 15.7947 19.6247 16.3992C19.6409 16.4278 18.5098 16.9146 18.1263 16.7524C18.0071 16.7015 17.8556 16.4819 17.7815 16.3769C16.6601 14.856 19.512 13.6406 17.0565 12.0306C16.8277 11.8811 16.6214 11.6011 17.3143 11.3752C17.5785 11.2893 18.8804 10.8852 18.9899 10.847C21.2714 10.0611 22.7924 7.71301 24.0395 5.67032C24.9418 4.1908 25.177 2.60627 25.3349 1.62311C25.4573 0.869034 24.9385 0.14359 24.1716 0.0290472C23.5046 -0.0695873 22.7473 0.086318 22.3445 0.445857C21.4873 1.05675 20.527 1.51811 19.6376 2.05264C19.3186 1.80128 18.89 1.68039 18.426 1.80766C18.0264 1.91584 17.6945 2.2181 17.5398 2.59991C17.3723 3.02309 17.4367 3.41444 17.6139 3.73262C17.5882 3.76444 17.5624 3.79625 17.5366 3.82807C16.8438 4.77305 16.1284 5.66394 15.9576 6.77119C15.6644 8.65479 14.0757 8.99524 13.1638 9.55205C13.1638 9.55205 13.1605 9.55205 13.1573 9.55205C12.9672 9.26569 12.6868 9.03979 12.3517 8.89979C11.2851 8.35571 8.82636 10.1852 8.6878 8.79797C8.64591 8.38752 8.82315 7.27391 8.85537 7.28664C9.50308 7.52209 9.90265 7.07665 10.2958 6.86348C10.5633 6.72348 10.8694 6.76801 11.1562 6.72983C11.1562 6.72983 11.1594 6.72983 11.1626 6.72983C11.2657 6.87301 11.4172 6.98438 11.5912 7.03847C11.9199 7.14029 12.2647 6.98438 12.4774 6.72029C12.6868 6.46257 12.6836 6.25257 12.6353 6.06167C12.5451 5.70849 12.2228 5.44441 11.8361 5.44441C11.4043 5.44441 11.0531 5.77212 11.0176 6.18893C11.0176 6.18893 11.0176 6.18893 11.0176 6.19211C11.0112 6.19211 11.0079 6.19211 11.0015 6.19211C10.8791 6.19529 10.7598 6.22075 10.6374 6.23984C9.20984 6.48484 10.2281 5.10714 10.5214 4.69033C10.9757 4.69033 11.3431 4.32443 11.3431 3.8758C11.3431 3.86307 11.3399 3.85035 11.3399 3.83762C11.3334 3.68172 11.2819 3.53535 11.1981 3.41444C11.0498 3.20126 10.8017 3.06127 10.5181 3.06127C10.0734 3.06127 9.71576 3.4049 9.69642 3.83762C9.69642 3.85035 9.6932 3.86307 9.6932 3.8758C9.6932 4.02534 9.73831 4.16533 9.80921 4.28624C9.84466 4.34669 9.88654 4.40397 9.93488 4.4517C9.90265 4.54397 9.82854 4.79533 9.75765 4.8876C9.52563 5.29486 8.84247 5.82303 8.68457 5.08168C8.66524 4.78578 8.66524 4.15262 8.66846 4.03807C8.98104 3.92035 9.20339 3.62444 9.20339 3.27763C9.20339 3.08991 9.13572 2.91809 9.02938 2.78128C9.01649 2.76218 9.00038 2.74627 8.98427 2.73036C8.95204 2.69536 8.91337 2.66354 8.8747 2.63172C8.73614 2.52672 8.56534 2.4631 8.37522 2.4631C8.36233 2.4631 8.34622 2.4631 8.33333 2.4631C7.89508 2.48537 7.54705 2.83854 7.54705 3.27444C7.54705 3.44308 7.59862 3.59898 7.68563 3.72625C7.79841 3.8917 7.96919 4.01579 8.17221 4.06351C8.17221 4.06988 8.19477 4.27669 8.18832 4.38487C8.14643 5.15168 7.92408 5.94075 7.02825 5.45394C6.96058 5.40621 6.88646 5.37123 6.80912 5.35214C6.80912 5.33941 6.81234 5.32667 6.81557 5.31394C6.81879 5.28849 6.82201 5.26304 6.82201 5.24077C6.82201 5.22486 6.82846 5.20578 6.82846 5.18987C6.82846 4.71579 6.42242 4.33716 5.93584 4.37534C5.71671 4.39125 5.52014 4.51851 5.38158 4.68396C5.13667 4.97986 5.14635 5.22168 5.21724 5.43804C5.22369 5.45394 5.2269 5.46986 5.23335 5.48577C5.23979 5.50486 5.24947 5.52076 5.25913 5.53985C5.27525 5.57485 5.29458 5.60985 5.31391 5.63849C5.31391 5.64167 5.32036 5.64486 5.32036 5.65123C5.33003 5.66714 5.33969 5.68621 5.35258 5.69894C5.36547 5.72121 5.38481 5.73712 5.40092 5.75621C5.40737 5.76576 5.4138 5.77213 5.42347 5.78167C5.52981 5.89303 5.67482 5.9694 5.8295 6.00121C5.84561 6.00439 5.86495 6.0044 5.88106 6.00758C5.91006 6.01076 5.93907 6.01394 5.96485 6.01712C5.97774 6.01712 5.99062 6.0203 6.00029 6.0203C6.23553 6.0203 6.44498 5.92167 6.59322 5.76577C6.60288 5.76577 6.61578 5.76258 6.62867 5.7594C7.02503 5.93439 6.79623 6.13166 7.05081 6.55484C7.21193 6.82528 7.58573 6.93983 7.64696 6.95574C7.65018 6.95574 7.6534 6.96209 7.65017 6.96528C7.5825 7.06073 6.81879 8.17752 7.01214 9.68886C7.31827 12.0911 10.647 11.5247 10.9048 11.5279C10.9113 11.5279 10.9145 11.5375 10.9081 11.5406L6.29353 16.0969L3.69625 18.6678L1.08608 21.2387C-1.23407 23.5295 0.409364 27.4431 3.6898 27.4431H10.9532C10.9532 27.4431 10.9564 27.4494 10.9596 27.4558L2.07214 45L8.35589 38.7956L10.9661 36.2247L13.5633 33.6539C14.8104 32.4225 18.5484 28.7317 19.8535 27.4431L26.1373 21.2387H9.99289L9.98644 21.2323ZM21.6194 3.87262C22.2542 3.99034 22.7731 4.50579 22.8955 5.1326C23.1114 6.26212 22.1286 7.23256 20.9846 7.01938C20.3498 6.90165 19.831 6.3862 19.7085 5.7594C19.4926 4.62987 20.4755 3.65944 21.6194 3.87262Z" fill="white"/>
<path d="M48.2883 26.9369C46.8962 28.2574 44.7694 29.1674 40.7027 29.1674C39.8616 29.1674 37.7348 29.1674 35.4275 28.5724C35.1118 28.496 33.3265 28.1046 32.3308 27.0165C31.6734 26.3165 31.4382 25.4606 31.3608 24.5538L37.6091 24.2674C37.7155 24.6556 37.8186 24.837 37.9507 24.9929C38.5823 25.6929 39.997 25.8997 40.8122 25.8997C41.837 25.8997 42.5169 25.6929 42.8585 25.432C43.1743 25.1997 43.2516 24.837 43.2516 24.6811C43.2516 24.4488 43.1195 24.2134 42.91 24.0861C42.3074 23.6979 40.4417 23.542 38.4212 23.2047C37.477 23.0488 36.5586 22.8675 35.637 22.6098C34.6381 22.352 33.5102 22.0148 32.8013 21.2352C32.4597 20.8725 32.015 20.1471 32.015 18.9794C32.015 16.698 33.9066 15.8167 34.5607 15.5049C35.8207 14.9354 37.6317 14.5186 40.7027 14.5186C44.9015 14.5186 47.212 15.5303 48.472 17.0321C48.6041 17.188 48.9972 17.6812 49.2582 18.2508C49.3356 18.4321 49.4161 18.6898 49.5192 19.1066L43.3773 19.3676C43.3257 19.1066 43.3 19.0812 43.2194 18.9539C42.8778 18.3589 41.8531 17.8403 40.3063 17.8658C38.9948 17.8658 38.1022 18.2794 38.1022 18.9794C38.1022 19.0844 38.1279 19.3166 38.3632 19.498C38.94 19.9657 41.302 20.1725 42.011 20.2489C43.0357 20.3793 44.0572 20.5066 45.0562 20.6625C45.1883 20.688 46.9735 20.9202 47.9693 21.4675C49.4129 22.2725 49.545 23.6184 49.545 24.1879C49.545 24.8624 49.4129 25.8456 48.2851 26.9369H48.2883Z" fill="white"/>
<path d="M68.87 26.3421C68.0032 27.5098 66.1406 29.2184 62.5959 29.2184C59.8923 29.2184 58.4744 28.2321 57.5303 27.5862V33.5233H51.3883V14.9896H57.5303V16.3641C57.8461 16.1064 58.1071 15.8964 58.4487 15.6896C59.106 15.276 60.5239 14.6523 62.5701 14.6523C63.437 14.6523 66.2469 14.7828 68.2674 16.7778C70.1042 18.6168 70.2363 21.2099 70.2363 21.9863C70.2363 22.6863 70.159 24.6303 68.87 26.3421ZM62.8569 19.4473C62.1996 18.9032 61.4648 18.7473 60.598 18.7982C58.0265 18.9286 57.527 20.949 57.527 21.8558C57.527 22.0372 57.5528 22.5304 57.7623 23.049C58.4712 24.8117 60.2049 24.9676 60.8075 24.9676C61.0975 24.9676 61.8322 24.9676 62.5411 24.554C63.8527 23.8031 63.959 22.2981 63.959 21.859C63.959 21.4454 63.8817 20.2522 62.8569 19.4473Z" fill="white"/>
<path d="M78.0056 22.7115C78.0313 22.8674 78.1119 23.2047 78.2956 23.5928C79.1882 25.4605 81.2892 25.6419 81.866 25.6419C83.0745 25.6419 84.096 25.1233 84.4118 24.891C84.6728 24.7096 84.9112 24.4774 84.9886 24.3978L91.4463 24.7096C91.1853 25.2283 90.6311 26.1605 89.4516 27.0419C89.268 27.1978 88.7427 27.5605 88.1143 27.8723C85.5944 29.0655 82.2334 29.1164 81.576 29.1164C78.5824 29.1164 75.0667 28.4418 73.043 26.0046C72.4662 25.3046 71.5994 24.0097 71.5994 21.7792C71.5994 21.0538 71.7057 19.2657 72.9914 17.6589C73.5425 16.9843 74.1451 16.5453 74.4093 16.3639C75.8788 15.3521 77.7703 14.5757 81.6276 14.6012C84.5664 14.6012 87.6922 15.0403 89.8448 17.2707C90.2379 17.6843 91.1047 18.6707 91.5237 20.2011C91.7589 21.057 91.7847 21.8333 91.8137 22.7147H78.0056V22.7115ZM81.7597 18.1234C81.3408 18.1234 79.765 18.1489 78.7918 19.2911C78.476 19.6793 78.3987 19.8861 78.215 20.3284H85.3044C84.9628 19.3961 84.096 18.1266 81.7597 18.1266V18.1234Z" fill="white"/>
<path d="M99.3187 22.7115C99.3445 22.8674 99.425 23.2047 99.6087 23.5928C100.501 25.4605 102.602 25.6419 103.179 25.6419C104.388 25.6419 105.409 25.1233 105.725 24.891C105.986 24.7096 106.224 24.4774 106.302 24.3978L112.759 24.7096C112.498 25.2283 111.944 26.1605 110.765 27.0419C110.581 27.1978 110.056 27.5605 109.424 27.8723C106.904 29.0655 103.543 29.1164 102.889 29.1164C99.8955 29.1164 96.3798 28.4418 94.3561 26.0046C93.7793 25.3046 92.9125 24.0097 92.9125 21.7792C92.9125 21.0538 93.0188 19.2657 94.3046 17.6589C94.8556 16.9843 95.4582 16.5453 95.7224 16.3639C97.1919 15.3521 99.0834 14.5757 102.941 14.6012C105.88 14.6012 109.005 15.0403 111.158 17.2707C111.551 17.6843 112.418 18.6707 112.837 20.2011C113.072 21.057 113.098 21.8333 113.127 22.7147H99.3187V22.7115ZM103.073 18.1234C102.654 18.1234 101.078 18.1489 100.105 19.2911C99.7892 19.6793 99.7118 19.8861 99.5281 20.3284H106.617C106.276 19.3961 105.409 18.1266 103.073 18.1266V18.1234Z" fill="white"/>
<path d="M122.63 24.8371H131.714V28.7252H114.126V24.8116L123.287 18.8235H114.835V14.9863H131.794V18.849L122.633 24.8371H122.63Z" fill="white"/>
<path d="M146.44 28.7251C146.283 28.1015 146.257 28.0506 146.205 27.4015C145.261 27.8151 142.528 29.1133 139.3 29.1133C134.785 29.1133 133.183 26.8319 133.183 24.7065C133.183 24.3693 133.235 23.2811 133.892 22.3998C134.679 21.3116 136.151 20.8439 136.464 20.7675C138.852 20.0675 143.656 20.0166 146.099 19.9625C146.099 19.5235 146.073 19.2116 145.809 18.8489C145.206 18.098 143.946 18.0185 143.105 18.0185C142.264 18.0185 140.637 18.1235 139.983 18.7948C139.825 18.9507 139.799 19.0557 139.722 19.2625H133.763C133.896 18.5117 134.208 16.6185 136.206 15.6067C137.44 14.9831 139.644 14.5186 142.899 14.5186C143.398 14.5186 145.918 14.5185 147.939 14.9067C148.306 14.9831 149.959 15.2185 150.984 16.2558C152.218 17.4744 152.112 19.0303 152.112 19.5489V26.7301C152.112 27.9488 152.373 28.2606 152.872 28.7251H146.44ZM142.058 22.6607C140.824 22.7657 140.141 22.8929 139.747 23.3607C139.641 23.4657 139.457 23.7234 139.457 24.1115C139.457 24.4234 139.59 24.6302 139.641 24.7065C139.931 25.1456 140.508 25.4829 141.61 25.4829C142.109 25.4829 143.289 25.3779 144.497 24.732C144.629 24.6556 145.155 24.3693 145.522 23.9556C145.941 23.4879 146.047 23.0488 146.179 22.4252C144.813 22.5048 143.424 22.5302 142.058 22.6575V22.6607Z" fill="white"/>
<path d="M164.264 20.0423C163.948 20.0423 163.632 20.0678 163.345 20.0932C163.029 20.1187 161.666 20.2237 161.141 21.3118C160.932 21.7255 160.906 22.1423 160.906 22.5813V28.7253H154.738V14.9865H160.935V17.1628C161.96 15.5815 163.664 15.0374 164.27 14.8815C164.612 14.8019 165.005 14.751 165.74 14.7256V20.1441C165.24 20.0932 164.77 20.0391 164.27 20.0391L164.264 20.0423Z" fill="white"/>
<path d="M178.806 28.7253V27.3762C178.307 27.7389 178.123 27.8694 177.808 28.0253C177.176 28.3626 175.578 29.0371 173.554 29.0371C171.034 29.0371 169.381 28.0253 168.617 27.4303C168.224 27.093 167.592 26.5235 167.041 25.4354C166.465 24.3472 166.175 23.1286 166.175 21.91C166.175 21.2609 166.281 19.4218 167.357 17.7355C168.118 16.5423 169.983 14.5219 173.657 14.5474C176.493 14.5474 177.859 15.6355 178.803 16.361V10.4238H185V28.7253H178.803H178.806ZM178.545 20.3795C178.23 19.705 177.443 18.6964 175.632 18.6964C173.715 18.6964 172.378 19.81 172.378 21.7795C172.378 22.0372 172.378 22.5559 172.639 23.1795C173.138 24.3726 174.292 24.9931 175.578 24.9931C177.495 24.9931 178.806 23.644 178.806 21.7795C178.806 21.5727 178.806 20.9491 178.545 20.3795Z" fill="white"/>
</svg>
