<svg width="272" height="67" viewBox="0 0 272 67" fill="none" xmlns="http://www.w3.org/2000/svg">
<path d="M14.6829 31.6125C14.6829 31.6125 14.6829 31.603 14.6734 31.5936L22.5288 23.616C22.5288 23.616 22.5477 23.616 22.5477 23.6255C22.5288 24.4734 22.614 25.3214 22.8036 26.1457C22.9504 27.3205 23.8885 27.9032 25.0351 27.5811L25.6368 27.5574C27.2713 27.6711 29.3797 26.231 29.5408 26.1173C29.5455 26.1173 29.5503 26.1173 29.555 26.1173C29.5882 26.1978 29.825 26.7236 30.2562 26.9131C30.929 27.2021 31.1801 26.8326 31.5117 27.3821C31.5117 27.4011 31.5117 27.4153 31.5117 27.4342C31.308 27.6806 31.199 28.0074 31.2417 28.3485C31.2417 28.3675 31.2511 28.3817 31.2559 28.4006C31.2606 28.4433 31.2748 28.4812 31.2843 28.5238C31.289 28.5475 31.2938 28.5759 31.3033 28.5996C31.3743 28.8223 31.5117 29.0165 31.7012 29.1539C31.7155 29.1633 31.7297 29.1728 31.7439 29.1775C31.777 29.1965 31.8055 29.2202 31.8386 29.2391C31.8623 29.2533 31.8908 29.2628 31.9192 29.277C31.9239 29.277 31.9334 29.2818 31.9381 29.2865C31.9902 29.3102 32.0424 29.3291 32.0945 29.3481C32.1229 29.3576 32.1513 29.3671 32.1798 29.3718C32.2034 29.3765 32.2271 29.3812 32.2508 29.386C32.5825 29.4476 32.9426 29.4192 33.3311 29.007C33.5537 28.7749 33.7006 28.4669 33.6864 28.1401C33.6532 27.4247 33.0184 26.8989 32.3219 26.9889C32.2935 26.9889 32.2698 27.0031 32.2461 27.0079C32.2082 27.0126 32.175 27.0221 32.1371 27.0316C32.1182 27.0363 32.0992 27.041 32.0803 27.0458C32.0376 26.9368 31.9713 26.8373 31.886 26.7426C31.0048 25.5251 32.1276 25.0561 33.2553 24.8524C33.4116 24.824 33.7196 24.8145 33.729 24.8145C33.838 25.0988 34.0512 25.3261 34.3165 25.4588C34.525 25.563 34.7619 25.6104 35.013 25.5772C35.6573 25.4967 36.1169 24.9235 36.0695 24.2792C36.0695 24.2603 36.0695 24.2366 36.0695 24.2176C36.0364 23.9429 35.9084 23.706 35.7284 23.5212C35.6763 23.4691 35.6242 23.4217 35.5626 23.3791C35.5342 23.3602 35.5057 23.3412 35.4773 23.327C35.2546 23.1944 34.9893 23.128 34.7145 23.1659C34.1981 23.2323 33.8048 23.6112 33.6864 24.085C33.5206 24.1134 32.5825 24.2271 32.1419 24.2555C31.0142 24.1608 31.6728 23.0712 32.2319 22.6543C32.3551 22.5359 32.7151 22.3748 32.8431 22.3132C32.9236 22.3748 33.0184 22.4269 33.1131 22.4648C33.3026 22.5454 33.5158 22.5833 33.7385 22.5596C33.7575 22.5596 33.7764 22.5501 33.7954 22.5453C34.4302 22.4364 34.8756 21.849 34.7951 21.2C34.7429 20.7878 34.4918 20.4515 34.1507 20.2762C33.9564 20.1767 33.729 20.1293 33.4969 20.1483C33.4779 20.1483 33.459 20.1483 33.44 20.1483C32.7767 20.2336 32.3077 20.8352 32.3835 21.4984C31.8197 22.0006 29.9719 23.7439 30.0714 21.6169C30.0809 21.4368 30.0951 21.2568 30.0762 21.0768C30.0762 21.0673 30.0762 21.0626 30.0714 21.0578C30.0714 21.0578 30.0714 21.0578 30.0762 21.0578C30.6826 20.9252 31.1043 20.352 31.0237 19.7267C30.9527 19.1629 30.5026 18.7413 29.9624 18.675C29.6687 18.6418 29.3607 18.675 29.0196 19.0255C28.669 19.3856 28.5032 19.9209 28.7117 20.3757C28.8254 20.622 29.0149 20.821 29.247 20.9441C29.247 20.9441 29.247 20.9489 29.2518 20.9536C29.247 21.3847 29.3702 21.8206 29.2139 22.2374C28.9722 22.8485 28.3847 23.5165 28.8538 24.4166C28.8775 24.4592 27.2145 25.184 26.6507 24.9424C26.4754 24.8666 26.2527 24.5397 26.1437 24.3834C24.495 22.119 28.688 20.3094 25.0777 17.9123C24.7413 17.6896 24.4381 17.2728 25.4568 16.9364C25.8453 16.8085 27.7593 16.2069 27.9204 16.15C31.2748 14.9799 33.5111 11.4838 35.3446 8.44247C36.6712 6.23963 37.0171 3.88045 37.2493 2.41663C37.4293 1.2939 36.6665 0.21379 35.5389 0.043248C34.5582 -0.103608 33.4448 0.128518 32.8525 0.663831C31.5923 1.57339 30.1804 2.26029 28.8727 3.05615C28.4037 2.68191 27.7736 2.50191 27.0913 2.6914C26.5038 2.85247 26.0158 3.30251 25.7884 3.87098C25.542 4.50104 25.6368 5.08372 25.8974 5.55745C25.8595 5.60483 25.8216 5.65219 25.7837 5.69957C24.765 7.10654 23.7132 8.43298 23.4621 10.0816C23.031 12.886 20.6952 13.3929 19.3544 14.2219C19.3544 14.2219 19.3497 14.2219 19.3449 14.2219C19.0654 13.7956 18.6532 13.4592 18.1605 13.2508C16.5922 12.4407 12.9773 15.1647 12.7735 13.0992C12.7119 12.4881 12.9725 10.83 13.0199 10.849C13.9722 11.1995 14.5597 10.5364 15.1377 10.219C15.531 10.0105 15.9811 10.0768 16.4027 10.02C16.4027 10.02 16.4075 10.02 16.4122 10.02C16.5638 10.2331 16.7865 10.399 17.0423 10.4795C17.5256 10.6311 18.0325 10.399 18.3452 10.0058C18.6532 9.62205 18.6485 9.30939 18.5774 9.02515C18.4447 8.49931 17.971 8.10611 17.4024 8.10611C16.7675 8.10611 16.2511 8.59404 16.199 9.21462C16.199 9.21462 16.199 9.21463 16.199 9.21936C16.1895 9.21936 16.1848 9.21936 16.1753 9.21936C15.9953 9.2241 15.82 9.26201 15.6399 9.29043C13.5411 9.65521 15.0382 7.60396 15.4694 6.98338C16.1374 6.98338 16.6775 6.43859 16.6775 5.77064C16.6775 5.75169 16.6728 5.73274 16.6728 5.71379C16.6633 5.48166 16.5875 5.26374 16.4643 5.08372C16.2464 4.76633 15.8816 4.55789 15.4646 4.55789C14.8108 4.55789 14.2849 5.06952 14.2565 5.71379C14.2565 5.73274 14.2517 5.75169 14.2517 5.77064C14.2517 5.99329 14.3181 6.20172 14.4223 6.38174C14.4744 6.47174 14.536 6.55702 14.6071 6.62808C14.5597 6.76547 14.4507 7.13971 14.3465 7.27709C14.0054 7.88346 13.0009 8.66984 12.7688 7.56606C12.7404 7.12549 12.7404 6.18279 12.7451 6.01224C13.2047 5.83696 13.5316 5.39639 13.5316 4.88003C13.5316 4.60053 13.4321 4.34471 13.2757 4.14101C13.2568 4.11259 13.2331 4.08888 13.2094 4.0652C13.162 4.01309 13.1052 3.96572 13.0483 3.91834C12.8446 3.76201 12.5935 3.66728 12.314 3.66728C12.295 3.66728 12.2713 3.66728 12.2524 3.66728C11.608 3.70044 11.0963 4.22628 11.0963 4.87528C11.0963 5.12636 11.1721 5.35848 11.3001 5.54797C11.4659 5.79431 11.717 5.97906 12.0155 6.05012C12.0155 6.0596 12.0486 6.36752 12.0392 6.52859C11.9776 7.67028 11.6507 8.84512 10.3335 8.12031C10.234 8.04925 10.1251 7.99717 10.0114 7.96874C10.0114 7.94979 10.0161 7.93082 10.0208 7.91187C10.0256 7.87397 10.0303 7.83608 10.0303 7.80292C10.0303 7.77923 10.0398 7.75082 10.0398 7.72714C10.0398 7.02128 9.44282 6.45755 8.72741 6.51439C8.40523 6.53808 8.11622 6.72756 7.9125 6.9739C7.55242 7.41446 7.56664 7.7745 7.67088 8.09663C7.68035 8.12032 7.68508 8.14401 7.69456 8.1677C7.70403 8.19613 7.71826 8.2198 7.73247 8.24823C7.75616 8.30034 7.78458 8.35245 7.81301 8.39508C7.81301 8.39982 7.82249 8.40457 7.82249 8.41405C7.8367 8.43774 7.85091 8.46614 7.86986 8.48509C7.88881 8.51825 7.91725 8.54193 7.94094 8.57036C7.95041 8.58457 7.95988 8.59405 7.97409 8.60826C8.13044 8.77407 8.34365 8.88777 8.57106 8.93514C8.59475 8.93988 8.62318 8.93989 8.64687 8.94462C8.68951 8.94936 8.73216 8.95408 8.77006 8.95882C8.78901 8.95882 8.80796 8.96356 8.82217 8.96356C9.16803 8.96356 9.47599 8.81671 9.69393 8.58458C9.70815 8.58458 9.7271 8.57984 9.74606 8.5751C10.3288 8.83565 9.99242 9.12936 10.3667 9.75942C10.6036 10.1621 11.1532 10.3326 11.2432 10.3563C11.248 10.3563 11.2527 10.3658 11.2479 10.3705C11.1484 10.5126 10.0256 12.1754 10.3099 14.4256C10.76 18.0023 15.6541 17.1591 16.0332 17.1638C16.0427 17.1638 16.0474 17.178 16.0379 17.1827L9.25331 23.9665L5.43461 27.7943L1.59695 31.622C-1.8143 35.0328 0.601997 40.8597 5.42513 40.8597H16.1042C16.1042 40.8597 16.109 40.8692 16.1137 40.8786L3.04673 67L12.2855 57.7623L16.1232 53.9346L19.9419 50.1069C21.7754 48.2735 27.2713 42.7783 29.1902 40.8597L38.429 31.622H14.6924L14.6829 31.6125ZM31.7865 5.76589C32.7199 5.94117 33.4827 6.70862 33.6627 7.64187C33.9801 9.32361 32.5351 10.7685 30.8532 10.4511C29.9198 10.2758 29.157 9.50835 28.977 8.5751C28.6595 6.89336 30.1046 5.4485 31.7865 5.76589Z" fill="#1ED760"/>
<path d="M70.9969 40.1068C68.9502 42.0728 65.8232 43.4276 59.844 43.4276C58.6074 43.4276 55.4805 43.4276 52.0882 42.5418C51.6239 42.4281 48.9991 41.8454 47.5351 40.2252C46.5686 39.183 46.2227 37.9087 46.109 36.5586L55.2957 36.1322C55.452 36.7102 55.6036 36.9802 55.7979 37.2123C56.7265 38.2545 58.8064 38.5624 60.0051 38.5624C61.5117 38.5624 62.5114 38.2545 63.0136 37.8661C63.478 37.5202 63.5917 36.9802 63.5917 36.7481C63.5917 36.4023 63.3974 36.0517 63.0895 35.8622C62.2035 35.2842 59.4603 35.0521 56.4896 34.55C55.1014 34.3178 53.7512 34.0478 52.3961 33.6641C50.9274 33.2804 49.2692 32.7782 48.2268 31.6176C47.7246 31.0775 47.0708 29.9974 47.0708 28.2588C47.0708 24.8622 49.8519 23.55 50.8137 23.0857C52.6662 22.2378 55.3289 21.6172 59.844 21.6172C66.0174 21.6172 69.4145 23.1236 71.267 25.3596C71.4612 25.5918 72.0392 26.326 72.423 27.174C72.5367 27.444 72.6552 27.8278 72.8068 28.4483L63.7764 28.8368C63.7006 28.4483 63.6627 28.4105 63.5443 28.221C63.0421 27.3351 61.5354 26.5629 59.2613 26.6008C57.333 26.6008 56.0206 27.2166 56.0206 28.2588C56.0206 28.4152 56.0585 28.761 56.4043 29.031C57.2524 29.7274 60.7253 30.0353 61.7676 30.149C63.2742 30.3432 64.7761 30.5328 66.2449 30.7649C66.4391 30.8028 69.0639 31.1486 70.5279 31.9634C72.6504 33.1619 72.8447 35.1658 72.8447 36.0138C72.8447 37.0181 72.6504 38.4819 70.9922 40.1068H70.9969Z" fill="white"/>
<path d="M101.258 39.2192C99.983 40.9578 97.2446 43.5017 92.0329 43.5017C88.0579 43.5017 85.9732 42.0332 84.585 41.0715V49.9113H75.5547V22.3166H84.585V24.3631C85.0493 23.9794 85.4331 23.6667 85.9353 23.3588C86.9018 22.743 88.9865 21.8145 91.995 21.8145C93.2695 21.8145 97.4009 22.0087 100.372 24.979C103.072 27.7171 103.266 31.578 103.266 32.7339C103.266 33.7761 103.153 36.6706 101.258 39.2192ZM92.4167 28.9535C91.4502 28.1435 90.3699 27.9113 89.0954 27.9871C85.3146 28.1813 84.5803 31.1895 84.5803 32.5397C84.5803 32.8097 84.6182 33.544 84.9261 34.3162C85.9685 36.9406 88.5174 37.1727 89.4034 37.1727C89.8298 37.1727 90.91 37.1727 91.9524 36.5569C93.8807 35.4389 94.037 33.1981 94.037 32.5444C94.037 31.9285 93.9233 30.1521 92.4167 28.9535Z" fill="white"/>
<path d="M114.689 33.8145C114.727 34.0467 114.846 34.5488 115.116 35.1268C116.428 37.9075 119.517 38.1776 120.365 38.1776C122.142 38.1776 123.644 37.4054 124.108 37.0596C124.492 36.7895 124.843 36.4437 124.956 36.3253L134.451 36.7895C134.067 37.5617 133.252 38.9498 131.518 40.262C131.248 40.4941 130.476 41.0342 129.552 41.4984C125.847 43.2749 120.905 43.3507 119.939 43.3507C115.537 43.3507 110.368 42.3464 107.393 38.7176C106.545 37.6754 105.271 35.7473 105.271 32.4265C105.271 31.3464 105.427 28.6841 107.317 26.2917C108.127 25.2874 109.013 24.6337 109.402 24.3637C111.562 22.8572 114.343 21.7013 120.015 21.7392C124.336 21.7392 128.931 22.3929 132.096 25.7138C132.674 26.3296 133.949 27.7982 134.565 30.0768C134.91 31.3512 134.948 32.507 134.991 33.8193H114.689V33.8145ZM120.209 26.9834C119.593 26.9834 117.276 27.0213 115.845 28.722C115.381 29.2999 115.267 29.6078 114.997 30.2663H125.421C124.918 28.8783 123.644 26.9881 120.209 26.9881V26.9834Z" fill="white"/>
<path d="M146.026 33.8145C146.063 34.0467 146.182 34.5488 146.452 35.1268C147.764 37.9075 150.853 38.1776 151.701 38.1776C153.478 38.1776 154.98 37.4054 155.444 37.0596C155.828 36.7895 156.179 36.4437 156.292 36.3253L165.787 36.7895C165.403 37.5617 164.588 38.9498 162.854 40.262C162.584 40.4941 161.812 41.0342 160.883 41.4984C157.178 43.2749 152.237 43.3507 151.275 43.3507C146.874 43.3507 141.705 42.3464 138.729 38.7176C137.881 37.6754 136.607 35.7473 136.607 32.4265C136.607 31.3464 136.763 28.6841 138.653 26.2917C139.464 25.2874 140.35 24.6337 140.738 24.3637C142.899 22.8572 145.68 21.7013 151.351 21.7392C155.672 21.7392 160.267 22.3929 163.432 25.7138C164.01 26.3296 165.285 27.7982 165.901 30.0768C166.247 31.3512 166.285 32.507 166.327 33.8193H146.026V33.8145ZM151.545 26.9834C150.929 26.9834 148.612 27.0213 147.182 28.722C146.717 29.2999 146.604 29.6078 146.334 30.2663H156.757C156.255 28.8783 154.98 26.9881 151.545 26.9881V26.9834Z" fill="white"/>
<path d="M180.299 36.9791H193.655V42.7681H167.796V36.9412L181.266 28.0257H168.838V22.3125H193.774V28.0636L180.304 36.9791H180.299Z" fill="white"/>
<path d="M215.307 42.7691C215.075 41.8406 215.037 41.7649 214.961 40.7984C213.573 41.4143 209.555 43.3471 204.808 43.3471C198.17 43.3471 195.816 39.9505 195.816 36.786C195.816 36.2838 195.891 34.6636 196.858 33.3514C198.014 31.7313 200.179 31.0349 200.639 30.9212C204.149 29.879 211.214 29.8032 214.805 29.7227C214.805 29.0689 214.767 28.6047 214.378 28.0646C213.492 26.9466 211.64 26.8282 210.403 26.8282C209.167 26.8282 206.774 26.9845 205.812 27.9841C205.58 28.2162 205.542 28.3725 205.429 28.6805H196.668C196.863 27.5625 197.322 24.7438 200.26 23.2373C202.074 22.3088 205.315 21.6172 210.1 21.6172C210.835 21.6172 214.54 21.6172 217.51 22.1951C218.05 22.3088 220.481 22.6594 221.987 24.2037C223.802 26.0181 223.646 28.3347 223.646 29.1068V39.7989C223.646 41.6133 224.029 42.0775 224.764 42.7691H215.307ZM208.864 33.7399C207.049 33.8962 206.045 34.0857 205.467 34.7821C205.31 34.9384 205.04 35.3221 205.04 35.9001C205.04 36.3643 205.234 36.6723 205.31 36.786C205.737 37.4397 206.585 37.9418 208.205 37.9418C208.939 37.9418 210.673 37.7855 212.45 36.8239C212.644 36.7102 213.417 36.2838 213.957 35.668C214.573 34.9716 214.729 34.3178 214.923 33.3893C212.914 33.5078 210.872 33.5456 208.864 33.7351V33.7399Z" fill="white"/>
<path d="M241.512 29.8398C241.048 29.8398 240.583 29.8777 240.162 29.9156C239.697 29.9535 237.693 30.1099 236.921 31.73C236.613 32.3459 236.575 32.9664 236.575 33.6202V42.7679H227.507V22.3123H236.618V25.5526C238.124 23.1982 240.631 22.3881 241.522 22.156C242.024 22.0375 242.602 21.9617 243.682 21.9238V29.9914C242.948 29.9156 242.256 29.8351 241.522 29.8351L241.512 29.8398Z" fill="white"/>
<path d="M262.894 42.7684V40.7598C262.16 41.2998 261.89 41.494 261.425 41.7262C260.497 42.2283 258.147 43.2326 255.171 43.2326C251.466 43.2326 249.036 41.7262 247.913 40.8403C247.335 40.3381 246.406 39.4902 245.596 37.87C244.748 36.2499 244.322 34.4355 244.322 32.6211C244.322 31.6547 244.478 28.9166 246.06 26.4058C247.179 24.6293 249.922 21.6211 255.323 21.659C259.492 21.659 261.501 23.2792 262.889 24.3593V15.5195H272V42.7684H262.889H262.894ZM262.51 30.3425C262.046 29.3382 260.89 27.8365 258.227 27.8365C255.408 27.8365 253.442 29.4945 253.442 32.4269C253.442 32.8106 253.442 33.5828 253.826 34.5113C254.56 36.2878 256.256 37.2115 258.147 37.2115C260.966 37.2115 262.894 35.2029 262.894 32.4269C262.894 32.1189 262.894 31.1905 262.51 30.3425Z" fill="white"/>
</svg>
