<svg width="210" height="100" viewBox="0 0 210 100" fill="none" xmlns="http://www.w3.org/2000/svg">
<path d="M130.076 4.41697C130.68 6.14826 131.841 7.31762 132.671 7.02881C133.501 6.74 133.685 5.10238 133.082 3.3711C132.478 1.63981 131.316 0.470455 130.487 0.759264C129.657 1.04807 129.473 2.68569 130.076 4.41697Z" fill="#B7B7B7"/>
<path d="M107.568 4.78666C108.98 3.41926 109.623 1.79334 109.004 1.15507C108.385 0.516803 106.739 1.10788 105.327 2.47528C103.915 3.84268 103.272 5.46859 103.891 6.10686C104.51 6.74513 106.156 6.15406 107.568 4.78666Z" fill="#B7B7B7"/>
<path d="M125.717 4.33769C126.551 3.49826 126.745 2.33985 126.151 1.7503C125.557 1.16075 124.399 1.36332 123.565 2.20274C122.731 3.04217 122.537 4.20058 123.131 4.79013C123.725 5.37968 124.882 5.17711 125.717 4.33769Z" fill="#B7B7B7"/>
<path d="M144.748 10.251C146.547 11.7018 148.576 12.1711 149.28 11.2993C149.984 10.4274 149.096 8.54454 147.297 7.09373C145.498 5.64291 143.469 5.17357 142.765 6.04542C142.061 6.91726 142.949 8.80015 144.748 10.251Z" fill="#B7B7B7"/>
<path d="M116.498 8.50349C115.552 9.47511 115.433 10.8919 116.232 11.668C117.03 12.4441 118.444 12.2856 119.39 11.314C120.335 10.3423 120.454 8.92554 119.656 8.14945C118.857 7.37336 117.443 7.53187 116.498 8.50349Z" fill="#B7B7B7"/>
<path d="M104.93 15.4967C106.56 14.5142 107.269 12.7046 106.515 11.4548C105.761 10.2051 103.828 9.98843 102.198 10.971C100.568 11.9535 99.8584 13.7631 100.613 15.0129C101.367 16.2626 103.3 16.4793 104.93 15.4967Z" fill="#B7B7B7"/>
<path d="M127.274 14.9224C127.27 17.2699 129.009 19.1759 131.157 19.1796C133.305 19.1834 135.05 17.2834 135.054 14.936C135.058 12.5885 133.32 10.6825 131.172 10.6788C129.023 10.675 127.279 12.575 127.274 14.9224Z" fill="#B7B7B7"/>
<path d="M148.483 20.6692C146.746 20.626 145.137 19.4726 144.559 17.8025C143.909 15.9244 145.454 14.6526 147.244 14.987C148.799 15.2781 149.902 16.1249 150.553 17.5273C151.396 19.343 150.436 20.7156 148.483 20.6692Z" fill="#B7B7B7"/>
<path d="M121.594 16.2187C121.082 16.8814 121.119 17.7685 121.678 18.2002C122.237 18.6319 123.106 18.4446 123.618 17.7819C124.131 17.1193 124.093 16.2321 123.534 15.8004C122.976 15.3687 122.107 15.556 121.594 16.2187Z" fill="#B7B7B7"/>
<path d="M114.449 20.6476C115.943 19.7573 116.586 18.0821 115.884 16.9058C115.183 15.7295 113.402 15.4977 111.908 16.388C110.413 17.2783 109.771 18.9536 110.472 20.1298C111.174 21.3061 112.954 21.5379 114.449 20.6476Z" fill="#B7B7B7"/>
<path d="M155.797 20.4236C156.664 21.4444 157.848 21.8634 158.443 21.3593C159.037 20.8553 158.817 19.6192 157.951 18.5984C157.085 17.5775 155.9 17.1586 155.306 17.6626C154.711 18.1666 154.931 19.4027 155.797 20.4236Z" fill="#B7B7B7"/>
<path d="M99.9145 20.6863C99.0952 22.1881 99.5976 24.0411 101.037 24.8252C102.476 25.6093 104.307 25.0275 105.126 23.5258C105.945 22.024 105.443 20.171 104.004 19.3869C102.565 18.6028 100.734 19.1846 99.9145 20.6863Z" fill="#B7B7B7"/>
<path d="M78.5369 23.0898C79.7393 22.5674 80.4168 21.4608 80.0501 20.6181C79.6835 19.7755 78.4116 19.5159 77.2093 20.0384C76.0069 20.5608 75.3294 21.6675 75.6961 22.5101C76.0627 23.3527 77.3346 23.6123 78.5369 23.0898Z" fill="#B7B7B7"/>
<path d="M92.4538 21.8543C93.1633 21.5312 93.5483 20.8521 93.3137 20.3376C93.079 19.8231 92.3136 19.6679 91.6041 19.9911C90.8945 20.3142 90.5095 20.9933 90.7442 21.5078C90.9788 22.0223 91.7442 22.1775 92.4538 21.8543Z" fill="#B7B7B7"/>
<path d="M136.802 26.8722C138.762 26.8757 140.353 25.6601 140.356 24.1573C140.358 22.6545 138.772 21.4334 136.812 21.43C134.852 21.4266 133.261 22.6421 133.258 24.1449C133.255 25.6478 134.842 26.8688 136.802 26.8722Z" fill="#B7B7B7"/>
<path d="M117.739 24.9611C117.324 26.6352 117.943 28.2283 119.12 28.5195C120.298 28.8107 121.588 27.6897 122.003 26.0156C122.417 24.3415 121.799 22.7483 120.621 22.4571C119.444 22.1659 118.153 23.287 117.739 24.9611Z" fill="#B7B7B7"/>
<path d="M83.6634 30.2375C85.3176 30.6101 86.9265 29.7236 87.2571 28.2575C87.5878 26.7915 86.5148 25.301 84.8606 24.9285C83.2064 24.5559 81.5975 25.4424 81.2669 26.9084C80.9363 28.3745 82.0092 29.865 83.6634 30.2375Z" fill="#B7B7B7"/>
<path d="M163.135 28.4822C162.115 31.7201 157.142 31.3393 157.474 27.716C157.611 26.24 158.455 25.3297 160.007 24.9853C162.115 24.5182 163.783 26.425 163.135 28.4822Z" fill="#B7B7B7"/>
<path d="M96.5818 30.9031C98.1702 30.9363 99.4834 29.7388 99.5151 28.2284C99.5468 26.7179 98.2848 25.4665 96.6965 25.4332C95.1082 25.4 93.7949 26.5975 93.7632 28.108C93.7316 29.6184 94.9935 30.8698 96.5818 30.9031Z" fill="#B7B7B7"/>
<path d="M149.022 33.2638C151.533 33.2463 153.556 31.529 153.541 29.4281C153.527 27.3272 151.479 25.6383 148.969 25.6558C146.458 25.6733 144.435 27.3906 144.449 29.4915C144.464 31.5924 146.511 33.2814 149.022 33.2638Z" fill="#B7B7B7"/>
<path d="M107.891 31.0744C109.388 32.1494 111.297 32.053 112.156 30.8591C113.014 29.6652 112.497 27.826 111 26.751C109.503 25.6761 107.593 25.7725 106.735 26.9664C105.877 28.1603 106.394 29.9995 107.891 31.0744Z" fill="#B7B7B7"/>
<path d="M127.343 33.7774C128.048 35.2474 129.765 35.8908 131.178 35.2143C132.59 34.5379 133.164 32.7978 132.459 31.3278C131.755 29.8577 130.038 29.2144 128.625 29.8908C127.212 30.5673 126.639 32.3074 127.343 33.7774Z" fill="#B7B7B7"/>
<path d="M171.084 32.4842C171.775 32.2409 172.207 31.6775 172.048 31.2259C171.888 30.7742 171.199 30.6053 170.508 30.8486C169.817 31.0918 169.385 31.6552 169.544 32.1069C169.703 32.5585 170.393 32.7275 171.084 32.4842Z" fill="#B7B7B7"/>
<path d="M91.1361 36.5057C92.6887 37.7667 94.6538 37.9201 95.5253 36.8485C96.3967 35.7768 95.8446 33.8859 94.292 32.6249C92.7393 31.364 90.7742 31.2105 89.9028 32.2822C89.0313 33.3538 89.5835 35.2448 91.1361 36.5057Z" fill="#B7B7B7"/>
<path d="M114.396 38.0401C116.088 39.8026 118.586 40.1513 119.976 38.8188C121.367 37.4863 121.123 34.9773 119.432 33.2148C117.74 31.4523 115.242 31.1036 113.852 32.4361C112.461 33.7686 112.705 36.2776 114.396 38.0401Z" fill="#B7B7B7"/>
<path d="M137.788 33.3093C137.026 34.6653 137.453 36.3499 138.74 37.072C140.028 37.794 141.689 37.2801 142.45 35.9241C143.212 34.568 142.785 32.8834 141.498 32.1614C140.21 31.4393 138.549 31.9532 137.788 33.3093Z" fill="#B7B7B7"/>
<path d="M165.983 35.4825C166.775 34.8415 167.023 33.8359 166.538 33.2365C166.052 32.637 165.016 32.6708 164.224 33.3119C163.432 33.953 163.183 34.9586 163.669 35.558C164.155 36.1574 165.191 36.1236 165.983 35.4825Z" fill="#B7B7B7"/>
<path d="M101.546 38.998C103.287 40.5215 105.583 40.7472 106.674 39.5022C107.765 38.2571 107.237 36.0126 105.495 34.4891C103.754 32.9655 101.458 32.7398 100.367 33.9849C99.2767 35.23 99.8042 37.4744 101.546 38.998Z" fill="#B7B7B7"/>
<path d="M156.521 37.1299C157.892 36.5341 158.652 35.2433 158.218 34.2467C157.785 33.2502 156.322 32.9252 154.951 33.5209C153.58 34.1167 152.82 35.4075 153.254 36.4041C153.687 37.4006 155.15 37.7256 156.521 37.1299Z" fill="#B7B7B7"/>
<path d="M76.6892 36.4988C77.3355 36.8553 78.0914 36.7242 78.3777 36.206C78.664 35.6878 78.3721 34.9786 77.7258 34.6221C77.0796 34.2656 76.3236 34.3967 76.0373 34.9149C75.7511 35.4331 76.0429 36.1422 76.6892 36.4988Z" fill="#B7B7B7"/>
<path d="M167.088 39.1293C166.792 38.6093 167.149 38.139 167.61 37.8431C169.5 36.6337 171.686 35.9336 174.167 35.7427C174.863 35.6883 175.88 35.6019 176.171 36.3745C176.374 36.9121 176.01 37.2576 175.563 37.5407C173.697 38.7235 171.581 39.4236 169.214 39.6412C168.51 39.7051 167.479 39.8155 167.088 39.1293Z" fill="#B7B7B7"/>
<path d="M86.9086 41.5541C89.2177 42.735 91.5043 42.8825 92.0157 41.8837C92.5272 40.8848 91.0699 39.1178 88.7608 37.937C86.4517 36.7561 84.1652 36.6086 83.6537 37.6074C83.1423 38.6063 84.5995 40.3733 86.9086 41.5541Z" fill="#B7B7B7"/>
<path d="M162.498 40.5776C163.219 40.264 163.626 39.6013 163.407 39.0974C163.188 38.5934 162.425 38.4391 161.703 38.7526C160.982 39.0661 160.575 39.7289 160.794 40.2328C161.013 40.7368 161.776 40.8911 162.498 40.5776Z" fill="#B7B7B7"/>
<path d="M147.67 43.9764C149.08 42.907 149.519 41.113 148.65 39.9695C147.782 38.8259 145.935 38.7658 144.525 39.8352C143.115 40.9046 142.676 42.6985 143.545 43.8421C144.413 44.9857 146.26 45.0458 147.67 43.9764Z" fill="#B7B7B7"/>
<path d="M155.452 42.8568C156.653 42.335 157.327 41.2237 156.957 40.3746C156.588 39.5255 155.315 39.2601 154.114 39.7819C152.914 40.3036 152.24 41.4149 152.609 42.264C152.979 43.1131 154.251 43.3785 155.452 42.8568Z" fill="#B7B7B7"/>
<path d="M122.867 44.0612C123.842 45.2857 125.488 45.598 126.544 44.7588C127.599 43.9195 127.665 42.2464 126.691 41.0219C125.716 39.7974 124.07 39.4851 123.014 40.3243C121.958 41.1636 121.892 42.8367 122.867 44.0612Z" fill="#B7B7B7"/>
<path d="M136.652 42.2688C137.274 41.8864 137.521 41.1579 137.203 40.6417C136.885 40.1255 136.123 40.017 135.501 40.3994C134.879 40.7818 134.633 41.5103 134.951 42.0265C135.268 42.5427 136.03 42.6512 136.652 42.2688Z" fill="#B7B7B7"/>
<path d="M100.348 48.0145C103.006 49.7998 105.866 50.2002 106.734 48.9088C107.602 47.6174 106.151 45.1233 103.492 43.338C100.834 41.5527 97.9748 41.1523 97.1065 42.4437C96.2381 43.7351 97.6894 46.2292 100.348 48.0145Z" fill="#B7B7B7"/>
<path d="M112.178 49.1257C110.724 47.8187 108.686 45.3744 110.756 43.5059C112.48 41.9542 113.934 43.6515 114.633 45.136C115.883 47.7915 117.692 50.4583 120.002 52.2899C124.768 56.0717 130.982 56.8171 136.733 54.9663C137.98 54.5653 138.968 54.1691 139.699 53.7777C141.371 52.8786 142.458 51.6005 143.687 50.1863C144.617 49.1161 145.382 49.0921 146.435 50.0551C148.43 51.8788 143.067 54.3328 142.064 54.8959C139.338 56.422 137.146 58.3481 135.309 60.882C134.476 62.0306 134.27 62.8976 134.569 64.2414C134.72 64.9207 135.144 65.3047 135.843 65.3932C143.097 66.3018 150.376 66.9188 157.681 67.2441C159.625 67.3315 160.842 67.3512 161.331 67.3033C161.699 67.2681 162.01 67.3246 162.264 67.4728C162.31 67.4995 162.359 67.5117 162.413 67.5096C163.091 67.492 163.772 67.7128 164.346 67.7496C167.737 67.9719 171.116 68.2455 174.503 68.527C174.708 68.543 175.059 68.4391 175.27 68.591C175.285 68.6023 175.297 68.6182 175.303 68.6364C175.309 68.6546 175.309 68.6742 175.303 68.6924C175.297 68.7107 175.286 68.7266 175.27 68.738C175.255 68.7493 175.236 68.7556 175.217 68.7558C155.644 68.7505 136.131 68.7505 116.679 68.7558C115.703 68.7569 114.635 68.7675 113.477 68.7878C107.88 68.8902 102.352 68.8166 96.6887 69.0469C93.2631 69.1845 89.8454 69.1013 86.4134 69.2677C83.7289 69.3989 81.0781 69.3461 78.4112 69.4021C78.1103 69.4085 77.7261 69.594 77.3355 69.5924C76.5234 69.5892 75.7113 69.5791 74.8991 69.5621C74.8319 69.561 74.8138 69.5301 74.8447 69.4693C74.8725 69.417 74.9322 69.3861 75.024 69.3765C75.397 69.3381 75.7491 69.3813 76.1173 69.2853C76.8521 69.0949 77.6717 69.1701 78.2687 69.1045C83.7348 68.502 89.2115 68.0258 94.6989 67.676C95.6162 67.6168 97.0697 67.2953 98.3215 67.3113C99.6597 67.3288 100.815 67.1817 102.423 67.1049C106.677 66.9012 111.45 66.4922 116.74 65.8779C118.386 65.6859 119.322 65.5564 119.546 65.4892C121.091 65.0205 122.374 63.9295 122.275 62.1282C122.07 58.3976 120.252 55.8125 117.348 53.5153C115.733 52.2377 114.01 50.7745 112.178 49.1257Z" fill="white"/>
<path d="M80.0826 44.2495C79.7049 43.9295 79.4578 43.5685 79.3415 43.1665C79.3338 43.1402 79.3364 43.1119 79.349 43.0875C79.3615 43.0631 79.3828 43.0444 79.4087 43.0353C81.2416 42.4066 85.546 45.4701 86.9323 46.6426C87.1692 46.8426 87.5406 47.2393 87.6526 47.4073C87.9231 47.8072 87.5502 48.3 87.0411 48.14C84.5301 47.3529 82.2106 46.0561 80.0826 44.2495Z" fill="#B7B7B7"/>
<path d="M157.375 48.1146C159.664 47.0333 161.152 45.3796 160.699 44.4211C160.245 43.4626 158.022 43.5622 155.733 44.6436C153.444 45.7249 151.956 47.3786 152.409 48.3371C152.862 49.2956 155.086 49.196 157.375 48.1146Z" fill="#B7B7B7"/>
<path d="M90.8073 46.7693C90.3495 46.3566 89.6435 45.7487 89.6035 45.1504C89.5427 44.2098 91.3868 44.6257 91.9438 44.8161C94.5733 45.7183 96.864 47.1533 98.8159 49.1209C99.6611 49.972 99.0128 50.8806 97.8682 50.5911C95.2569 49.933 92.9032 48.6591 90.8073 46.7693Z" fill="#B7B7B7"/>
<path d="M31.1087 80.4631C24.4928 77.286 20.6269 71.0311 20.763 63.6964C20.9167 55.4179 26.8731 48.2496 34.9986 46.6659C40.6668 45.5621 46.3031 46.8338 50.5611 50.8027C51.4533 51.6346 52.3476 52.6168 53.244 53.7494C53.8571 54.5221 53.4633 54.7444 52.8966 55.3923C52.2969 56.0781 51.7126 56.7766 51.1438 57.4879C50.9629 57.7151 50.6796 57.8239 50.5035 57.5295C45.5236 49.1998 34.3406 48.1856 27.9776 55.5859C24.9314 59.1277 24.067 64.2499 25.5125 68.6348C26.8491 72.6852 29.8713 75.7423 33.8812 77.2764C33.9252 77.2936 33.9644 77.3211 33.9955 77.3566C34.0266 77.3921 34.0487 77.4345 34.0598 77.4802C34.071 77.5259 34.0709 77.5736 34.0596 77.6192C34.0483 77.6647 34.0261 77.7069 33.9949 77.7419C33.282 78.5429 32.5846 79.3742 31.9027 80.2359C31.7026 80.4887 31.4048 80.6054 31.1087 80.4631Z" fill="#FEC802"/>
<path d="M130.194 54.028C132.114 54.028 133.669 52.4731 133.669 50.555C133.669 48.6369 132.114 47.082 130.194 47.082C128.275 47.082 126.719 48.6369 126.719 50.555C126.719 52.4731 128.275 54.028 130.194 54.028Z" fill="white"/>
<path d="M9.09666 78.6294C10.9599 76.7609 12.6242 74.7357 14.0894 72.5537C15.0131 71.1763 15.5765 69.7014 15.8999 68.1529C16.5722 64.9406 15.4229 61.3973 12.018 60.3543C8.82453 59.3768 5.13798 60.4966 2.65521 62.6403C2.61463 62.6752 2.56633 62.7 2.51429 62.7126C2.46224 62.7252 2.40795 62.7252 2.35588 62.7127C2.30381 62.7002 2.25546 62.6755 2.21483 62.6407C2.17419 62.6058 2.14242 62.5618 2.12215 62.5123C1.79133 61.705 1.43223 60.9067 1.04484 60.1175C0.873027 59.7666 0.958934 59.4616 1.30256 59.2025C7.4863 54.5345 18.9125 54.6145 20.5037 64.1216C21.4049 69.4998 18.3955 74.1502 14.9795 77.9687C12.4097 80.8429 9.64732 83.5853 6.69232 86.1961C6.6747 86.2116 6.66054 86.2307 6.65075 86.2521C6.64096 86.2735 6.63575 86.2968 6.63545 86.3204C6.63515 86.344 6.63977 86.3675 6.64901 86.3893C6.65824 86.4112 6.6719 86.4309 6.68912 86.4472C6.87801 86.6264 7.13413 86.5112 7.29741 86.5112C11.8201 86.5091 16.3428 86.5091 20.8654 86.5112C21.6642 86.5112 21.549 87.0055 21.5298 87.6582C21.5074 88.3973 21.5132 89.1102 21.5474 89.797C21.5511 89.8684 21.5402 89.9398 21.5155 90.0068C21.4908 90.0738 21.4527 90.1351 21.4036 90.1869C21.3544 90.2387 21.2953 90.2799 21.2297 90.308C21.1642 90.3362 21.0936 90.3506 21.0223 90.3505C14.3375 90.3516 7.64157 90.3462 0.934389 90.3345C-0.0500782 90.3313 0.0555715 89.6834 0.00594798 88.8628C-0.0484779 87.968 0.270606 87.1937 0.963202 86.54C3.71437 83.9431 6.42553 81.3063 9.09666 78.6294Z" fill="#FEC802"/>
<path d="M35.2576 60.6405C35.2468 60.6334 35.2375 60.6242 35.2303 60.6134C35.2231 60.6026 35.2183 60.5905 35.216 60.5777C35.2138 60.5649 35.2142 60.5519 35.2172 60.5393C35.2202 60.5267 35.2258 60.5148 35.2336 60.5045C35.6786 59.9265 36.2074 59.8779 36.82 60.3589C36.8392 60.3735 36.8624 60.3818 36.8864 60.3826C36.9105 60.3835 36.9343 60.3769 36.9544 60.3637L37.4347 60.0518C37.4523 60.0406 37.4729 60.0352 37.4936 60.0364C37.5143 60.0375 37.534 60.0451 37.5499 60.0582L37.7612 60.2326C37.7943 60.2603 37.7986 60.2917 37.774 60.3269C36.916 61.5635 36.2005 60.0518 35.637 60.778C35.5997 60.825 35.5559 60.8324 35.5057 60.8004L35.2576 60.6405Z" fill="white"/>
<path d="M44.2099 63.9316C44.2089 64.2064 44.1538 64.4783 44.0477 64.7318C43.9416 64.9853 43.7866 65.2154 43.5915 65.4091C43.3963 65.6027 43.165 65.756 42.9106 65.8603C42.6562 65.9646 42.3837 66.0177 42.1088 66.0168L41.4493 66.0145C40.894 66.0125 40.3622 65.7902 39.9709 65.3964C39.5796 65.0027 39.3609 64.4697 39.3628 63.9147L39.3654 63.1789C39.3663 62.9041 39.4214 62.6322 39.5275 62.3787C39.6337 62.1252 39.7887 61.8951 39.9838 61.7015C40.1789 61.5078 40.4102 61.3545 40.6646 61.2502C40.919 61.146 41.1915 61.0928 41.4665 61.0938L42.126 61.0961C42.6813 61.098 43.2131 61.3203 43.6044 61.7141C43.9956 62.1079 44.2144 62.6408 44.2124 63.1958L44.2099 63.9316ZM43.5495 63.2639C43.5502 63.0622 43.5112 62.8624 43.4346 62.6758C43.358 62.4892 43.2454 62.3195 43.1032 62.1764C42.961 62.0333 42.792 61.9196 42.6058 61.8418C42.4197 61.7639 42.22 61.7235 42.0182 61.7228L41.554 61.7212C41.1464 61.7198 40.755 61.8802 40.4658 62.1672C40.1766 62.4542 40.0133 62.8442 40.0119 63.2515L40.0097 63.8754C40.009 64.0771 40.048 64.2769 40.1246 64.4635C40.2012 64.6501 40.3138 64.8198 40.456 64.9629C40.5982 65.106 40.7672 65.2197 40.9534 65.2976C41.1396 65.3754 41.3393 65.4158 41.5411 65.4165L42.0053 65.4181C42.4128 65.4195 42.8043 65.2591 43.0935 64.9721C43.3827 64.6851 43.5459 64.2951 43.5473 63.8878L43.5495 63.2639Z" fill="white"/>
<path d="M47.7214 64.1287C47.0827 63.5672 45.2578 63.9431 44.96 62.9609C44.2701 60.6845 47.0843 60.9037 48.2704 61.4428C48.2867 61.4503 48.3013 61.4613 48.3131 61.4748C48.3248 61.4884 48.3336 61.5042 48.3387 61.5213C48.3439 61.5385 48.3453 61.5564 48.3429 61.574C48.3405 61.5917 48.3344 61.6085 48.3248 61.6235L48.0799 62.0043C48.0522 62.048 48.0154 62.0576 47.9695 62.0331C47.4524 61.7547 45.7604 61.3372 45.5219 62.1978C45.1938 63.3752 47.6621 63.0985 48.2816 63.7144C48.7763 64.2055 48.7202 65.1445 48.2128 65.5844C47.3356 66.3475 45.5827 66.0179 44.6623 65.5012C44.6508 65.4948 44.6408 65.486 44.633 65.4754C44.6251 65.4648 44.6196 65.4526 44.6168 65.4397C44.6139 65.4267 44.6138 65.4133 44.6164 65.4002C44.619 65.3871 44.6243 65.3746 44.6319 65.3637L44.8784 65.0229C44.9083 64.9813 44.9456 64.9733 44.9905 64.9989C45.7386 65.4191 46.5229 65.5439 47.3436 65.3733C47.9631 65.2437 48.2064 64.5542 47.7214 64.1287Z" fill="white"/>
<path d="M32.6472 64.9531H30.4301C30.364 64.9531 30.3186 64.9846 30.2941 65.0475L29.9723 65.8682C29.951 65.9247 29.9093 65.9529 29.8474 65.9529H29.4152C29.332 65.9529 29.3059 65.9146 29.3368 65.8378L31.1216 61.3554C31.1549 61.2714 31.2126 61.1994 31.2873 61.1486C31.3619 61.0977 31.4502 61.0705 31.5405 61.0703C31.6308 61.0701 31.7192 61.0971 31.794 61.1476C31.8689 61.1981 31.9269 61.27 31.9604 61.3538L33.7549 65.8426C33.7848 65.9162 33.7597 65.9529 33.6797 65.9529H33.225C33.1589 65.9529 33.1135 65.922 33.089 65.8602L32.7704 65.0379C32.7491 64.9814 32.708 64.9531 32.6472 64.9531ZM30.5886 64.286C30.5855 64.2941 30.5843 64.3028 30.5853 64.3113C30.5863 64.3199 30.5894 64.3281 30.5943 64.3352C30.5992 64.3423 30.6058 64.3481 30.6134 64.3521C30.6211 64.3561 30.6296 64.3581 30.6382 64.358L32.4263 64.3484C32.4349 64.3485 32.4434 64.3465 32.4511 64.3425C32.4587 64.3385 32.4653 64.3327 32.4702 64.3256C32.4751 64.3185 32.4782 64.3103 32.4792 64.3017C32.4801 64.2932 32.479 64.2845 32.4759 64.2765L31.5699 62.0288C31.5661 62.0187 31.5594 62.0099 31.5505 62.0037C31.5416 61.9975 31.5311 61.9942 31.5202 61.9942C31.5094 61.9942 31.4988 61.9975 31.49 62.0037C31.4811 62.0099 31.4743 62.0187 31.4706 62.0288L30.5886 64.286Z" fill="white"/>
<path d="M35.1105 62.2533V65.9006C35.1105 65.9146 35.105 65.9281 35.0951 65.938C35.0852 65.9479 35.0717 65.9534 35.0577 65.9534H34.5631C34.5491 65.9534 34.5356 65.9479 34.5257 65.938C34.5158 65.9281 34.5103 65.9146 34.5103 65.9006V61.2071C34.5103 61.1931 34.5158 61.1797 34.5257 61.1698C34.5356 61.1599 34.5491 61.1543 34.5631 61.1543H35.165C35.1734 61.1543 35.1818 61.1563 35.1893 61.1602C35.1968 61.1641 35.2033 61.1698 35.2082 61.1767L37.779 64.7105C37.7855 64.7198 37.7949 64.7267 37.8057 64.7303C37.8165 64.7338 37.8282 64.7338 37.839 64.7302C37.8497 64.7266 37.8591 64.7197 37.8656 64.7103C37.8721 64.701 37.8754 64.6898 37.875 64.6785L37.8702 61.2071C37.8702 61.1931 37.8758 61.1797 37.8857 61.1698C37.8956 61.1599 37.9091 61.1543 37.9231 61.1543H38.4593C38.4733 61.1543 38.4868 61.1599 38.4967 61.1698C38.5066 61.1797 38.5122 61.1931 38.5122 61.2071V65.9006C38.5122 65.9146 38.5066 65.9281 38.4967 65.938C38.4868 65.9479 38.4733 65.9534 38.4593 65.9534H37.9439C37.9354 65.9534 37.9271 65.9514 37.9195 65.9475C37.912 65.9436 37.9055 65.938 37.9007 65.931L35.2066 62.2213C35.2001 62.212 35.1907 62.2051 35.1799 62.2015C35.1691 62.1979 35.1574 62.1979 35.1466 62.2015C35.1358 62.2051 35.1265 62.2121 35.12 62.2214C35.1135 62.2308 35.1102 62.2419 35.1105 62.2533Z" fill="white"/>
<path d="M168.934 95.8778L167.442 99.6547C167.436 99.6696 167.426 99.6825 167.413 99.6916C167.4 99.7007 167.384 99.7057 167.368 99.7059H162.388C162.375 99.706 162.362 99.7029 162.351 99.6969C162.339 99.6909 162.329 99.6821 162.322 99.6714C162.314 99.6607 162.31 99.6483 162.308 99.6354C162.307 99.6224 162.308 99.6093 162.313 99.5971L171.729 75.9614C171.734 75.9462 171.745 75.9332 171.758 75.924C171.772 75.9149 171.788 75.9101 171.804 75.9102H177.018C177.034 75.9099 177.049 75.9145 177.063 75.9234C177.076 75.9322 177.087 75.9449 177.093 75.9598L186.572 99.5955C186.578 99.6078 186.579 99.6211 186.578 99.6343C186.577 99.6474 186.572 99.66 186.565 99.671C186.557 99.6819 186.547 99.6908 186.535 99.6969C186.524 99.703 186.51 99.7061 186.497 99.7059H181.194C181.178 99.7057 181.162 99.7007 181.149 99.6916C181.136 99.6825 181.126 99.6696 181.12 99.6547L179.633 95.8778C179.627 95.8629 179.617 95.8501 179.604 95.8409C179.591 95.8318 179.576 95.8268 179.56 95.8266H169.007C168.991 95.8268 168.976 95.8318 168.963 95.8409C168.95 95.8501 168.939 95.8629 168.934 95.8778ZM170.648 91.4306C170.645 91.4392 170.643 91.4484 170.644 91.4576C170.645 91.4668 170.649 91.4755 170.654 91.4831C170.659 91.4907 170.666 91.4969 170.674 91.5011C170.683 91.5054 170.692 91.5075 170.701 91.5074H177.866C177.875 91.5075 177.884 91.5054 177.892 91.5011C177.901 91.4969 177.908 91.4907 177.913 91.4831C177.918 91.4755 177.921 91.4668 177.922 91.4576C177.923 91.4484 177.922 91.4392 177.919 91.4306L174.336 82.325C174.332 82.3141 174.325 82.3046 174.316 82.298C174.306 82.2913 174.295 82.2877 174.283 82.2877C174.272 82.2877 174.261 82.2913 174.251 82.298C174.242 82.3046 174.234 82.3141 174.231 82.325L170.648 91.4306Z" fill="#1DA4FF"/>
<path d="M45.6211 95.1489H58.1358C58.1532 95.1489 58.1699 95.1558 58.1822 95.1681C58.1945 95.1804 58.2015 95.1971 58.2015 95.2144V99.6425C58.2015 99.6599 58.1945 99.6765 58.1822 99.6888C58.1699 99.7011 58.1532 99.708 58.1358 99.708H40.3386C40.3212 99.708 40.3045 99.7011 40.2922 99.6888C40.2799 99.6765 40.2729 99.6599 40.2729 99.6425V76.1378C40.2729 76.1205 40.2799 76.1038 40.2922 76.0915C40.3045 76.0792 40.3212 76.0723 40.3386 76.0723H58.0158C58.0332 76.0723 58.0499 76.0792 58.0622 76.0915C58.0745 76.1038 58.0814 76.1205 58.0814 76.1378V80.7658C58.0814 80.7832 58.0745 80.7999 58.0622 80.8122C58.0499 80.8245 58.0332 80.8314 58.0158 80.8314H45.6211C45.6037 80.8314 45.587 80.8383 45.5747 80.8506C45.5624 80.8629 45.5555 80.8796 45.5555 80.897V85.325C45.5555 85.3424 45.5624 85.3591 45.5747 85.3714C45.587 85.3837 45.6037 85.3906 45.6211 85.3906H57.6956C57.713 85.3906 57.7297 85.3975 57.742 85.4098C57.7543 85.4221 57.7612 85.4388 57.7612 85.4562V89.9242C57.7612 89.9416 57.7543 89.9583 57.742 89.9706C57.7297 89.9829 57.713 89.9898 57.6956 89.9898H45.6211C45.6037 89.9898 45.587 89.9967 45.5747 90.009C45.5624 90.0213 45.5555 90.038 45.5555 90.0554V95.0833C45.5555 95.1007 45.5624 95.1174 45.5747 95.1297C45.587 95.142 45.6037 95.1489 45.6211 95.1489Z" fill="white"/>
<path d="M83.4695 84.2564L77.2953 99.5961C77.2822 99.6291 77.2595 99.6574 77.2301 99.6773C77.2007 99.6973 77.166 99.708 77.1305 99.708H73.3286C73.271 99.708 73.2315 99.6814 73.2102 99.6281L66.9992 84.1972C66.9976 84.1936 66.9948 84.1907 66.9913 84.1889C66.9878 84.1871 66.9838 84.1865 66.9799 84.1872C66.976 84.188 66.9725 84.19 66.9699 84.1929C66.9673 84.1959 66.9658 84.1997 66.9656 84.2036V99.6281C66.9656 99.6493 66.9572 99.6696 66.9422 99.6846C66.9272 99.6996 66.9068 99.708 66.8856 99.708H62.2834C62.2622 99.708 62.2418 99.6996 62.2268 99.6846C62.2118 99.6696 62.2034 99.6493 62.2034 99.6281V76.1523C62.2034 76.0989 62.23 76.0723 62.2834 76.0723H69.0386C69.0509 76.0724 69.0628 76.0761 69.0728 76.0829C69.0828 76.0898 69.0904 76.0995 69.0946 76.1107L75.4192 92.023C75.4234 92.0334 75.4306 92.0423 75.4398 92.0486C75.4491 92.0549 75.4601 92.0582 75.4713 92.0582C75.4825 92.0582 75.4934 92.0549 75.5027 92.0486C75.512 92.0423 75.5191 92.0334 75.5233 92.023L81.8223 76.1698C81.8335 76.1411 81.8533 76.1164 81.879 76.099C81.9047 76.0816 81.9352 76.0723 81.9664 76.0723H88.6159C88.6371 76.0723 88.6575 76.0807 88.6725 76.0957C88.6875 76.1107 88.6959 76.131 88.6959 76.1523V99.6281C88.6959 99.6814 88.6693 99.708 88.6159 99.708H83.6535C83.6217 99.708 83.5912 99.6954 83.5687 99.6729C83.5461 99.6504 83.5335 99.6199 83.5335 99.5881L83.5351 84.2692C83.5351 84.154 83.5132 84.1498 83.4695 84.2564Z" fill="white"/>
<path d="M98.5807 92.592V99.6291C98.5807 99.6503 98.5722 99.6707 98.5572 99.6857C98.5422 99.7007 98.5219 99.7091 98.5006 99.7091H93.4983C93.477 99.7091 93.4567 99.7007 93.4417 99.6857C93.4266 99.6707 93.4182 99.6503 93.4182 99.6291V76.1549C93.4182 76.1016 93.4444 76.0749 93.4966 76.0749C97.3033 76.0696 101.105 76.0723 104.902 76.0829C109.056 76.0957 113.242 77.0684 114.076 81.8643C114.702 85.4653 113.969 89.7973 110.38 91.4322C108.818 92.1446 107.035 92.5035 105.033 92.5088C102.912 92.5152 100.789 92.5147 98.6655 92.5072C98.6089 92.5072 98.5807 92.5355 98.5807 92.592ZM108.874 85.4413C109.349 82.3618 108.421 80.6197 105.142 80.6037C102.985 80.5931 100.825 80.5893 98.6623 80.5925C98.6079 80.5936 98.5807 80.6208 98.5807 80.6741V87.9096C98.5807 87.9608 98.6068 87.9869 98.6591 87.988C100.712 87.9965 102.766 87.996 104.819 87.9864C106.64 87.9768 108.544 87.5721 108.874 85.4413Z" fill="white"/>
<path d="M127.924 91.9089H122.832C122.811 91.9089 122.791 91.9173 122.776 91.9323C122.761 91.9473 122.752 91.9676 122.752 91.9889V99.6275C122.752 99.6487 122.744 99.6691 122.729 99.6841C122.714 99.6991 122.693 99.7075 122.672 99.7075H117.67C117.617 99.7075 117.59 99.6808 117.59 99.6275V76.1549C117.59 76.1048 117.615 76.0797 117.665 76.0797C121.703 76.0605 125.737 76.0621 129.765 76.0845C131.973 76.0957 134.731 76.6348 136.324 78.1289C138.294 79.9766 138.528 83.2208 138.123 85.75C137.676 88.5452 136.112 90.3854 133.431 91.2706C133.417 91.2752 133.404 91.2828 133.393 91.2929C133.382 91.303 133.374 91.3153 133.369 91.329C133.363 91.3426 133.361 91.3572 133.362 91.3718C133.363 91.3863 133.368 91.4004 133.375 91.413L137.94 99.6019C137.979 99.6723 137.958 99.7075 137.878 99.7075H132.438C132.413 99.7076 132.388 99.7009 132.367 99.6882C132.345 99.6756 132.327 99.6574 132.315 99.6355L128.052 91.9841C128.04 91.9613 128.021 91.9424 127.999 91.9292C127.976 91.9159 127.951 91.9089 127.924 91.9089ZM132.941 84.5918C133.229 81.7827 132.013 80.6053 129.274 80.5973C127.131 80.5898 124.984 80.5882 122.832 80.5925C122.779 80.5925 122.752 80.6192 122.752 80.6725V87.2665C122.752 87.289 122.761 87.3105 122.777 87.3264C122.792 87.3423 122.813 87.3513 122.836 87.3513C125.122 87.3545 127.412 87.3444 129.704 87.3209C131.598 87.3033 132.743 86.5178 132.941 84.5918Z" fill="white"/>
<path d="M147.601 95.1489H160.093C160.103 95.1489 160.113 95.1509 160.123 95.1547C160.132 95.1586 160.14 95.1642 160.147 95.1713C160.155 95.1785 160.16 95.187 160.164 95.1963C160.168 95.2056 160.17 95.2156 160.17 95.2256V99.6313C160.17 99.6516 160.162 99.6712 160.147 99.6856C160.133 99.7 160.114 99.708 160.093 99.708H142.318C142.298 99.708 142.278 99.7 142.264 99.6856C142.25 99.6712 142.241 99.6516 142.241 99.6313V76.149C142.241 76.139 142.243 76.129 142.247 76.1197C142.251 76.1104 142.257 76.1019 142.264 76.0948C142.271 76.0876 142.28 76.082 142.289 76.0781C142.298 76.0743 142.308 76.0723 142.318 76.0723H159.973C159.983 76.0723 159.993 76.0743 160.002 76.0781C160.012 76.082 160.02 76.0876 160.027 76.0948C160.035 76.1019 160.04 76.1104 160.044 76.1197C160.048 76.129 160.05 76.139 160.05 76.149V80.7546C160.05 80.775 160.042 80.7945 160.027 80.8089C160.013 80.8233 159.993 80.8314 159.973 80.8314H147.601C147.58 80.8314 147.561 80.8395 147.546 80.8539C147.532 80.8683 147.524 80.8878 147.524 80.9082V85.3138C147.524 85.3342 147.532 85.3537 147.546 85.3681C147.561 85.3825 147.58 85.3906 147.601 85.3906H159.653C159.673 85.3906 159.693 85.3987 159.707 85.4131C159.722 85.4275 159.73 85.447 159.73 85.4674V89.913C159.73 89.9334 159.722 89.9529 159.707 89.9673C159.693 89.9817 159.673 89.9898 159.653 89.9898H147.601C147.591 89.9898 147.581 89.9918 147.571 89.9956C147.562 89.9995 147.554 90.0051 147.546 90.0123C147.539 90.0194 147.534 90.0279 147.53 90.0372C147.526 90.0465 147.524 90.0565 147.524 90.0666V95.0721C147.524 95.0924 147.532 95.112 147.546 95.1264C147.561 95.1408 147.58 95.1489 147.601 95.1489Z" fill="white"/>
<path d="M199.638 91.9098H194.546C194.525 91.9098 194.505 91.9182 194.49 91.9332C194.475 91.9482 194.466 91.9686 194.466 91.9898V99.6284C194.466 99.6496 194.458 99.67 194.443 99.685C194.428 99.7 194.408 99.7084 194.386 99.7084H189.384C189.363 99.7084 189.342 99.7 189.327 99.685C189.312 99.67 189.304 99.6496 189.304 99.6284V76.1558C189.304 76.1068 189.328 76.0817 189.378 76.0806C194.326 76.0593 198.373 76.062 201.518 76.0886C205.081 76.1174 208.844 77.242 209.709 81.1933C210.116 83.0575 210.096 84.8737 209.648 86.6419C209.03 89.0815 207.409 90.4285 205.134 91.2795C205.068 91.304 205.052 91.3478 205.086 91.4107L209.672 99.6348C209.676 99.6424 209.678 99.6509 209.678 99.6595C209.678 99.6681 209.676 99.6765 209.671 99.6839C209.667 99.6914 209.661 99.6975 209.653 99.7018C209.646 99.7061 209.637 99.7084 209.629 99.7084H204.186C204.108 99.7084 204.05 99.6743 204.012 99.606L199.768 91.985C199.739 91.9349 199.696 91.9098 199.638 91.9098ZM203.72 81.3021C203.003 80.8137 202.172 80.57 201.226 80.571C198.986 80.5764 196.758 80.5865 194.54 80.6014C194.521 80.6014 194.502 80.6092 194.488 80.623C194.474 80.6368 194.466 80.6555 194.466 80.675V87.2674C194.466 87.3197 194.493 87.3464 194.545 87.3474C196.658 87.3559 198.771 87.3554 200.884 87.3458C202.389 87.3378 204.097 87.0851 204.518 85.3558C204.798 84.212 204.839 82.0636 203.72 81.3021Z" fill="#1DA4FF"/>
</svg>
