<svg width="235" height="44" viewBox="0 0 235 44" fill="none" xmlns="http://www.w3.org/2000/svg">
<path d="M188.513 41.0312C184.766 42.7827 181.639 43.3942 177.259 43.4725C171.903 43.5736 166.55 43.5915 161.2 43.5263C156.337 43.4725 154.669 40.493 154.65 36.0312C154.618 28.5132 154.624 20.9985 154.669 13.487C154.713 6.63278 153.19 0.673844 162.409 0.629813C167.082 0.610243 171.753 0.60209 176.423 0.605351C181.658 0.610244 187.86 2.54274 190.625 7.11713C193.26 11.4811 192.042 17.3373 188.044 20.718C187.863 20.8713 187.88 20.9968 188.092 21.0947C190.181 22.0536 191.816 23.5246 192.999 25.5076C193.105 25.6903 193.207 25.687 193.303 25.4978C196.703 18.7398 200.126 11.9997 203.571 5.27759C204.419 3.6207 205.26 2.44978 206.094 1.76485C210.155 -1.55219 215.98 0.023157 218.344 4.68072C223.317 14.472 228.276 24.2715 233.223 34.0791C237.501 42.5527 226.692 47.9637 222.627 39.8277C222.095 38.7611 220.867 38.3061 219.64 38.3012C214.135 38.298 208.632 38.2947 203.131 38.2915C199.578 38.2915 200.134 39.7787 198.302 41.814C195.711 44.6907 191.109 44.4852 188.919 41.1437C188.816 40.9872 188.68 40.9497 188.513 41.0312Z" fill="white"/>
<path d="M4.93052 9.40094C7.62936 9.38681 9.80737 7.50038 9.79526 5.18748C9.78315 2.87458 7.5855 1.01106 4.88667 1.02519C2.18784 1.03933 0.00981743 2.92576 0.0219279 5.23865C0.0340383 7.55155 2.23169 9.41507 4.93052 9.40094Z" fill="white"/>
<path d="M131.643 20.1754C127.007 19.7634 126.725 13.5928 131.681 12.6718C131.831 12.646 131.907 12.5539 131.91 12.3955C131.915 10.8928 131.762 9.07511 132.14 7.76634C133.029 4.69799 136.604 3.60735 138.936 5.6723C140.876 7.39309 140.327 10.1464 140.413 12.5167C140.419 12.688 140.508 12.7752 140.68 12.7784C142.391 12.7978 144.513 12.5022 145.933 13.268C148.117 14.4556 148.317 18.0669 146.157 19.4774C144.738 20.4081 142.401 20.2239 140.656 20.1657C140.488 20.1593 140.403 20.2417 140.403 20.4129C140.381 24.8563 140.386 29.29 140.417 33.714C140.432 35.9292 142.042 35.9195 143.964 36.031C148.203 36.2782 149.068 41.7556 144.671 43.1226C138.291 45.1051 132.13 43.1323 132.025 35.2893C131.958 30.3418 131.912 25.3927 131.887 20.442C131.887 20.2772 131.805 20.1884 131.643 20.1754Z" fill="white"/>
<path d="M22.7685 16.2395C27.1988 9.71218 37.348 9.82171 40.4801 17.5639C40.9948 18.8385 41.2924 20.679 41.3729 23.0855C41.5627 28.8477 41.5852 34.1735 41.4404 39.0628C41.2474 45.5602 32.8694 45.5802 32.9128 38.2114C32.9386 33.8797 32.9112 29.5498 32.8308 25.2214C32.686 17.5838 22.7058 17.7929 22.4596 25.4156C22.3888 27.6926 22.3744 32.011 22.4162 38.3707C22.4693 45.7494 13.8934 45.2217 13.8693 39.1524C13.8403 31.6608 13.8371 24.1659 13.8596 16.6677C13.8789 10.5436 21.8515 10.0159 22.45 16.1549C22.4527 16.1922 22.4667 16.2277 22.49 16.2563C22.5133 16.285 22.5447 16.3055 22.5799 16.3148C22.615 16.3241 22.6521 16.3219 22.6859 16.3084C22.7197 16.2949 22.7486 16.2708 22.7685 16.2395Z" fill="white"/>
<path d="M81.1508 31.1095C82.6451 35.8674 85.8954 37.6257 90.9017 36.3844C92.6751 35.9497 94.4058 34.1174 96.0609 33.9791C98.2078 33.8013 99.9575 36.2214 99.4043 38.2908C98.4585 41.8321 92.363 43.6201 89.2892 43.8077C74.9276 44.6819 68.0471 28.4325 76.1145 17.1715C79.7321 12.1189 86.6079 10.3359 92.1833 12.3461C97.9336 14.4156 101.433 20.1448 101.528 26.4619C101.575 29.5833 99.5934 30.6156 96.8081 30.665C93.2015 30.7308 89.5918 30.7736 85.979 30.7934C84.9197 30.7983 82.9194 30.5267 81.3258 30.8082C81.1555 30.8378 81.0972 30.9383 81.1508 31.1095ZM81.2217 25.237L93.3749 25.2172C93.383 25.2172 93.391 25.2156 93.3985 25.2123C93.4059 25.2091 93.4127 25.2044 93.4184 25.1984C93.4241 25.1925 93.4286 25.1854 93.4317 25.1776C93.4348 25.1698 93.4364 25.1614 93.4364 25.153V25.1333C93.4339 23.4238 92.7863 21.7855 91.636 20.5786C90.4858 19.3717 88.9272 18.6951 87.3031 18.6977H87.2747C86.4705 18.699 85.6744 18.867 84.9319 19.1921C84.1893 19.5172 83.5149 19.993 82.9472 20.5925C82.3794 21.1919 81.9294 21.9032 81.6227 22.6857C81.3161 23.4682 81.159 24.3066 81.1602 25.153V25.1728C81.1602 25.1898 81.1667 25.2061 81.1782 25.2182C81.1898 25.2302 81.2054 25.237 81.2217 25.237Z" fill="white"/>
<path d="M104.701 18.5025C105.674 14.351 110.362 11.8242 114.334 11.5849C118.827 11.3092 122.733 12.2262 126.053 14.336C129.358 16.4392 126.82 22.1507 122.157 20.2718C119.915 19.3747 113.055 16.2947 112.298 20.5957C112.268 20.7552 112.293 20.9064 112.373 21.0493C113.476 23.1026 119.704 24.822 122.011 25.6942C126.304 27.3239 128.57 30.8276 127.969 35.4227C126.484 46.7211 111.375 44.7475 104.54 40.4464C100.544 37.9296 103.598 32.0835 108.005 34.3711C110.643 35.7416 116.741 38.5625 119.444 36.2301C120.052 35.7084 120.236 35.0306 119.995 34.1967C119.464 32.3377 114.524 31.306 112.855 30.7179C106.907 28.6297 102.976 25.8786 104.701 18.5025Z" fill="white"/>
<path d="M5.06277 12.1836L4.80866 12.1831C2.49034 12.1791 0.607682 14.0552 0.603636 16.3735L0.563584 39.3215C0.559537 41.6399 2.43563 43.5225 4.75396 43.5266L5.00806 43.527C7.32639 43.5311 9.20904 41.655 9.21309 39.3366L9.25314 16.3886C9.25719 14.0703 7.38109 12.1876 5.06277 12.1836Z" fill="white"/>
<path d="M57.6054 32.8459C57.6149 32.8735 57.6332 32.8975 57.6576 32.9146C57.682 32.9316 57.7113 32.9407 57.7414 32.9407C57.7714 32.9407 57.8007 32.9316 57.8251 32.9146C57.8495 32.8975 57.8678 32.8735 57.8773 32.8459C60.0791 27.0028 62.3055 21.1773 64.5567 15.3692C66.119 11.3387 72.4078 12.0328 72.6798 16.4559C72.7259 17.2345 72.4672 18.2685 71.9035 19.5577C68.9932 26.2306 66.0498 32.8906 63.0735 39.5379C60.5273 45.2343 54.8961 45.2965 52.3202 39.5906C49.3703 33.0486 46.4599 26.4922 43.589 19.9215C42.9661 18.495 42.6662 17.3893 42.6892 16.6043C42.7584 14.0098 45.3244 12.277 47.8607 12.7748C49.6801 13.129 50.5453 14.2491 51.2128 15.982C53.3749 21.6081 55.5058 27.2294 57.6054 32.8459Z" fill="white"/>
</svg>
