<svg width="288" height="93" viewBox="0 0 288 93" fill="none" xmlns="http://www.w3.org/2000/svg">
<path d="M44.8291 23.3586L39.3245 25.5801V6.85283C39.3245 6.74516 39.2742 6.71162 39.1736 6.75222L5.61655 20.2794C5.54065 20.3094 5.5027 20.365 5.5027 20.4462L5.47887 51.7421C5.47887 51.9133 5.55918 51.9671 5.71981 51.9036L19.6759 46.256L25.1593 44.0346L39.1498 38.3791C39.1934 38.3619 39.2306 38.3316 39.2566 38.2923C39.2827 38.2531 39.2962 38.2067 39.2954 38.1593L39.2795 31.4818L42.6395 30.1103L44.7735 29.2604C44.7541 32.833 44.7462 36.3757 44.7497 39.8883C44.7497 41.7126 43.8309 42.3877 42.1682 43.0602C36.4403 45.3708 30.761 47.6681 25.1302 49.9522L19.6547 52.1604C14.4087 54.2892 9.19537 56.3879 4.01469 58.4567C1.53114 59.4496 0.104021 57.8927 0.0272374 55.5098C-0.0389553 53.5266 0.0722484 51.2708 0.0590099 49.571C-0.0204214 39.3508 0.154327 29.1201 0.000760221 18.9026C-0.0363077 16.5646 1.2849 16.1516 3.36865 15.3096C15.6858 10.3213 28.01 5.35246 40.3413 0.403011C42.9651 -0.650777 44.8371 0.397716 44.8318 3.13015C44.8194 9.85533 44.8185 16.5982 44.8291 23.3586Z" fill="white"/>
<path d="M64.4752 28.7653C64.4046 28.7971 64.3552 28.8641 64.3269 28.9665C64.3163 29.0071 64.296 29.0124 64.266 28.9824C64.2501 28.9665 64.2351 28.9498 64.221 28.9321C64.1981 28.9039 64.1769 28.9047 64.1575 28.9348C64.0163 29.1448 63.7885 29.2754 63.4744 29.3266C62.087 29.5543 60.8434 29.6629 59.7437 29.6523C59.6537 29.6505 59.5875 29.6894 59.5452 29.7688C59.4569 29.9294 59.3254 29.9638 59.1506 29.872C59.0871 29.8385 59.0544 29.7864 59.0527 29.7158L59.0156 28.3681L59.0447 23.6976C59.0465 23.5899 58.9962 23.5555 58.8938 23.5943L44.7736 29.2604L42.6395 30.1103C42.6166 29.4608 42.0862 29.1881 41.0483 29.2922C39.4437 29.4546 38.1128 29.5455 37.0555 29.5649C36.3071 29.579 35.5799 29.6426 34.8738 29.7555C33.4732 29.9832 32.054 29.9488 30.6428 30.1395C30.6092 30.143 30.5925 30.128 30.5925 30.0945C30.5925 30.068 30.5925 30.0415 30.5925 30.015C30.5907 29.9532 30.5589 29.9171 30.4971 29.9065C30.22 29.8588 29.9852 29.6964 29.7928 29.4193L39.3246 25.5801L44.8292 23.3587C49.8722 21.3199 54.9152 19.2839 59.9582 17.2504C60.8425 16.8956 61.5459 16.7421 62.0684 16.7897C63.8344 16.9539 64.507 18.4022 64.5096 20.0729C64.5149 22.9695 64.5034 25.8669 64.4752 28.7653Z" fill="#8B12E9"/>
<path d="M59.0156 28.3691L59.0527 29.7168C59.0545 29.7874 59.0871 29.8395 59.1507 29.873C59.3254 29.9648 59.4569 29.9304 59.5452 29.7698C59.5875 29.6903 59.6537 29.6515 59.7438 29.6533C60.8434 29.6639 62.087 29.5553 63.4744 29.3276C63.7886 29.2764 64.0163 29.1458 64.1575 28.9358C64.1769 28.9057 64.1981 28.9049 64.221 28.9331C64.2351 28.9508 64.2501 28.9675 64.266 28.9834C64.296 29.0134 64.3163 29.0081 64.3269 28.9675C64.3552 28.8651 64.4046 28.7981 64.4752 28.7663L64.4937 40.1965L59.0077 42.4126L59.0156 28.3691Z" fill="#A41ECE"/>
<path d="M256.389 35.7418C258.387 35.7313 259.998 34.1403 259.987 32.1882C259.977 30.236 258.35 28.662 256.352 28.6725C254.355 28.6829 252.744 30.2739 252.754 32.226C252.764 34.1782 254.392 35.7522 256.389 35.7418Z" fill="white"/>
<path d="M42.6395 30.1112L39.2796 31.4827L25.3367 37.1091C25.2866 37.1296 25.2437 37.1648 25.2136 37.21C25.1834 37.2553 25.1673 37.3086 25.1673 37.3633L25.1593 44.0355L19.6759 46.2569C19.6671 42.5907 19.668 38.989 19.6786 35.4516C19.6839 33.8127 20.5364 33.1852 22.0271 32.5683C24.6077 31.5004 27.1963 30.451 29.7928 29.4202C29.9852 29.6973 30.22 29.8597 30.4971 29.9073C30.5589 29.9179 30.5907 29.9541 30.5924 30.0159C30.5924 30.0424 30.5924 30.0688 30.5924 30.0953C30.5924 30.1289 30.6092 30.1439 30.6428 30.1403C32.054 29.9497 33.4732 29.9841 34.8738 29.7564C35.5798 29.6434 36.3071 29.5799 37.0555 29.5658C38.1128 29.5464 39.4437 29.4555 41.0482 29.2931C42.0861 29.1889 42.6166 29.4616 42.6395 30.1112Z" fill="#A41ECE"/>
<path d="M167.958 60.2645L167.362 59.6741C165.394 57.4677 164.112 54.9091 163.515 51.9984C161.214 40.78 165.943 29.8529 178.93 29.7311C186.262 29.665 192.585 34.46 193.26 42.0218C193.267 42.0995 193.231 42.1383 193.154 42.1383H186.548C186.468 42.1383 186.421 42.0995 186.405 42.0218C185.446 37.2798 181.514 34.9551 176.963 35.8924C170.85 37.15 169.568 44.606 170.362 49.8008C171.014 54.0504 173.571 57.8313 178.155 58.1437C182.282 58.427 185.505 56.0838 186.397 51.9772C186.414 51.898 186.458 51.8272 186.521 51.7765C186.584 51.7259 186.663 51.6986 186.744 51.6992L193.141 51.7336C193.224 51.7336 193.261 51.7751 193.254 51.8581C192.142 64.485 176.328 67.5431 167.958 60.2645Z" fill="white"/>
<path d="M132.392 57.7797L132.405 63.4352C132.405 63.4577 132.396 63.4793 132.38 63.4952C132.364 63.511 132.343 63.52 132.32 63.52H111.101C111.079 63.52 111.057 63.511 111.041 63.4952C111.026 63.4793 111.017 63.4577 111.017 63.4352V30.4421C111.017 30.4197 111.026 30.3981 111.041 30.3822C111.057 30.3663 111.079 30.3574 111.101 30.3574H117.882C117.905 30.3574 117.926 30.3663 117.942 30.3822C117.958 30.3981 117.967 30.4197 117.967 30.4421V57.6129C117.967 57.6354 117.976 57.657 117.992 57.6728C118.008 57.6887 118.029 57.6977 118.052 57.6977L132.307 57.695C132.329 57.695 132.351 57.7039 132.367 57.7198C132.383 57.7357 132.392 57.7573 132.392 57.7797Z" fill="white"/>
<path d="M204.862 43.0055C206.516 39.5635 209.327 38.0208 213.295 38.3773C218.424 38.838 221.016 42.8149 221.024 47.6734C221.034 52.9106 221.035 58.1487 221.026 63.3876C221.025 63.4758 220.98 63.52 220.894 63.52H214.412C214.324 63.52 214.28 63.4758 214.28 63.3876C214.273 58.7294 214.271 54.0738 214.275 49.4209C214.275 46.9321 213.295 44.5465 210.642 44.0461C208.177 43.5827 205.866 44.9039 205.082 47.3133C204.877 47.9417 204.77 49.0414 204.761 50.6124C204.738 54.8646 204.735 59.1204 204.751 63.3796C204.753 63.4732 204.707 63.52 204.613 63.52H198.126C198.038 63.52 197.994 63.4758 197.994 63.3876V30.4898C197.994 30.4016 198.038 30.3574 198.126 30.3574H204.613C204.701 30.3574 204.746 30.4016 204.746 30.4898V42.979C204.745 42.9931 204.75 43.0069 204.758 43.0181C204.767 43.0292 204.779 43.037 204.793 43.0401C204.807 43.0432 204.821 43.0415 204.834 43.0352C204.846 43.0289 204.856 43.0184 204.862 43.0055Z" fill="white"/>
<path d="M63.011 84.2407L61.9095 84.6882C55.585 87.2282 49.3806 89.7303 43.2961 92.1945C41.1859 93.0497 39.3352 91.6834 39.3325 89.515C39.329 82.6998 39.3281 75.8599 39.3299 68.9952L44.8239 66.7685V85.4852C44.8239 85.6228 44.8874 85.6661 45.0145 85.6149L78.5583 72.0507C78.5888 72.0381 78.6148 72.0169 78.6332 71.9895C78.6516 71.9622 78.6615 71.9301 78.6616 71.8971L78.7198 40.5429C78.7198 40.4388 78.6713 40.4062 78.5742 40.445L69.3628 44.1597L67.5227 44.8878L64.4169 46.1429L58.9468 48.3457L44.9827 53.9748C44.891 54.0118 44.8451 54.0798 44.8451 54.1786L44.8424 60.8879L39.3352 63.12C39.3264 59.4944 39.3246 55.9208 39.3299 52.3994C39.3325 50.8187 40.0951 50.0668 41.5672 49.4684C47.2633 47.149 52.9621 44.8349 58.6635 42.5261C58.8417 42.4537 58.9565 42.4158 59.0077 42.4122L64.4937 40.1961C69.3778 38.2315 74.2205 36.2819 79.0217 34.3473C80.2908 33.8372 81.2202 33.6095 81.8097 33.6642C83.6711 33.8337 84.1476 35.4249 84.145 37.1406C84.1221 49.3236 84.0735 61.5066 83.9994 73.6896C83.9914 74.8864 83.5572 75.9163 82.4743 76.3559C75.9945 78.9771 69.5067 81.6054 63.011 84.2407Z" fill="white"/>
<path d="M151.466 59.9922C149.222 63.0741 146.362 64.3635 142.885 63.8605C138.714 63.2568 135.72 60.5005 135.91 56.0894C136.112 51.4427 140.128 49.4225 144.245 49.0042C146.625 48.7641 149.012 48.6123 151.407 48.5488C151.445 48.5482 151.48 48.5334 151.507 48.5074C151.534 48.4814 151.55 48.4461 151.553 48.4084C151.72 46.2347 151.27 44.2621 148.895 43.6955C146.642 43.158 143.893 43.8358 143.197 46.3273C143.176 46.4032 143.125 46.4412 143.046 46.4412H137.107C137.024 46.4412 136.987 46.3997 136.996 46.3167C137.404 41.9189 140.7 39.2765 144.809 38.5722C149.464 37.7752 156.192 38.8026 157.894 44.0768C158.149 44.8658 158.277 46.1041 158.278 47.7915C158.282 52.9899 158.281 58.1873 158.276 63.3839C158.276 63.4739 158.232 63.5189 158.143 63.5189H151.691C151.624 63.5189 151.59 63.4854 151.59 63.4183L151.58 60.0292C151.58 59.9004 151.542 59.888 151.466 59.9922ZM144.42 53.5212C141.704 54.7073 142.082 58.1149 144.889 58.7663C147.441 59.3567 150.438 58.4433 151.336 55.7452C151.625 54.8741 151.535 53.8389 151.524 52.8831C151.524 52.7948 151.48 52.7551 151.392 52.7639C149.625 52.914 147.864 53.0552 146.109 53.1876C145.361 53.2458 144.798 53.357 144.42 53.5212Z" fill="white"/>
<path d="M240.773 60.046C235.93 67.3881 222.991 63.6972 225.591 54.184C227.158 48.4544 236.648 48.69 240.728 48.5179C240.807 48.5144 240.851 48.4729 240.858 48.3935C240.977 47.0167 240.964 45.5154 239.984 44.5702C237.974 42.6347 233.425 43.3364 232.607 46.2938C232.581 46.3927 232.516 46.4421 232.411 46.4421H226.526C226.502 46.4423 226.478 46.4374 226.456 46.4277C226.435 46.4181 226.415 46.4038 226.399 46.386C226.384 46.3682 226.372 46.3472 226.365 46.3245C226.358 46.3017 226.356 46.2777 226.359 46.2541C226.848 42.6321 228.826 40.2571 232.292 39.1291C237.4 37.4664 245.422 38.1813 247.299 44.2022C247.534 44.9523 247.65 46.015 247.646 47.39C247.63 52.7207 247.63 58.047 247.646 63.3689C247.648 63.4695 247.599 63.5198 247.498 63.5198H241.019C240.931 63.5198 240.887 63.4757 240.887 63.3875V60.0805C240.887 59.941 240.849 59.9295 240.773 60.046ZM235.446 53.1699C233.439 53.2467 231.238 54.8406 232.125 57.0224C233.018 59.2147 236.171 59.2676 237.993 58.5236C240.307 57.5775 241.249 55.7029 240.818 52.8999C240.806 52.8134 240.756 52.7746 240.67 52.7834C238.11 53.004 236.369 53.1329 235.446 53.1699Z" fill="white"/>
<path d="M270.795 38.8208L271.868 38.8764L271.807 42.6812C271.806 42.7041 271.813 42.7265 271.827 42.7448C271.841 42.763 271.861 42.776 271.883 42.7816C271.905 42.7871 271.929 42.7849 271.949 42.7754C271.97 42.7658 271.987 42.7493 271.997 42.7288C273.84 39.2127 277.293 37.82 281.1 38.4395C287.269 39.4457 288.114 44.5478 287.976 49.8671C287.913 52.3171 287.921 56.8243 288 63.3889C288 63.4754 287.957 63.5186 287.87 63.5186H281.336C281.248 63.5186 281.203 63.4745 281.203 63.3863C281.189 58.871 281.19 54.3558 281.206 49.8406C281.217 46.7269 280.396 43.8091 276.626 43.9891C271.065 44.2539 271.897 49.8273 271.833 53.6771C271.778 56.9038 271.775 60.1313 271.823 63.3598C271.824 63.4657 271.772 63.5186 271.666 63.5186H265.246C265.157 63.5186 265.113 63.4745 265.113 63.3863V38.9691C265.113 38.9312 265.128 38.8948 265.155 38.868C265.182 38.8412 265.218 38.8261 265.256 38.8261L270.795 38.8208Z" fill="white"/>
<path d="M259.68 38.8574H253.071C253.032 38.8574 253 38.8894 253 38.9289V63.4467C253 63.4862 253.032 63.5182 253.071 63.5182H259.68C259.72 63.5182 259.752 63.4862 259.752 63.4467V38.9289C259.752 38.8894 259.72 38.8574 259.68 38.8574Z" fill="white"/>
<path d="M64.417 46.1426L64.3296 56.1589L64.2766 56.7811C64.2731 56.8146 64.2581 56.8217 64.2316 56.8023C64.2051 56.7811 64.1981 56.7467 64.2104 56.699C64.2175 56.6708 64.2201 56.6354 64.2184 56.5931C64.2166 56.5278 64.1963 56.5216 64.1575 56.5746C64.0675 56.6981 63.9615 56.699 63.8398 56.5772C63.8075 56.545 63.7658 56.524 63.7209 56.5173C63.6761 56.5106 63.6305 56.5186 63.5909 56.5401C63.1884 56.7608 62.7851 56.8614 62.3809 56.842C61.207 56.782 60.1082 56.7872 59.0845 56.8579C57.8242 56.9452 56.908 57.8269 55.8807 56.4316L58.8594 55.2216C58.9406 55.188 58.9803 55.128 58.9786 55.0415L58.9468 48.3455L64.417 46.1426Z" fill="#C831A6"/>
<path d="M25.1301 49.9531L25.154 60.0753L25.0931 61.0841C25.0913 61.1176 25.0763 61.1247 25.048 61.1053C25.018 61.0859 25.0074 61.0514 25.0163 61.002C25.0322 60.9138 25.0357 60.8237 25.0269 60.7319C25.0216 60.6825 25.0066 60.679 24.9819 60.7214L24.9289 60.8087C24.8936 60.8687 24.8539 60.8714 24.8098 60.8167C24.3093 60.1865 22.9828 60.4725 22.1647 60.6869C22.1541 60.6905 22.147 60.6861 22.1435 60.6737C22.1294 60.6366 22.1153 60.5996 22.1011 60.5625C22.0729 60.4919 22.0208 60.4566 21.9449 60.4566L20.0651 60.4645C19.9821 60.4663 19.9309 60.5069 19.9115 60.5863L19.6758 61.5527L19.6547 52.1613L25.1301 49.9531Z" fill="#C831A6"/>
<path d="M64.3295 56.1582C64.6446 58.422 63.6517 59.1687 61.7665 59.9338C56.1216 62.225 50.4741 64.5029 44.8239 66.7676L39.3299 68.9943C34.5534 70.9342 29.7831 72.8697 25.019 74.8007C23.6687 75.3479 22.7128 75.6092 22.1515 75.5844C20.3378 75.5077 19.668 73.9482 19.668 72.2695C19.6697 68.6863 19.6724 65.1136 19.6759 61.5516L19.9116 60.5852C19.931 60.5057 19.9822 60.4651 20.0651 60.4634L21.945 60.4554C22.0209 60.4554 22.073 60.4907 22.1012 60.5613C22.1153 60.5984 22.1295 60.6355 22.1436 60.6725C22.1471 60.6849 22.1542 60.6893 22.1648 60.6858C22.9829 60.4713 24.3094 60.1854 24.8098 60.8155C24.8539 60.8702 24.8937 60.8676 24.929 60.8076L24.9819 60.7202C25.0066 60.6778 25.0216 60.6814 25.0269 60.7308C25.0358 60.8226 25.0322 60.9126 25.0163 61.0009C25.0075 61.0503 25.0181 61.0847 25.0481 61.1041C25.0764 61.1235 25.0914 61.1165 25.0931 61.0829L25.154 60.0742V68.7454C25.154 68.816 25.1867 68.8381 25.252 68.8116L39.3352 63.119L44.8424 60.887L55.8807 56.4309C56.908 57.8263 57.8241 56.9446 59.0844 56.8572C60.1082 56.7866 61.207 56.7813 62.3808 56.8413C62.785 56.8607 63.1884 56.7601 63.5908 56.5395C63.6304 56.518 63.676 56.51 63.7209 56.5166C63.7657 56.5233 63.8074 56.5443 63.8397 56.5765C63.9615 56.6983 64.0674 56.6975 64.1574 56.5739C64.1963 56.5209 64.2166 56.5271 64.2183 56.5924C64.2201 56.6348 64.2174 56.6701 64.2104 56.6983C64.198 56.746 64.2051 56.7804 64.2316 56.8016C64.258 56.821 64.273 56.814 64.2766 56.7804L64.3295 56.1582Z" fill="#DF3C8D"/>
</svg>
