<svg width="225" height="84" viewBox="0 0 225 84" fill="none" xmlns="http://www.w3.org/2000/svg">
<path d="M55.4783 72.4207C53.031 74.7914 50.7002 77.2805 48.2529 79.6511C47.2041 80.8364 45.8056 81.7847 44.2906 82.3773C40.0953 83.9183 36.2495 83.3256 32.9864 80.1253C25.1784 72.4207 17.6034 64.5977 9.91191 56.7746C5.83308 52.6261 5.83308 45.7513 9.91191 41.6027C17.6034 33.7796 25.1784 26.0751 32.8699 18.2521C36.9487 14.1035 43.5914 14.1035 47.7868 18.2521C52.9145 23.4674 58.0421 28.6828 63.1698 33.8982C67.2486 38.0467 67.2486 44.6845 63.2863 48.8331C58.6248 53.8114 53.7302 58.6711 48.9522 63.5309C48.7191 63.768 48.6025 63.8865 48.486 64.1236C48.0199 64.3606 48.0199 64.5977 48.486 65.0718C50.7002 67.3239 52.9145 69.576 55.1287 71.8281C55.3618 71.9466 55.5948 72.0651 55.4783 72.4207ZM55.4783 41.6027C55.4783 41.3656 55.2452 41.2471 55.0121 41.01L40.911 26.5492C40.5614 26.1936 40.3283 26.0751 39.9787 26.5492C32.7534 34.0167 25.4115 41.3656 18.1861 48.7145C17.8365 49.0701 17.8365 49.3072 18.1861 49.6628C25.528 57.0117 32.7534 64.4792 39.9787 71.8281C40.3283 72.1837 40.5614 72.1837 40.911 71.8281C43.1253 69.576 45.3395 67.3239 47.5537 65.0718C47.9033 64.7162 47.9033 64.4792 47.5537 64.1236C45.3395 61.8715 43.1253 59.6194 40.911 57.3673C40.5614 57.0117 40.4449 56.7746 40.911 56.3005C45.5726 51.5593 50.3506 46.6995 55.0121 41.9583L55.4783 41.6027Z" fill="#99C841"/>
<path d="M79.9492 49.114C79.9492 42.761 79.9492 36.2904 79.9492 29.9374C79.9492 29.3492 80.0675 29.2315 80.659 29.2315C85.9825 29.2315 91.306 29.2315 96.6295 29.2315C99.9419 29.1139 103.136 30.1727 105.739 32.1727C108.814 34.6433 110.589 38.2904 110.707 42.1728C111.18 46.5258 109.524 50.7611 106.212 53.7023C103.728 55.9376 100.533 57.1141 97.221 57.1141C94.0269 57.2318 90.7145 57.1141 87.5204 57.1141C86.9289 57.1141 86.6923 57.2318 86.6923 57.9376C86.6923 61.4671 86.6923 64.9965 86.6923 68.4083C86.6923 68.8789 86.574 69.1142 85.9825 69.1142C84.208 69.1142 82.4335 69.1142 80.659 69.1142C80.0675 69.1142 79.9492 68.9966 79.9492 68.4083C79.9492 61.9377 79.9492 55.467 79.9492 49.114ZM86.574 43.114C86.574 45.5846 86.574 48.1729 86.574 50.6435C86.574 51.1141 86.6923 51.2317 87.1655 51.2317C90.2413 51.2317 93.3171 51.2317 96.3929 51.2317C100.652 51.3494 104.201 47.9376 104.319 43.7022C104.319 43.5846 104.319 43.3493 104.319 43.2316C104.437 38.761 101.48 34.761 96.1563 34.8786C93.1988 34.9963 90.2413 34.8786 87.2838 34.8786C86.6923 34.8786 86.574 35.1139 86.574 35.5845C86.574 38.0551 86.574 40.6434 86.574 43.114Z" fill="white"/>
<path d="M149.763 64.5462C149.295 65.154 149.06 65.7617 148.592 66.2479C146.6 69.0435 143.319 70.5021 140.038 70.259C133.828 70.0159 129.609 66.1263 128.321 59.5628C127.618 56.281 127.852 52.8776 128.906 49.7174C130.547 45.3417 134.179 42.1814 138.632 41.4522C143.905 40.3582 149.412 41.0875 154.333 43.3969C154.685 43.5185 154.685 43.8831 154.685 44.1262C154.685 50.0821 154.685 55.9163 154.685 61.8722C154.685 62.3584 154.685 62.8446 154.685 63.3307C154.802 64.7893 155.388 65.3971 156.911 65.3971C157.614 65.3971 157.614 65.6402 157.614 66.2479C157.614 67.2203 157.614 68.3142 157.614 69.2866C157.614 69.5297 157.614 69.7728 157.263 69.8943C155.739 70.1374 154.216 70.1374 152.81 69.8943C150.935 69.5297 149.646 67.828 149.646 65.8832C149.763 65.3971 149.763 64.9109 149.763 64.5462ZM148.826 52.1484C148.826 50.6898 148.826 49.3528 148.826 47.8942C148.826 47.5296 148.592 47.1649 148.24 47.0434C146.014 46.1925 143.67 45.9494 141.327 46.1925C138.163 46.4356 135.468 48.745 134.648 51.9053C133.945 54.3362 133.945 56.8887 134.765 59.1981C135.82 63.0876 139.686 65.2755 143.436 64.1816C143.553 64.1816 143.67 64.06 143.788 64.06C146.483 63.3307 147.771 61.1429 148.475 58.5904C148.826 56.5241 148.943 54.3362 148.826 52.1484Z" fill="white"/>
<path d="M192.725 63.7619H196.575C199.725 63.7619 202.876 63.7619 206.026 63.7619C206.492 63.7619 206.609 63.8782 206.609 64.3434C206.609 65.7392 206.609 67.135 206.609 68.6471C206.609 68.9961 206.492 69.1124 206.142 69.1124H184.441C183.975 69.1124 183.741 68.2982 183.975 67.7166C184.091 67.6003 184.091 67.484 184.208 67.3677C188.408 60.7376 192.725 53.9912 197.275 47.5938L197.625 47.1286H196.925C193.075 47.1286 189.225 47.1286 185.375 47.1286C184.908 47.1286 184.675 47.0122 184.791 46.547C184.791 45.2675 184.791 43.988 184.791 42.7085C184.791 42.2433 184.908 42.127 185.375 42.127C192.258 42.127 199.142 42.127 206.142 42.127C206.726 42.127 206.726 42.3596 206.726 42.8249C206.726 43.0575 206.609 43.2901 206.376 43.5227C202.059 50.2691 197.742 57.0155 193.075 63.5292L192.725 63.7619Z" fill="white"/>
<path d="M164.234 54.1348C164.234 52.111 164.234 50.0873 164.234 47.9445C164.234 47.4683 164.12 47.2303 163.549 47.2303C162.18 47.2303 160.696 47.2303 159.327 47.2303C158.87 47.2303 158.756 47.2303 158.756 46.635C158.756 45.3256 158.756 44.0161 158.756 42.5876C158.756 42.1114 158.87 41.9924 159.327 41.9924C160.696 41.9924 162.066 41.9924 163.435 41.9924C164.12 41.9924 164.12 41.7543 164.12 41.1591C164.12 39.3734 164.12 37.5878 164.12 35.8021C164.12 35.2069 164.234 35.0879 164.805 35.0879C166.402 35.0879 167.886 35.0879 169.483 35.0879C170.054 35.0879 170.168 35.326 170.168 35.8021C170.168 37.5878 170.168 39.3734 170.168 41.1591C170.168 41.8733 170.396 41.9924 170.967 41.8733C173.592 41.8733 176.216 41.8733 178.841 41.8733C179.412 41.8733 179.526 41.9924 179.526 42.5876C179.526 43.8971 179.526 45.2065 179.526 46.397C179.526 46.8731 179.412 46.9922 178.955 46.9922C176.216 46.9922 173.592 46.9922 170.853 46.9922C170.396 46.9922 170.282 47.1112 170.282 47.5874C170.282 51.3968 170.282 55.2061 170.282 59.0155C170.282 60.2059 170.396 61.5154 170.853 62.7058C171.652 64.6105 173.477 65.6819 175.417 65.4438C176.787 65.3248 178.156 65.0867 179.412 64.6105C179.868 64.4915 179.982 64.4915 179.982 64.9677C180.096 66.2771 180.324 67.4676 180.439 68.777C180.439 69.0151 180.553 69.2532 180.21 69.2532C177.243 70.3246 174.048 70.5627 170.967 69.9675C167.429 69.1342 165.489 66.6343 164.69 63.063C164.348 61.0392 164.234 59.0155 164.234 56.9918C164.234 56.1585 164.234 55.2061 164.234 54.1348Z" fill="white"/>
<path d="M114.333 45.5704C114.333 40.32 114.333 35.0697 114.333 29.8193C114.333 29.342 114.452 29.2227 114.931 29.2227C116.606 29.2227 118.281 29.2227 119.956 29.2227C120.435 29.2227 120.555 29.342 120.555 29.8193C120.555 39.6041 120.555 49.3888 120.555 59.1736C120.555 60.2475 120.555 61.4408 120.794 62.5147C121.033 64.066 122.469 65.2593 124.025 65.1399C124.743 65.1399 125.46 65.1399 126.059 65.0206C126.418 64.9013 126.537 65.0206 126.537 65.3786C126.537 66.6912 126.657 68.0038 126.777 69.4357C126.777 69.6743 126.777 69.7937 126.418 69.913C124.264 70.3903 122.11 70.3903 119.956 70.0323C116.845 69.3164 115.41 67.2878 114.692 64.3046C114.333 62.6341 114.213 60.9635 114.213 59.2929C114.333 54.6392 114.333 50.1048 114.333 45.5704Z" fill="white"/>
<path d="M217.005 55.6197C217.005 59.9234 217.005 64.2271 217.005 68.4145C217.005 68.9961 216.876 69.1124 216.229 69.1124C214.419 69.1124 212.609 69.1124 210.799 69.1124C210.282 69.1124 210.152 68.9961 210.152 68.6471C210.152 59.9234 210.152 51.316 210.152 42.5922C210.152 42.2433 210.282 42.127 210.67 42.127C212.48 42.127 214.419 42.127 216.229 42.127C216.876 42.127 216.876 42.3596 216.876 42.8249C217.005 47.0123 217.005 51.316 217.005 55.6197Z" fill="white"/>
<path d="M213.475 36.2563C211.713 36.3679 210.262 34.9177 210.158 33.0214C210.158 32.9098 210.158 32.7983 210.158 32.6867C210.054 30.7904 211.402 29.3402 213.164 29.2287C213.268 29.2287 213.371 29.2287 213.579 29.2287C215.341 29.1171 216.896 30.5673 217 32.4636C217.103 34.36 215.756 36.0332 213.993 36.1448C213.682 36.2563 213.579 36.2563 213.475 36.2563Z" fill="white"/>
</svg>
