<svg width="177" height="85" viewBox="0 0 177 85" fill="none" xmlns="http://www.w3.org/2000/svg">
<path d="M13.5295 29.7131H13.6413C16.213 24.9797 20.6855 22.9512 25.9409 22.9512H28.5124V36.0241C26.6116 35.01 24.8226 34.7846 22.81 34.7846C15.3185 34.7846 13.4176 39.7432 13.4176 46.3924V61.8323H0V23.402H13.5295V29.7131Z" fill="white"/>
<path d="M49.0855 23.4004H35.556V61.8305H49.0855V23.4004Z" fill="white"/>
<path d="M72.7901 27.7951H72.9019C75.3616 23.9633 79.946 22.1602 84.4186 22.1602C95.8238 22.1602 103.651 31.7396 103.651 42.7839C103.651 53.8284 95.8238 63.1823 84.5306 63.1823C80.1697 63.1823 75.5854 61.6047 72.6781 58.2237V79.2984L59.2606 84.9332V23.3998H72.7901V27.7951ZM72.3429 42.6712C72.3429 47.5173 75.5854 51.2364 81.0642 51.2364C86.5431 51.2364 89.7856 47.5173 89.7856 42.6712C89.7856 37.938 86.5431 33.9935 81.0642 33.9935C75.4737 33.9935 72.3429 37.938 72.3429 42.6712Z" fill="white"/>
<path d="M124.336 23.4004H110.806V61.8305H124.336V23.4004Z" fill="white"/>
<path d="M177 42.6712C177 55.7444 166.266 63.0696 154.078 63.0696C141.891 63.0696 131.156 55.7444 131.156 42.6712C131.156 29.5982 141.891 22.1602 154.078 22.1602C166.378 22.1602 177 29.5982 177 42.6712ZM145.469 42.6712C145.469 47.5173 148.711 51.2364 154.19 51.2364C159.669 51.2364 162.912 47.5173 162.912 42.6712C162.912 37.938 159.669 33.9935 154.19 33.9935C148.6 33.9935 145.469 37.938 145.469 42.6712Z" fill="white"/>
<path d="M49.0855 12.8072L35.8915 18.104V5.48179L49.0855 0.0722656V12.8072Z" fill="white"/>
<path d="M124.225 12.8072L111.031 18.104V5.48179L124.225 0.0722656V12.8072Z" fill="white"/>
</svg>
