<svg width="253" height="45" viewBox="0 0 253 45" fill="none" xmlns="http://www.w3.org/2000/svg">
<path fill-rule="evenodd" clip-rule="evenodd" d="M27.349 43.3754C26.9217 43.7774 26.3617 44.0369 25.7723 44.004C12.573 43.2877 0 40.3639 0 28.6613C0 9.97074 14.6618 0.0078125 35.1846 0.0078125C55.7074 0.0078125 70.3692 9.97074 70.3692 28.6613C70.3692 40.9596 57.4757 43.7299 44.7442 44.1904C44.1474 44.2124 43.5912 43.9382 43.1675 43.5216C41.3293 41.7015 38.4375 40.5283 35.1846 40.5283C31.9317 40.5283 29.1909 41.6394 27.3453 43.3791L27.349 43.3754ZM24.5051 9.35674C20.3423 9.35674 17.5941 16.1802 17.5941 24.5935C17.5941 33.0068 19.7124 35.4117 23.8788 35.4117C28.0453 35.4117 31.4197 33.0105 31.4197 24.5935C31.4197 16.1765 28.6715 9.35674 24.5088 9.35674H24.5051ZM38.9569 24.5935C38.9569 16.1765 41.705 9.35674 45.8678 9.35674C50.0306 9.35674 52.7787 16.1802 52.7787 24.5935C52.7787 33.0068 50.6605 35.4117 46.4941 35.4117C42.3276 35.4117 38.9532 33.0105 38.9532 24.5935H38.9569Z" fill="#D9D9D9"/>
<path d="M94.9296 40.0171C102.806 40.0171 108.04 36.1101 108.04 30.2735C108.04 23.5962 103.554 19.1447 96.7752 19.1447C93.6329 19.1447 91.441 17.6133 91.29 15.2889C91.29 12.8657 92.8851 11.2832 95.3275 11.2832C97.221 11.2832 99.015 13.0631 99.8144 15.6836L105.646 12.3687C104.099 7.56997 100.113 4.35742 95.6774 4.35742C88.796 4.35742 84.2611 8.85646 84.3127 15.6324C84.3127 21.6153 88.5013 25.5734 94.7307 25.5734C98.4182 25.5734 100.912 27.1559 100.912 29.5315C100.912 31.6586 98.5177 33.0913 94.9296 33.0913C91.6878 33.0913 89.297 31.0154 88.8991 27.949L83.366 31.1652C83.9149 36.4574 88.5492 40.0171 94.9333 40.0171H94.9296Z" fill="#D9D9D9"/>
<path d="M126.445 39.965C137.261 39.965 144.441 32.9405 144.441 22.4074C144.441 11.8744 138.06 4.25781 128.438 4.25781C117.722 4.25781 110.542 11.5272 110.542 22.4074C110.542 33.2877 116.922 39.965 126.445 39.965ZM126.445 32.5458C121.708 32.5458 118.517 28.489 118.517 22.455C118.517 15.975 122.507 11.6734 128.438 11.6734C133.275 11.6734 136.465 15.975 136.465 22.455C136.465 28.489 132.475 32.5458 126.445 32.5458Z" fill="#D9D9D9"/>
<path d="M155.419 4.85156H147.94L148.438 39.4696H172.018V33.0409H155.817L155.419 4.85156Z" fill="#D9D9D9"/>
<path d="M188.445 39.965C199.261 39.965 206.44 32.9405 206.44 22.4074C206.44 11.8744 200.06 4.25781 190.438 4.25781C179.721 4.25781 172.542 11.5272 172.542 22.4074C172.542 33.2877 178.922 39.965 188.445 39.965ZM188.445 32.5458C183.707 32.5458 180.517 28.489 180.517 22.455C180.517 15.975 184.507 11.6734 190.438 11.6734C195.275 11.6734 198.465 15.975 198.465 22.455C198.465 28.489 194.475 32.5458 188.445 32.5458Z" fill="#D9D9D9"/>
<path d="M237.956 28.2448L233.27 14.744H225.791L221.106 28.1973L213.528 4.21094L206.948 7.67201L216.67 39.4722H224.646L229.531 25.4744L234.415 39.4722H242.391L252.161 7.67201L245.581 4.21094L237.956 28.2484V28.2448Z" fill="#D9D9D9"/>
</svg>
