<svg width="305" height="36" viewBox="0 0 305 36" fill="none" xmlns="http://www.w3.org/2000/svg">
<g clip-path="url(#clip0_439_798)">
<path d="M9.91571 34.7202H15.6313V8.42447H25.5036V3.67969H0V8.42447H9.91571V34.7202Z" fill="#D9D9D9"/>
<path d="M38.3659 30.1536H38.4524V31.0848C38.4524 33.3908 39.8813 34.7209 42.4793 34.7209H46.2031V30.1536H45.2938C44.1247 30.1536 43.6916 29.7102 43.6916 28.5129V18.0478C43.6916 13.1256 40.8338 9.57812 33.6027 9.57812C26.4583 9.57812 23.1242 12.9926 22.7777 18.2251H28.4934C28.6666 15.5202 30.6151 14.0125 33.6894 14.0125C36.2441 14.0125 38.2359 15.0767 38.2359 17.2939C38.2359 18.979 37.1534 19.9546 34.7718 19.9546H30.9181C26.1985 19.9546 21.8684 22.0831 21.8684 27.6704C21.8684 32.7699 25.4625 35.4748 30.0955 35.4748C33.776 35.4748 36.8502 33.7897 38.3659 30.1536ZM27.714 27.4487C27.714 25.5419 28.9264 24.0785 31.7843 23.9899L33.5595 23.9011C36.0276 23.8124 37.4132 23.0587 38.1492 21.5509H38.2359V23.8124C38.2359 28.8677 35.0316 30.9518 31.7843 30.9518C28.9264 30.9518 27.714 29.3555 27.714 27.4487Z" fill="#D9D9D9"/>
<path d="M48.9532 34.7203H54.4091V0.0878906H48.9532V34.7203Z" fill="#D9D9D9"/>
<path d="M69.5653 35.4748C75.454 35.4748 79.6108 32.1047 80.65 27.2268H75.0209C74.2849 29.5772 72.2932 31.0404 69.6518 31.0404C66.0146 31.0404 63.7197 28.2911 63.5465 24.1229H80.953V21.5953C80.953 13.7464 76.0601 9.57812 69.5219 9.57812C62.6371 9.57812 57.7443 14.4116 57.7443 22.5265C57.7443 30.597 62.5072 35.4748 69.5653 35.4748ZM63.5898 20.0877C63.9362 16.6731 65.8847 14.0125 69.6518 14.0125C73.3756 14.0125 75.454 16.5401 75.454 20.0877H63.5898Z" fill="#D9D9D9"/>
<path d="M84.2411 34.7209H89.6969V20.7527C89.6969 15.8749 92.3815 14.0568 95.1094 14.0568C97.794 14.0568 99.6126 15.8306 99.6126 20.0877V34.7209H105.068V19.4224C105.068 12.9482 101.864 9.57812 97.0146 9.57812C93.7239 9.57812 91.1259 11.1745 89.6969 14.0568H89.6104V10.332H84.2411V34.7209Z" fill="#D9D9D9"/>
<path d="M117.89 34.7202H124.212V30.1529H119.752C117.933 30.1529 116.894 29.3548 116.894 27.2705V14.8987H124.082V10.3312H116.894V3.67969H111.395V10.3312H106.805V14.8987H111.395V28.1131C111.395 32.5475 113.646 34.7202 117.89 34.7202Z" fill="#D9D9D9"/>
<path d="M135.97 34.7202H141.685V23.0136H149.609C155.671 23.0136 160.045 19.5547 160.045 13.391C160.045 7.27153 155.671 3.67969 149.609 3.67969H135.97V34.7202ZM141.685 18.2688V8.42447H148.397C151.948 8.42447 154.156 10.3756 154.156 13.391C154.156 16.4063 151.948 18.2688 148.397 18.2688H141.685Z" fill="#D9D9D9"/>
<path d="M163.105 34.721H168.56V20.7084C168.56 16.7175 170.076 14.8994 173.367 14.8994H176.657V10.332H174.363C171.202 10.332 169.686 11.751 168.56 14.1899H168.474V10.332H163.105V34.721Z" fill="#D9D9D9"/>
<path d="M189.05 35.4748C195.762 35.4748 201.132 30.8631 201.132 22.5265C201.132 14.1899 195.762 9.57812 189.05 9.57812C182.338 9.57812 176.97 14.1899 176.97 22.5265C176.97 30.8631 182.338 35.4748 189.05 35.4748ZM182.815 22.5265C182.815 16.8948 185.284 14.0125 189.05 14.0125C192.818 14.0125 195.285 16.8948 195.285 22.5265C195.285 28.1582 192.818 31.0404 189.05 31.0404C185.284 31.0404 182.815 28.1582 182.815 22.5265Z" fill="#D9D9D9"/>
<path d="M212.726 34.7202H219.049V30.1529H214.588C212.769 30.1529 211.73 29.3548 211.73 27.2705V14.8987H218.919V10.3312H211.73V3.67969H206.231V10.3312H201.643V14.8987H206.231V28.1131C206.231 32.5475 208.484 34.7202 212.726 34.7202Z" fill="#D9D9D9"/>
<path d="M231.866 35.4748C238.576 35.4748 243.946 30.8631 243.946 22.5265C243.946 14.1899 238.576 9.57812 231.866 9.57812C225.154 9.57812 219.784 14.1899 219.784 22.5265C219.784 30.8631 225.154 35.4748 231.866 35.4748ZM225.63 22.5265C225.63 16.8948 228.098 14.0125 231.866 14.0125C235.632 14.0125 238.101 16.8948 238.101 22.5265C238.101 28.1582 235.632 31.0404 231.866 31.0404C228.098 31.0404 225.63 28.1582 225.63 22.5265Z" fill="#D9D9D9"/>
<path d="M258.326 35.4748C264.95 35.4748 268.804 31.1292 269.498 25.8967H263.868C263.565 28.2024 261.833 31.0404 258.326 31.0404C254.558 31.0404 252.091 27.8034 252.091 22.5265C252.091 17.56 254.212 14.0125 258.326 14.0125C261.919 14.0125 263.651 16.6288 263.868 19.6441H269.498C268.978 13.9238 265.167 9.57812 258.326 9.57812C250.749 9.57812 246.244 14.6776 246.244 22.5265C246.244 30.3753 251.095 35.4748 258.326 35.4748Z" fill="#D9D9D9"/>
<path d="M283.516 35.4748C290.228 35.4748 295.598 30.8631 295.598 22.5265C295.598 14.1899 290.228 9.57812 283.516 9.57812C276.806 9.57812 271.437 14.1899 271.437 22.5265C271.437 30.8631 276.806 35.4748 283.516 35.4748ZM277.281 22.5265C277.281 16.8948 279.75 14.0125 283.516 14.0125C287.284 14.0125 289.752 16.8948 289.752 22.5265C289.752 28.1582 287.284 31.0404 283.516 31.0404C279.75 31.0404 277.281 28.1582 277.281 22.5265Z" fill="#D9D9D9"/>
<path d="M298.948 34.7203H304.404V0.0878906H298.948V34.7203Z" fill="#D9D9D9"/>
</g>
<defs>
<clipPath id="clip0_439_798">
<rect width="304.536" height="35.3863" fill="white" transform="translate(0 0.0878906)"/>
</clipPath>
</defs>
</svg>
