<svg width="127" height="75" viewBox="0 0 127 75" fill="none" xmlns="http://www.w3.org/2000/svg">
<mask id="mask0_541_288" style="mask-type:luminance" maskUnits="userSpaceOnUse" x="0" y="0" width="127" height="75">
<path d="M126.568 0.224609H0.00500488V74.0341H126.568V0.224609Z" fill="white"/>
</mask>
<g mask="url(#mask0_541_288)">
<path fill-rule="evenodd" clip-rule="evenodd" d="M60.1972 23.7324V18.4167H62.8493V23.7324H60.1972ZM60.1972 15.7588V10.4431H62.8493V15.7588H60.1972ZM46.9172 26.3804H60.1972V23.7225H52.2312V18.4068H60.1972V15.7489H52.2312V10.4332H60.1972V7.77539H46.9172V26.3705V26.3804ZM76.1195 18.4068V15.7489H78.7814V18.4068H76.1195ZM70.8153 26.3804H76.1195V18.4068H73.4674V15.7489H70.8153V7.78524H65.5014V15.7588H68.1534V18.4167H70.8153V26.3902V26.3804ZM78.7814 15.7588H81.4335V7.78524H78.7814V15.7588Z" fill="white"/>
<path fill-rule="evenodd" clip-rule="evenodd" d="M68.1633 45.1914V31.9021H70.8154V45.1914H68.1633ZM54.8833 47.8394H68.1633V45.1914H60.1974V31.9021H68.1633V29.2443H54.8833V47.8394ZM84.0856 39.8658V37.2178H86.7475V39.8658H84.0856ZM78.7815 47.8394H84.0856V39.8658H81.4335V37.2178H78.7815V29.2443H73.4676V37.2178H76.1196V39.8658H78.7815V47.8394ZM86.7475 37.2178H89.3996V29.2443H86.7475V37.2178ZM105.332 45.1914V31.9021H107.984V45.1914H105.332ZM94.7037 47.8394H105.332V45.1914H97.3656V31.9021H105.332V29.2443H94.7037V31.9021H92.0517V45.1914H94.7037V47.8394ZM123.915 47.8394V42.5237H126.568V47.8394H123.915ZM123.915 39.8658V31.8922H126.568V39.8658H123.915ZM110.636 47.8394H115.95V42.5237H123.915V39.8658H115.95V31.8922H123.915V29.2344H110.636V47.8295V47.8394Z" fill="white"/>
<path fill-rule="evenodd" clip-rule="evenodd" d="M46.9171 69.31V66.6521H57.5352V61.3364H49.5692V58.6883H46.9171V53.3628H49.5692V50.7148H62.8492V53.3628H52.2213V58.6883H60.1873V61.3364H62.8394V66.6521H60.1873V69.31H46.9073H46.9171ZM65.5013 69.31V66.6521H70.8153V53.3628H65.5013V50.7148H81.4334V53.3628H76.1194V66.6521H81.4334V69.31H65.5013ZM97.3655 66.6521V53.3628H100.018V66.6521H97.3655ZM84.0855 69.31H97.3655V66.6521H89.3994V53.3628H97.3655V50.7148H84.0855V69.31ZM102.67 69.31V50.7148H118.602V53.3628H107.974V58.6883H113.278V61.3364H107.974V66.6521H118.602V69.31H102.67Z" fill="white"/>
<path fill-rule="evenodd" clip-rule="evenodd" d="M5.01454 27.0877H10.024V29.2731H15.2496V31.675H20.2591V22.7269H17.6463V20.325H20.2591V15.9543H15.2594V13.7689H10.0142V11.5835H5.00471V9.18164H2.60803V24.9024H5.00471V27.0877H5.01454ZM10.024 18.1297V15.9444H12.6368V18.1297H10.024ZM10.024 18.1297V20.3151H7.62732V18.1297H10.024ZM7.62732 20.3151V22.717H5.01454V20.3151H7.62732ZM17.6463 22.717V24.9024H15.2496V22.717H17.6463ZM15.2496 24.9024V27.0877H12.6368V24.9024H15.2496Z" fill="white"/>
<path fill-rule="evenodd" clip-rule="evenodd" d="M7.41097 67.9215H12.2044V69.8903H17.2139V71.8591H22.0072V63.7772H19.6105V61.8085H22.0072V57.6544H17.2139V55.6954H12.2044V53.7266H7.41097V51.7578H5.01428V65.9527H7.41097V67.9215ZM12.2044 59.8397V57.6544H14.601V59.8397H12.2044ZM12.2044 59.8397V61.8085H9.80765V59.8397H12.2044ZM9.80765 61.8085V63.7772H7.41097V61.8085H9.80765ZM19.6105 63.7772V65.9626H17.2139V63.7772H19.6105ZM17.2139 65.9626V67.9314H14.601V65.9626H17.2139Z" fill="white"/>
<path fill-rule="evenodd" clip-rule="evenodd" d="M10.0238 4.8123V6.99764H5.01428V9.18299H10.0238V11.5849H15.2591V13.7604H25.2781V11.5849H30.2875L30.2974 9.18299H35.3069V6.99764H30.2974V4.8123H25.2781V2.62695H15.2591V4.8123H10.0238Z" fill="white"/>
<path fill-rule="evenodd" clip-rule="evenodd" d="M32.6843 13.7596V15.9448H30.2877V13.7596H25.2782V15.9448H22.6653V31.6656H25.2782V29.2637H30.2877V27.0783H35.297V24.8931H37.9099V11.5742H35.297V13.7596H32.6843ZM30.2877 22.7077V20.3058H32.6843V22.7077H30.2877ZM30.2877 22.7077V24.8931H27.6748V22.7077H30.2877ZM27.6748 24.8931V27.0783H25.2782V24.8931H27.6748Z" fill="white"/>
<path fill-rule="evenodd" clip-rule="evenodd" d="M20.701 47.3967H25.2783V49.3654H29.8555V51.5507H34.4329V43.4689H32.2523V41.2836H34.423V37.3559H29.8458V35.387H25.2684V33.8613H18.5106L18.5596 45.6444H20.701V47.4064V47.3967ZM25.2783 39.3148V37.3461H27.6749V39.3148H25.2783ZM25.2783 39.3148V41.2836H23.0977V39.3148H25.2783ZM23.0977 41.2836V43.4689H20.701V41.2836H23.0977ZM32.2523 43.4689V45.4378H29.8555V43.4689H32.2523ZM29.8555 45.4378V47.4064H27.6749V45.4378H29.8555Z" fill="white"/>
<path fill-rule="evenodd" clip-rule="evenodd" d="M34.2167 55.6955V57.6643H31.8201V55.6955H26.8106V57.6643H24.4237V71.8592H26.8203V69.8905H31.8298V67.9217H36.6232V65.9529H39.0101L39.0789 53.707H36.6232V55.6857H34.2266L34.2167 55.6955ZM31.8201 63.7774V61.8086H34.2167V63.7774H31.8201ZM31.8201 63.7774V65.9627H29.2072V63.7774H31.8201ZM29.2072 65.9627V67.9316H26.8106V65.9627H29.2072Z" fill="white"/>
<path fill-rule="evenodd" clip-rule="evenodd" d="M45.984 35.377V37.3457H43.5874V35.377H39.0101V37.3457H36.8295V51.5407H39.0101V49.3553H43.5776V47.3865H48.1549V45.4177H50.5515V33.4082H48.1549V35.377H45.9743H45.984ZM43.5874 43.4588V41.2734H45.984V43.4588H43.5874ZM43.5874 43.4588V45.4276H41.4068V43.4588H43.5874ZM41.4068 45.4276V47.3964H39.0101V45.4276H41.4068Z" fill="white"/>
<path fill-rule="evenodd" clip-rule="evenodd" d="M12.2044 47.6138V49.5827H7.41101V51.768H12.2044V53.7368H17.2139V55.7055H26.8006V53.7368H31.8101L29.8554 53.7171V51.5515H25.2683V49.3661H20.7008V47.5352C17.8032 47.5352 15.161 47.6237 12.1945 47.6237L12.2044 47.6138Z" fill="white"/>
<path fill-rule="evenodd" clip-rule="evenodd" d="M30.2877 29.2639V31.6658H25.2783V33.418H29.8555V35.3868H39.0101V33.418H43.5875V31.2328H48.1647V29.2639H43.5875L43.5677 27.0293C40.6701 27.0293 38.1654 27.0786 35.307 27.0786V29.2639H30.2975H30.2877Z" fill="white"/>
<path d="M32.6846 11.5742H30.288V13.7596H32.6846V11.5742Z" fill="white"/>
<path fill-rule="evenodd" clip-rule="evenodd" d="M31.8201 55.6853L34.2169 55.6951L34.207 53.7559H31.8005L31.8201 55.6853Z" fill="white"/>
<path d="M45.984 33.418H43.5873V35.3868H45.984V33.418Z" fill="white"/>
</g>
</svg>
