<svg width="245" height="32" viewBox="0 0 245 32" fill="none" xmlns="http://www.w3.org/2000/svg">
<g clip-path="url(#clip0_439_753)">
<path d="M9.70367 27.4492C11.4744 27.4492 16.8575 27.4492 16.8575 27.4492V32H7.93293C6.94131 32 6.02053 31.6388 5.2414 31.0609C3.96646 30.0497 3.47066 28.3883 3.61232 26.7269L4.46227 18.2754H0L0.424978 13.7246H4.88725L5.87887 4.26185V4.11738C6.37468 2.02257 7.01214 0 10.3411 0H24.0821V4.55079H11.5452C10.2703 4.55079 10.1995 5.05643 10.0578 6.79007L8.14542 25.2099C8.00376 27.1603 8.00376 27.4492 9.70367 27.4492Z" fill="white"/>
<path d="M40.5855 13.7246L40.1605 18.2754H35.6983L34.7066 27.8104C34.4233 30.772 32.5817 32 29.8194 32H21.3198V27.4492H28.9694C30.2444 27.4492 30.3152 26.7991 30.5277 25.2099L32.3693 6.79007C32.5818 4.76749 32.5817 4.55079 30.811 4.55079H28.6153V0H37.5398L36.1232 13.7246H40.5855Z" fill="white"/>
<path d="M76.9212 32H63.9593C62.9677 32 62.0469 31.7111 61.2678 31.0609C59.9929 30.0497 59.3554 28.3883 59.6387 26.7269L61.9053 4.26185V4.11738C62.1178 1.95034 63.0385 0 66.3675 0H80.1085L79.6835 4.47856C79.6835 4.47856 69.4132 4.47856 68.5633 4.47856C67.7841 4.47856 66.2967 5.05643 66.0842 6.71783C66.0842 6.71783 64.3135 24.0542 64.1718 25.2099C63.9593 27.088 64.5968 27.4492 66.1551 27.4492C67.3592 27.4492 77.3461 27.4492 77.3461 27.4492L76.9212 32Z" fill="white"/>
<path d="M104.12 27.4492L103.695 32C103.482 32 103.199 32 102.987 32C101.57 32 99.9409 31.8555 98.7368 30.5553C97.816 29.544 97.4619 28.0993 97.6744 26.2934C97.7452 25.3544 98.0285 22.9706 98.3118 20.009C98.3827 19.5756 98.1702 19.0699 97.8869 18.7088C97.6035 18.4198 97.2494 18.2754 96.8244 18.2754H92.0788C89.4581 18.2754 89.1748 20.8036 89.1748 20.8036C88.8915 23.6207 88.679 25.7878 88.5373 26.7268C88.3249 28.9661 87.4041 30.5553 85.775 31.3499C84.7834 31.8555 83.7918 31.9277 83.5793 31.9277C83.4376 31.9277 81.5252 31.9277 81.3835 31.9277L81.8794 27.3769C83.7209 27.3769 84.1459 26.6546 84.2876 25.1377C84.7834 19.7923 86.6249 2.52819 86.8374 -0.0722656H91.2997C91.2997 -0.0722656 90.5914 7.07898 89.8831 13.9413C90.5206 13.7246 91.2289 13.6523 92.008 13.5801H96.7536C97.4619 13.5801 98.1702 13.7246 98.8077 14.0135C99.4451 7.87356 100.083 1.44466 100.224 -0.0722656H104.687C104.687 0.0722039 102.278 24.1264 102.137 25.1377C101.995 26.7268 101.924 27.4492 104.12 27.4492Z" fill="white"/>
<path d="M146.547 4.47902C144.989 4.47902 144.422 5.2736 144.351 5.70701L142.651 22.7544C142.439 24.5603 142.368 25.9327 142.226 26.6551C141.943 29.4723 140.526 30.7725 139.393 31.3504C138.331 31.856 137.268 31.9282 136.347 31.9282C136.135 31.9282 135.214 31.9282 135.072 31.9282C134.931 31.9282 135.002 31.9282 134.86 31.9282L135.285 27.4497C137.551 27.4497 137.835 26.7273 137.906 25.2104L139.889 5.34584C140.172 2.45645 141.66 1.22846 142.793 0.650579C144.068 0.000465646 145.484 0.0727004 146.476 0.0727004C146.618 0.0727004 146.759 0.0727004 146.901 0.0727004L146.547 4.47902Z" fill="white"/>
<path d="M130.893 5.27357C131.177 2.16748 131.389 0.000434799 126.998 0.000434799C125.652 0.000434799 119.844 0.000434799 119.844 0.000434799C118.852 0.000434799 117.436 -0.0717999 116.161 0.578313C114.957 1.15619 113.54 2.38418 113.257 5.27357C113.257 5.27357 111.415 24.4158 111.273 25.1381C111.061 26.7273 110.424 27.3774 108.653 27.3774L108.157 31.9282C108.299 31.9282 108.228 31.9282 108.369 31.9282C108.582 31.9282 109.432 31.9282 109.644 31.9282C110.565 31.9282 111.628 31.856 112.69 31.3503C113.823 30.7724 115.24 29.5445 115.523 26.6551C115.594 25.9327 115.736 24.5603 115.948 22.7544L116.161 20.7318C116.232 20.2984 116.586 18.2036 118.923 18.2036H123.669C124.094 18.2036 124.448 18.3481 124.731 18.637C125.014 18.9982 125.085 19.5038 125.085 19.9372C124.731 23.26 124.448 25.9327 124.448 26.2217C124.235 28.0275 124.66 29.4722 125.51 30.4835C126.714 31.7837 128.343 31.9282 129.76 31.9282C129.973 31.9282 130.256 31.9282 130.468 31.9282L130.893 27.3774C128.698 27.3774 128.768 26.6551 128.981 25.0659C128.981 24.1991 130.468 9.60766 130.893 5.27357ZM123.598 13.6528H118.994H118.781C118.002 13.6528 117.436 13.7973 116.727 14.014L117.577 5.77922C117.719 4.69569 117.719 4.55123 119.773 4.55123H124.235C126.502 4.55123 126.431 4.69569 126.36 5.77922C126.36 5.77922 125.935 9.67989 125.51 14.0862C124.873 13.7973 124.306 13.6528 123.598 13.6528Z" fill="white"/>
<path d="M172.683 27.4492L172.258 32H169.212C169.071 32 169 32 168.858 32C168.716 32 168.575 32 168.504 32C166.733 32 163.687 31.7111 162.413 27.1603C162.2 26.2935 158.659 11.1242 157.667 6.93454C156.959 13.0023 155.117 31.7833 155.117 32H150.655C150.655 31.7833 153.134 5.77878 153.134 5.77878C153.134 5.34537 152.992 4.55079 150.938 4.55079L151.434 0H155.755C156.817 0 157.95 0 159.084 0.794582C160.075 1.51693 160.996 2.60045 161.633 4.69526L166.662 25.7156C167.158 20.8036 169.283 0 169.283 0H173.745C173.745 0.216704 171.195 25.1377 171.195 25.1377C170.983 26.7269 170.912 27.4492 172.683 27.4492Z" fill="white"/>
<path d="M200.448 0L200.023 4.47856H195.49L193.153 27.5937C192.94 29.833 191.807 31.9278 188.478 31.9278H176.649L177.074 27.377H184.228C188.69 27.377 188.761 26.6546 188.903 25.1377C189.045 23.5485 191.028 4.47856 191.028 4.47856H182.103L182.528 0L200.448 0Z" fill="white"/>
<path d="M210.931 4.47856L209.939 14.158C210.435 13.7968 211.498 13.6524 212.631 13.6524H216.81L216.385 18.2032H212.702C210.719 18.2032 209.514 18.781 209.231 21.0926L208.806 25.1377C208.665 26.6546 208.665 27.377 211.002 27.377H219.926L219.431 31.9278H209.019C207.39 31.8555 206.115 31.3499 205.265 30.4108C204.415 29.3995 204.061 28.0993 204.202 26.4379L206.398 4.47856H204.344L204.769 0H222.618L222.193 4.47856H210.931Z" fill="white"/>
<path d="M234.801 32L237.776 4.47856H244.504L245 0H227.151L226.726 4.47856H233.313L230.551 32H234.801Z" fill="white"/>
</g>
<defs>
<clipPath id="clip0_439_753">
<rect width="245" height="32" fill="white"/>
</clipPath>
</defs>
</svg>
