<svg width="194" height="53" viewBox="0 0 194 53" fill="none" xmlns="http://www.w3.org/2000/svg">
<mask id="mask0_439_624" style="mask-type:luminance" maskUnits="userSpaceOnUse" x="0" y="0" width="194" height="53">
<path d="M193.452 0.449219H0.594971V52.2321H193.452V0.449219Z" fill="white"/>
</mask>
<g mask="url(#mask0_439_624)">
<path d="M46.9933 23.3365C46.9933 29.9489 52.3274 35.3313 58.8803 35.3313H68.5253V29.4461H58.8803C55.5424 29.4461 52.8255 26.7047 52.8255 23.3365C52.8255 19.9684 55.5424 17.2269 58.8803 17.2269H68.5253V11.3418H58.8803C52.3274 11.3418 46.9933 16.7241 46.9933 23.3365Z" fill="white"/>
<path d="M94.5378 19.9415C94.5378 15.1992 90.7149 11.3418 86.0153 11.3418H73.0059V35.3313H78.8381V28.5413H83.0926L86.457 35.3313H92.9768L89.2669 27.8509C92.4488 26.5238 94.5378 23.4405 94.5378 19.9415ZM86.0153 22.6595H78.8381V17.2269H86.0153C87.5 17.2269 88.7056 18.4435 88.7056 19.9415C88.7056 21.4397 87.5 22.6595 86.0153 22.6595Z" fill="white"/>
<path d="M104.774 11.3418L96.1317 35.3313H102.336L103.86 31.1018H114.263L115.787 35.3313H121.991L113.346 11.3418H104.774ZM105.979 25.2201L108.859 17.2269H109.257L112.14 25.2201H105.979Z" fill="white"/>
<path d="M123.025 23.3366C123.025 29.9489 128.358 35.3313 134.911 35.3313H144.557V29.4462H134.911C131.574 29.4462 128.857 26.7048 128.857 23.3366C128.86 19.9684 131.577 17.2269 134.911 17.2269H144.557V11.3418H134.911C128.358 11.3418 123.025 16.7242 123.025 23.3366Z" fill="white"/>
<path d="M164.481 11.3418L162.594 13.3996L154.868 21.7849V11.3418H149.037V35.3313H154.868V29.845L157.14 27.3282L164.481 35.3313H171.235L161.23 23.3366L171.814 11.3418H164.481Z" fill="white"/>
<path d="M181.565 17.2235H193.452V11.3418H181.565C177.484 11.3418 174.166 14.6932 174.166 18.8087C174.166 22.9277 177.487 26.2757 181.565 26.2757H186.049C186.916 26.2757 187.621 26.9863 187.621 27.861C187.621 28.7358 186.916 29.4462 186.049 29.4462H174.166V35.3313H186.052C190.134 35.3313 193.455 31.9798 193.455 27.8643C193.455 23.7455 190.134 20.3973 186.052 20.3973H181.569C180.705 20.3973 179.998 19.6869 179.998 18.8121C179.998 17.9375 180.702 17.2235 181.565 17.2235Z" fill="white"/>
<path d="M38.6837 0.449219L2.36206 21.5665L16.3878 31.6208V41.9802L23.8209 37.154V22.6424L38.6837 0.449219Z" fill="white"/>
<path d="M35.3721 29.6571L23.8207 22.6426V37.1543L35.3721 29.6571Z" fill="white"/>
<path d="M16.3878 31.6211V41.9804L0.594971 52.2324L16.3878 31.6211Z" fill="white"/>
</g>
</svg>
