<svg width="222" height="46" viewBox="0 0 222 46" fill="none" xmlns="http://www.w3.org/2000/svg">
<g clip-path="url(#clip0_439_742)">
<path d="M48.9926 24.1277C48.0298 23.3573 46.6191 23.5024 45.8466 24.4626C37.2371 35.0806 29.5792 39.0889 24.6643 40.585C19.2456 42.2262 14.3419 41.7238 11.1959 39.1893C6.44887 35.3597 9.58368 28.6495 11.1511 25.9476C11.2742 25.7243 11.4086 25.5122 11.5317 25.2889C15.148 26.2714 19.2008 26.4389 24.4292 25.3447C31.1019 23.9491 37.1587 19.8626 40.2376 14.6821C41.9729 11.7568 42.5215 8.75342 41.749 6.23012C40.8981 3.40536 39.0508 1.42915 36.4198 0.491284C33.5201 -0.5359 23.3768 -1.95386 9.58368 19.8738C7.59084 18.9918 5.60919 17.8083 3.41483 16.435C2.37363 15.7874 0.985359 16.0889 0.324811 17.1384C-0.313345 18.1656 0.00013531 19.5389 1.04134 20.1976C3.17972 21.5374 5.19495 22.7432 7.26616 23.7034C2.81026 31.4073 3.2245 38.4859 8.37454 42.6505C11.1063 44.8612 14.6889 45.9889 18.6858 45.9889C21.0033 45.9889 23.4552 45.6092 25.963 44.85C33.8672 42.4495 41.9393 36.3646 49.3173 27.2651C50.0898 26.3049 49.9443 24.8981 48.9814 24.1277H48.9926ZM34.9308 4.68934C36.2183 5.14711 37.0244 6.04031 37.4722 7.50293C37.8641 8.82041 37.4834 10.551 36.3974 12.3932C33.968 16.4685 28.9187 19.8403 23.5112 20.968C19.7158 21.7607 16.7042 21.8054 14.006 21.2694C26.2317 2.32235 34.0239 4.36556 34.9308 4.68934Z" fill="white"/>
<path d="M80.3406 33.4608H67.8685V23.5686H79.0866C79.2434 23.5686 79.3665 23.4458 79.3665 23.2895V20.1856C79.3665 20.0293 79.2434 19.9064 79.0866 19.9064H67.8685V10.8516H80.139C80.2958 10.8516 80.4189 10.7288 80.4189 10.5725V7.46858C80.4189 7.31227 80.2958 7.18945 80.139 7.18945H64.0956C63.9388 7.18945 63.8157 7.31227 63.8157 7.46858V36.855C63.8157 37.0113 63.9388 37.1341 64.0956 37.1341H80.3518C80.5085 37.1341 80.6316 37.0113 80.6316 36.855V33.7511C80.6316 33.5948 80.5085 33.472 80.3518 33.472L80.3406 33.4608Z" fill="white"/>
<path d="M112.226 16.9815C111.655 16.2669 110.938 15.7645 110.076 15.4854C109.237 15.2062 108.207 15.0723 106.998 15.0723C105.531 15.0723 104.187 15.3961 103.012 16.0325C102.004 16.5795 101.165 17.3164 100.526 18.232C100.045 17.149 99.4069 16.3674 98.612 15.8873C97.7163 15.3402 96.552 15.0723 95.1637 15.0723C93.5179 15.0723 92.1632 15.3737 91.1332 15.9766C90.2152 16.5126 89.3755 17.1825 88.659 17.9863L88.1216 15.798C88.088 15.6752 87.976 15.5859 87.8529 15.5859H85.4906C85.3338 15.5859 85.2107 15.7087 85.2107 15.865V36.8553C85.2107 37.0116 85.3338 37.1344 85.4906 37.1344H88.8605C89.0172 37.1344 89.1404 37.0116 89.1404 36.8553V22.4524C89.4651 21.347 90.036 20.4203 90.8421 19.6834C91.637 18.9577 92.6558 18.5781 93.8762 18.5781C94.6711 18.5781 95.3092 18.7121 95.7795 18.9689C96.2497 19.2145 96.6079 19.6053 96.8654 20.1077C97.1341 20.6325 97.3133 21.3024 97.4028 22.0951C97.5036 22.9101 97.5484 23.8815 97.5484 24.9757V36.8553C97.5484 37.0116 97.6715 37.1344 97.8283 37.1344H101.198C101.355 37.1344 101.478 37.0116 101.478 36.8553V22.8655C101.803 21.481 102.34 20.4092 103.079 19.6723C103.807 18.9465 104.848 18.5781 106.169 18.5781C106.964 18.5781 107.613 18.6897 108.095 18.913C108.554 19.1252 108.923 19.4601 109.192 19.8956C109.461 20.3533 109.651 20.9339 109.741 21.6373C109.841 22.363 109.886 23.2339 109.886 24.2276V36.8664C109.886 37.0228 110.009 37.1456 110.166 37.1456H113.536C113.693 37.1456 113.816 37.0228 113.816 36.8664V24.2723C113.816 22.497 113.693 21.0121 113.458 19.8509C113.211 18.6674 112.808 17.7072 112.248 17.0038L112.226 16.9815Z" fill="white"/>
<path d="M127.967 15.0737C126.612 15.0737 125.381 15.3416 124.329 15.8775C123.388 16.3576 122.582 17.0275 121.944 17.8873L121.418 15.7882C121.384 15.6654 121.272 15.5761 121.149 15.5761H118.831C118.675 15.5761 118.552 15.6989 118.552 15.8552V45.2416C118.552 45.3979 118.675 45.5208 118.831 45.5208H122.201C122.358 45.5208 122.481 45.3979 122.481 45.2416V36.9348C123.052 37.1581 123.59 37.3368 124.105 37.4373C124.732 37.5712 125.571 37.6271 126.624 37.6271C128.113 37.6271 129.49 37.3479 130.721 36.8008C131.942 36.2538 133.005 35.4722 133.867 34.4674C134.729 33.4625 135.401 32.2232 135.882 30.7829C136.353 29.3538 136.588 27.7125 136.588 25.9261C136.588 22.13 135.871 19.3387 134.461 17.6416C133.039 15.9334 130.856 15.0625 127.967 15.0625V15.0737ZM132.524 25.8926C132.524 28.6169 131.975 30.6936 130.878 32.078C129.781 33.4625 128.348 34.1324 126.489 34.1324C125.459 34.1324 124.631 34.0319 124.004 33.8309C123.433 33.6523 122.918 33.3843 122.47 33.0606V22.8222C122.795 21.3931 123.354 20.3101 124.127 19.6178C124.899 18.9256 125.974 18.5795 127.329 18.5795C128.281 18.5795 129.098 18.747 129.747 19.0931C130.385 19.428 130.923 19.9193 131.326 20.5334C131.74 21.1586 132.042 21.929 132.233 22.8334C132.423 23.7489 132.524 24.7873 132.524 25.9038V25.8926Z" fill="white"/>
<path d="M155.318 31.4296C155.318 30.0116 155.363 28.4931 155.441 26.9077C155.52 25.3111 155.565 23.6587 155.565 21.9839C155.565 21.2135 155.486 20.432 155.33 19.6616C155.162 18.8689 154.837 18.132 154.355 17.4732C153.863 16.8033 153.146 16.2563 152.228 15.8543C151.31 15.4524 150.09 15.2402 148.601 15.2402C147.112 15.2402 145.533 15.3965 144.1 15.7092C142.667 16.0218 141.38 16.5131 140.294 17.1718C140.171 17.2388 140.126 17.3839 140.182 17.5179L141.234 20.0747C141.268 20.1529 141.324 20.2087 141.402 20.231C141.436 20.231 141.458 20.2422 141.492 20.2422C141.536 20.2422 141.592 20.231 141.637 20.2087C142.018 19.9854 142.466 19.7844 142.958 19.6058C143.451 19.4271 143.999 19.2708 144.57 19.1368C145.13 19.014 145.69 18.9135 146.227 18.8354C146.765 18.7684 147.269 18.7237 147.728 18.7237C149.273 18.7237 150.336 19.0029 150.896 19.5611C151.456 20.1194 151.736 21.1354 151.736 22.598C151.736 23.1786 151.702 23.8373 151.635 24.5519C151.333 24.5184 151.03 24.4961 150.728 24.4961H149.575C148.019 24.4961 146.574 24.6077 145.298 24.8198C143.999 25.032 142.869 25.4004 141.928 25.9029C140.977 26.4164 140.226 27.1087 139.7 27.9796C139.174 28.8504 138.905 29.9334 138.905 31.2063C138.905 32.1665 139.073 33.0373 139.409 33.7965C139.745 34.5558 140.215 35.2145 140.797 35.7616C141.38 36.3087 142.085 36.7218 142.891 37.0121C143.686 37.3024 144.57 37.4475 145.488 37.4475C146.407 37.4475 147.235 37.347 147.963 37.1461C148.679 36.9451 149.317 36.6883 149.877 36.3868C150.437 36.0742 150.918 35.7281 151.31 35.3262C151.613 35.0247 151.881 34.7121 152.105 34.3995L152.889 36.9898C152.922 37.1126 153.034 37.1907 153.158 37.1907H155.643C155.733 37.1907 155.811 37.1461 155.867 37.0791C155.923 37.0121 155.934 36.9228 155.912 36.8334C155.688 36.0742 155.542 35.2257 155.453 34.3213C155.374 33.4169 155.33 32.4344 155.33 31.4072L155.318 31.4296ZM149.485 27.6334C149.877 27.6334 150.269 27.6334 150.672 27.6558C150.986 27.6669 151.299 27.6781 151.601 27.7004V30.8713C151.467 31.1951 151.265 31.5412 151.008 31.8873C150.728 32.2558 150.381 32.6019 149.956 32.9033C149.53 33.2048 149.015 33.4616 148.433 33.6626C147.84 33.8635 147.168 33.964 146.418 33.964C145.399 33.964 144.559 33.6737 143.91 33.0931C143.261 32.5126 142.947 31.7868 142.947 30.8825C142.947 30.2461 143.115 29.7325 143.451 29.3194C143.798 28.8951 144.268 28.5601 144.862 28.3145C145.466 28.0577 146.183 27.8791 146.978 27.7897C147.784 27.6893 148.634 27.6446 149.497 27.6446L149.485 27.6334Z" fill="white"/>
<path d="M170.735 33.327C170.735 33.327 170.656 33.3046 170.612 33.3046C170.578 33.3046 170.544 33.3046 170.511 33.327C169.906 33.5726 169.346 33.7736 168.854 33.9299C168.372 34.075 167.779 34.1532 167.085 34.1532C166.312 34.1532 165.786 33.8964 165.473 33.3828C165.137 32.8245 164.969 31.842 164.969 30.4352V19.0804H170.41C170.567 19.0804 170.69 18.9575 170.69 18.8012V15.8648C170.69 15.7085 170.567 15.5857 170.41 15.5857H164.969V10.7401C164.969 10.6507 164.924 10.5726 164.857 10.5168C164.812 10.4833 164.745 10.4609 164.689 10.4609C164.667 10.4609 164.633 10.4609 164.611 10.4609L161.241 11.4323C161.118 11.4658 161.039 11.5774 161.039 11.7003V15.5745H158.039C157.882 15.5745 157.759 15.6973 157.759 15.8537V18.7901C157.759 18.9464 157.882 19.0692 158.039 19.0692H161.039V31.0493C161.039 33.3939 161.398 35.0352 162.148 36.0624C162.898 37.1007 164.196 37.6255 165.999 37.6255C167.063 37.6255 168.059 37.5138 168.977 37.2794C169.884 37.0561 170.735 36.7546 171.518 36.375C171.642 36.3192 171.709 36.174 171.664 36.0401L170.903 33.4833C170.88 33.4051 170.824 33.3493 170.757 33.3158L170.735 33.327Z" fill="white"/>
<path d="M189.667 16.9826C189.062 16.268 188.29 15.7656 187.372 15.4865C186.476 15.2185 185.412 15.0734 184.214 15.0734C182.658 15.0734 181.337 15.3413 180.274 15.8773C179.367 16.335 178.561 16.9379 177.878 17.6637V7.45881C177.878 7.3025 177.755 7.17969 177.598 7.17969H174.228C174.071 7.17969 173.948 7.3025 173.948 7.45881V36.8452C173.948 37.0015 174.071 37.1243 174.228 37.1243H177.598C177.755 37.1243 177.878 37.0015 177.878 36.8452V22.9001C178.169 21.6384 178.829 20.5889 179.837 19.785C180.845 18.9811 181.998 18.568 183.24 18.568C184.125 18.568 184.841 18.702 185.368 18.9588C185.894 19.2156 186.319 19.5952 186.622 20.0976C186.935 20.6112 187.159 21.27 187.282 22.0515C187.405 22.8666 187.472 23.8156 187.472 24.8875V36.8564C187.472 37.0127 187.596 37.1355 187.752 37.1355H191.122C191.279 37.1355 191.402 37.0127 191.402 36.8564V24.1729C191.402 22.42 191.268 20.9574 190.999 19.8074C190.719 18.635 190.283 17.686 189.678 16.9826H189.667Z" fill="white"/>
<path d="M200.504 15.5762H197.134C196.98 15.5762 196.854 15.7011 196.854 15.8553V36.8456C196.854 36.9997 196.98 37.1247 197.134 37.1247H200.504C200.659 37.1247 200.784 36.9997 200.784 36.8456V15.8553C200.784 15.7011 200.659 15.5762 200.504 15.5762Z" fill="white"/>
<path d="M198.735 6.84515C197.985 6.84515 197.358 7.11311 196.866 7.6267C196.384 8.1403 196.138 8.76554 196.138 9.4801C196.138 10.1947 196.384 10.8087 196.877 11.2777C197.358 11.7466 197.985 11.9811 198.735 11.9811C199.485 11.9811 200.124 11.7466 200.65 11.2777C201.187 10.8087 201.456 10.1947 201.456 9.46894C201.456 8.74321 201.187 8.12913 200.661 7.60437C200.135 7.09078 199.485 6.83398 198.735 6.83398V6.84515Z" fill="white"/>
<path d="M221.541 34.3436C221.463 33.4393 221.418 32.4567 221.418 31.4296C221.418 30.0116 221.463 28.4931 221.541 26.9077C221.619 25.3111 221.664 23.6587 221.664 21.9839C221.664 21.2135 221.586 20.432 221.429 19.6616C221.261 18.8689 220.936 18.132 220.455 17.4732C219.962 16.8033 219.246 16.2563 218.328 15.8543C217.41 15.4524 216.189 15.2402 214.7 15.2402C213.211 15.2402 211.633 15.3965 210.2 15.7092C208.767 16.0218 207.479 16.5131 206.393 17.1718C206.27 17.2388 206.225 17.3839 206.281 17.5179L207.334 20.0747C207.367 20.1529 207.423 20.2087 207.502 20.231C207.535 20.231 207.558 20.2422 207.591 20.2422C207.636 20.2422 207.692 20.231 207.737 20.2087C208.117 19.9854 208.565 19.7844 209.058 19.6058C209.55 19.4271 210.099 19.2708 210.67 19.1368C211.23 19.014 211.789 18.9135 212.327 18.8354C212.864 18.7684 213.368 18.7237 213.827 18.7237C215.372 18.7237 216.436 19.0029 216.996 19.5611C217.555 20.1194 217.835 21.1354 217.835 22.598C217.835 23.1786 217.802 23.8373 217.734 24.5519C217.432 24.5184 217.13 24.4961 216.828 24.4961H215.674C214.118 24.4961 212.674 24.6077 211.398 24.8198C210.099 25.032 208.968 25.4004 208.028 25.9029C207.076 26.4164 206.326 27.1087 205.8 27.9796C205.274 28.8504 205.005 29.9334 205.005 31.2063C205.005 32.1665 205.173 33.0373 205.509 33.7965C205.845 34.5558 206.315 35.2145 206.897 35.7616C207.479 36.3087 208.184 36.7218 208.991 37.0121C209.785 37.3024 210.67 37.4475 211.588 37.4475C212.506 37.4475 213.334 37.347 214.062 37.1461C214.779 36.9451 215.417 36.6883 215.977 36.3868C216.536 36.0742 217.018 35.7281 217.41 35.3262C217.712 35.0247 217.981 34.7121 218.205 34.3995L218.988 36.9898C219.022 37.1126 219.134 37.1907 219.257 37.1907H221.742C221.832 37.1907 221.91 37.1461 221.966 37.0791C222.022 37.0121 222.034 36.9228 222.011 36.8334C221.787 36.0742 221.642 35.2257 221.552 34.3213L221.541 34.3436ZM215.574 27.6334C215.965 27.6334 216.357 27.6334 216.76 27.6558C217.074 27.6669 217.387 27.6781 217.69 27.7004V30.8713C217.555 31.1951 217.354 31.5412 217.096 31.8873C216.816 32.2558 216.469 32.6019 216.044 32.9033C215.618 33.2048 215.103 33.4616 214.521 33.6626C213.928 33.8635 213.256 33.964 212.506 33.964C211.487 33.964 210.648 33.6737 209.998 33.0931C209.349 32.5126 209.035 31.7868 209.035 30.8825C209.035 30.2461 209.203 29.7325 209.539 29.3194C209.886 28.8951 210.356 28.5601 210.95 28.3145C211.554 28.0577 212.271 27.8791 213.066 27.7897C213.872 27.6893 214.723 27.6446 215.585 27.6446L215.574 27.6334Z" fill="white"/>
</g>
<defs>
<clipPath id="clip0_439_742">
<rect width="222" height="46" fill="white"/>
</clipPath>
</defs>
</svg>
