<svg width="208" height="49" viewBox="0 0 208 49" fill="none" xmlns="http://www.w3.org/2000/svg">
<path fill-rule="evenodd" clip-rule="evenodd" d="M14.3315 0C6.41643 0 0 6.41259 0 14.3229V48.6225H14.3315V34.3878L6.65914 26.7201C5.48085 25.5425 5.48085 23.6333 6.65914 22.4557L14.3315 14.788V0Z" fill="white"/>
<path fill-rule="evenodd" clip-rule="evenodd" d="M42.2402 0H19.6116V14.6116L26.5396 21.5355C35.6484 18.6111 42.2402 10.0749 42.2402 0Z" fill="white"/>
<path fill-rule="evenodd" clip-rule="evenodd" d="M19.7119 34.6233V48.7431H42.2401C42.2401 38.7787 35.8763 30.3129 27.0229 27.252L19.7119 34.6233Z" fill="white"/>
<path d="M81.6985 33.7772L73.2412 22.3399H69.8516L80.1211 9.29297H85.3021C85.7593 9.29297 86.0151 9.81931 85.7322 10.1782L77.2013 20.9983L77.1342 18.6172L87.6985 32.905C87.9656 33.2661 87.7075 33.7772 87.2582 33.7772H81.6985ZM66.1368 33.7772C65.8344 33.7772 65.5894 33.5321 65.5894 33.23V9.8401C65.5894 9.53699 65.8344 9.29297 66.1368 9.29297H71.0933V33.7772H66.1368Z" fill="white"/>
<path d="M98.3573 34.4139C96.7911 34.4139 95.4039 34.1458 94.1957 33.6096C93.0099 33.0723 92.0143 32.3567 91.2089 31.4626C90.4258 30.5456 89.8216 29.5291 89.3965 28.4107C88.9938 27.2705 88.7925 26.1073 88.7925 24.9222V24.2514C88.7925 23.0215 88.9938 21.8473 89.3965 20.7301C89.8216 19.5899 90.4258 18.5722 91.2089 17.6771C91.9919 16.7831 92.9651 16.0784 94.1286 15.5641C95.3144 15.0279 96.6569 14.7598 98.1559 14.7598C100.125 14.7598 101.78 15.2062 103.123 16.1013C104.488 16.9735 105.528 18.1246 106.244 19.5559C106.96 20.9643 107.318 22.5072 107.318 24.1847V25.9957H91.041V22.9438H104.063L102.317 24.3521C102.317 23.2567 102.161 22.3168 101.848 21.5344C101.534 20.752 101.064 20.16 100.438 19.7573C99.8339 19.3327 99.0732 19.1193 98.1559 19.1193C97.2161 19.1193 96.4219 19.3327 95.773 19.7573C95.1242 20.1819 94.632 20.8078 94.2964 21.635C93.9608 22.4404 93.793 23.4351 93.793 24.6202C93.793 25.7156 93.9496 26.6774 94.2628 27.5047C94.5761 28.3101 95.0683 28.936 95.7395 29.3835C96.4107 29.83 97.2833 30.0543 98.3573 30.0543C99.3417 30.0543 100.147 29.8639 100.774 29.4842C101.272 29.1811 101.642 28.8233 101.886 28.4075C101.999 28.2149 102.196 28.0748 102.42 28.0748H106.303C106.652 28.0748 106.913 28.3987 106.81 28.7325C106.514 29.6987 106.046 30.5752 105.405 31.362C104.622 32.3238 103.637 33.0723 102.452 33.6096C101.266 34.1458 99.901 34.4139 98.3573 34.4139Z" fill="white"/>
<path d="M111.025 41.0548C110.723 41.0548 110.478 40.8097 110.478 40.5077V37.0411C110.478 36.739 110.723 36.4939 111.025 36.4939H114.304C114.886 36.4939 115.378 36.4151 115.781 36.2587C116.183 36.1252 116.508 35.8899 116.754 35.555C117 35.2191 117.201 34.7606 117.358 34.1796L121.889 15.3965H126.283C126.641 15.3965 126.902 15.7346 126.813 16.0804L121.855 35.253C121.497 36.6832 120.994 37.8246 120.345 38.6737C119.718 39.524 118.868 40.1269 117.794 40.4847C116.743 40.8655 115.4 41.0548 113.767 41.0548H111.025ZM116.25 33.3742V29.182H120.144V33.3742H116.25ZM114.035 33.3742L108.62 16.1078C108.51 15.7554 108.773 15.3965 109.143 15.3965H113.801L119.137 33.3742H114.035Z" fill="white"/>
<path d="M136.565 33.7769L139.837 16.4459C139.886 16.1876 140.112 16.0005 140.375 16.0005H145.354C145.611 16.0005 145.834 16.1789 145.889 16.4306L149.687 33.7769H145.526L141.532 16.134H143.915L140.324 33.7769H136.565ZM135.29 33.7769L135.256 29.3155H138.948L138.982 33.7769H135.29ZM133.293 33.7769C133.046 33.7769 132.829 33.6105 132.765 33.372L128.125 16.0859C128.032 15.7379 128.294 15.3965 128.654 15.3965H133.209L137.807 33.7769H133.293ZM146.902 33.7769L146.935 29.3155H150.627V33.7769H146.902ZM148.412 33.7769L152.506 15.3965H156.745C157.099 15.3965 157.36 15.728 157.278 16.0716L153.111 33.3578C153.052 33.604 152.832 33.7769 152.579 33.7769H148.412Z" fill="white"/>
<path d="M161.631 33.7773V15.3969H167V33.7773H161.631ZM159.18 19.3549V15.9441C159.18 15.642 159.426 15.3969 159.728 15.3969H167V19.3549H159.18ZM163.711 13.5859C162.705 13.5859 161.955 13.3288 161.463 12.8145C160.993 12.2783 160.758 11.6075 160.758 10.8021C160.758 9.97484 160.993 9.30406 161.463 8.78975C161.955 8.25247 162.705 7.98438 163.711 7.98438C164.719 7.98438 165.457 8.25247 165.926 8.78975C166.419 9.30406 166.665 9.97484 166.665 10.8021C166.665 11.6075 166.419 12.2783 165.926 12.8145C165.457 13.3288 164.719 13.5859 163.711 13.5859Z" fill="white"/>
<path d="M178.947 34.3461C176.33 34.3461 174.283 33.8099 172.806 32.7364C171.477 31.7702 170.71 30.4516 170.504 28.7795C170.466 28.4699 170.718 28.2083 171.03 28.2083H175.222C175.312 28.7894 175.659 29.3146 176.262 29.7841C176.889 30.2316 177.817 30.456 179.048 30.456C179.988 30.456 180.76 30.2984 181.364 29.9854C181.99 29.6506 182.303 29.1811 182.303 28.5771C182.303 28.0409 182.069 27.6152 181.599 27.3023C181.129 26.9674 180.289 26.7322 179.082 26.5987L177.639 26.4641C175.424 26.2408 173.757 25.6259 172.638 24.6191C171.542 23.6135 170.994 22.3277 170.994 20.7618C170.994 19.4651 171.318 18.3807 171.967 17.5086C172.616 16.6365 173.511 15.9766 174.652 15.5302C175.816 15.0826 177.135 14.8594 178.612 14.8594C180.984 14.8594 182.896 15.3846 184.35 16.4351C185.662 17.3631 186.41 18.6729 186.593 20.3646C186.627 20.6732 186.376 20.9304 186.066 20.9304H181.867C181.777 20.3263 181.464 19.823 180.928 19.4203C180.39 18.9957 179.596 18.7834 178.545 18.7834C177.716 18.7834 177.057 18.9399 176.565 19.2529C176.073 19.5658 175.827 19.9904 175.827 20.5277C175.827 21.042 176.039 21.4326 176.464 21.7018C176.889 21.9699 177.583 22.1592 178.545 22.2719L179.988 22.4054C182.247 22.6516 184.003 23.2776 185.257 24.2843C186.51 25.2899 187.136 26.6435 187.136 28.3418C187.136 29.5718 186.801 30.6453 186.13 31.5623C185.459 32.4563 184.507 33.15 183.276 33.6414C182.047 34.1119 180.603 34.3461 178.947 34.3461Z" fill="white"/>
<path d="M199.039 34.4139C197.473 34.4139 196.086 34.1458 194.877 33.6096C193.691 33.0723 192.696 32.3567 191.89 31.4626C191.107 30.5456 190.504 29.5291 190.078 28.4107C189.675 27.2705 189.475 26.1073 189.475 24.9222V24.2514C189.475 23.0215 189.675 21.8473 190.078 20.7301C190.504 19.5899 191.107 18.5722 191.89 17.6771C192.674 16.7831 193.647 16.0784 194.81 15.5641C195.996 15.0279 197.338 14.7598 198.837 14.7598C200.806 14.7598 202.463 15.2062 203.805 16.1013C205.169 16.9735 206.209 18.1246 206.925 19.5559C207.642 20.9643 208 22.5072 208 24.1847V25.9957H191.722V22.9438H204.744L202.999 24.3521C202.999 23.2567 202.842 22.3168 202.529 21.5344C202.216 20.752 201.746 20.16 201.12 19.7573C200.516 19.3327 199.755 19.1193 198.837 19.1193C197.898 19.1193 197.104 19.3327 196.455 19.7573C195.805 20.1819 195.314 20.8078 194.978 21.635C194.643 22.4404 194.475 23.4351 194.475 24.6202C194.475 25.7156 194.632 26.6774 194.945 27.5047C195.258 28.3101 195.75 28.936 196.421 29.3835C197.092 29.83 197.965 30.0543 199.039 30.0543C200.023 30.0543 200.829 29.8639 201.455 29.4842C201.953 29.1811 202.325 28.8233 202.568 28.4075C202.68 28.2149 202.878 28.0748 203.101 28.0748H206.985C207.334 28.0748 207.594 28.3987 207.493 28.7325C207.196 29.6987 206.727 30.5752 206.087 31.362C205.304 32.3238 204.32 33.0723 203.134 33.6096C201.948 34.1458 200.583 34.4139 199.039 34.4139Z" fill="white"/>
</svg>
