<svg width="197" height="44" viewBox="0 0 197 44" fill="none" xmlns="http://www.w3.org/2000/svg">
<path d="M180.274 0.274413C182.591 -0.183907 184.25 -0.0240826 186.533 0.429537C186.61 0.444953 186.682 0.480705 186.74 0.532953C186.845 0.622266 186.926 0.731166 186.984 0.859652C187.022 0.948966 186.992 0.994406 186.892 0.995973C186.569 0.998324 186.234 1.01478 185.909 0.958368C184.103 0.640286 182.293 0.620699 180.476 0.899609C180.123 0.95445 179.966 0.839283 180.006 0.554106C180.015 0.486113 180.046 0.422607 180.094 0.372461C180.142 0.322315 180.205 0.288035 180.274 0.274413Z" fill="white"/>
<path d="M185.149 2.12648C185.966 2.21655 190.08 3.07224 189.999 4.31575C189.996 4.35855 189.984 4.39991 189.964 4.43614C189.944 4.47237 189.916 4.50235 189.884 4.52341C189.851 4.54446 189.814 4.55593 189.777 4.55681C189.74 4.55768 189.702 4.54793 189.669 4.52842C185.151 1.84875 179.817 2.32414 175.347 4.96627C175.295 4.9994 175.234 5.00854 175.176 4.99185C175.119 4.97515 175.069 4.93387 175.037 4.87642C175.005 4.81897 174.993 4.74969 175.004 4.6827C175.015 4.6157 175.048 4.55605 175.096 4.51591C177.841 2.07143 181.782 1.76368 185.149 2.12648Z" fill="white"/>
<path d="M0 36.555V4.52773C0.0794525 4.35003 0.205725 4.19741 0.378818 4.06986C0.43557 4.0283 0.498706 4.00752 0.568227 4.00752C6.04477 3.99749 9.68611 3.99749 11.4922 4.00752C13.3885 4.01827 15.5677 4.1709 17.3214 4.69111C23.1122 6.40436 25.7979 11.2561 24.7934 17.2234C24.1592 20.9982 21.9395 23.5713 18.5174 25.0459C15.4358 26.3744 11.8029 26.2669 8.40423 26.254C8.26377 26.2526 8.19354 26.3228 8.19354 26.4647V36.7313C8.19354 36.8026 8.16551 36.8709 8.11562 36.9213C8.06573 36.9717 7.99807 37 7.92751 37H0.310716C0.234101 37 0.174512 36.9685 0.131948 36.9054C0.0695209 36.8094 0.0255383 36.6926 0 36.555ZM8.19141 10.5144V19.6547C8.19141 19.7561 8.23132 19.8535 8.30236 19.9252C8.3734 19.997 8.46976 20.0373 8.57023 20.0373H12.1988C12.8307 20.0373 13.4564 19.9184 14.0402 19.6873C14.624 19.4562 15.1545 19.1175 15.6013 18.6906C16.0481 18.2636 16.4025 17.7567 16.6444 17.1988C16.8862 16.641 17.0106 16.0431 17.0106 15.4392V14.7299C17.0106 14.126 16.8862 13.5281 16.6444 12.9703C16.4025 12.4124 16.0481 11.9055 15.6013 11.4785C15.1545 11.0516 14.624 10.7129 14.0402 10.4818C13.4564 10.2507 12.8307 10.1318 12.1988 10.1318H8.57023C8.46976 10.1318 8.3734 10.1721 8.30236 10.2439C8.23132 10.3156 8.19141 10.413 8.19141 10.5144Z" fill="white"/>
<path d="M171.014 10.8406C173.07 7.38881 176.588 5.58851 180.66 5.1053C184.293 4.67306 187.535 5.57152 190.386 7.80066C191.784 8.89212 192.692 10.1039 193.112 11.4359C193.825 13.699 194.129 15.6604 193.95 17.6503C193.855 18.7146 193.997 19.9828 193.446 20.9431C193.407 21.0097 193.358 21.0178 193.299 20.9675C192.985 20.6998 192.863 20.4109 192.935 20.101C193.607 17.1896 193.488 14.4684 192.577 11.9375C190.849 7.1258 185.355 5.16443 180.391 5.7822C176.872 6.21987 174.069 7.78299 171.984 10.4716C171.755 10.7631 171.488 10.9364 171.137 11.0017C171.115 11.0053 171.093 11.0032 171.073 10.9954C171.052 10.9876 171.035 10.9746 171.022 10.9577C171.009 10.9409 171.002 10.9209 171 10.9002C170.999 10.8795 171.004 10.8588 171.014 10.8406Z" fill="white"/>
<path d="M195.551 12.9364C195.327 12.7463 195.173 12.4648 195.09 12.0919C194.625 10.0016 193.672 8.19871 192.234 6.68336C191.948 6.38238 191.924 6.16526 192.163 6.032C192.21 6.00566 192.264 5.99521 192.317 6.00203C192.37 6.00886 192.421 6.03264 192.461 6.07018C194.335 7.83859 195.513 10.0345 195.995 12.6579C196.006 12.7158 195.999 12.7757 195.976 12.8295C195.954 12.8833 195.915 12.9284 195.867 12.9588C195.819 12.9892 195.762 13.0033 195.706 12.9993C195.649 12.9953 195.595 12.9734 195.551 12.9364Z" fill="white"/>
<path d="M191.25 19.8866C190.981 17.3557 191.648 14.8699 190.663 12.3948C189.988 10.6975 188.833 9.39691 187.198 8.49311C185.798 7.7175 184.082 7.74973 182.539 7.62297C182.299 7.60291 182.138 7.54562 182.054 7.45109C182.028 7.42165 182.011 7.3853 182.004 7.34604C181.996 7.30678 182 7.26613 182.013 7.22858C182.027 7.19103 182.05 7.15804 182.081 7.13323C182.111 7.10842 182.147 7.09277 182.186 7.08799C188.407 6.3532 191.611 10.2914 191.991 16.2449C192.034 16.9539 191.907 17.7682 191.915 18.5438C191.921 19.1282 191.773 19.5085 191.468 19.9489C191.453 19.9694 191.433 19.9848 191.41 19.9931C191.387 20.0014 191.362 20.0022 191.339 19.9955C191.315 19.9888 191.294 19.9748 191.278 19.9554C191.262 19.9359 191.253 19.912 191.25 19.8866Z" fill="white"/>
<path d="M173.391 20.6452C172.141 15.5256 173.848 10.0738 179.075 8.01311C179.107 8.0009 179.141 7.99713 179.174 8.00217C179.208 8.00722 179.239 8.0209 179.266 8.04187C179.292 8.06284 179.313 8.09038 179.326 8.12178C179.338 8.15317 179.343 8.18733 179.338 8.2209C179.318 8.37656 179.22 8.49938 179.043 8.58934C174.913 10.7122 173.081 14.5894 173.825 19.1029C174.994 26.2191 179.443 31.8079 185.847 34.9011C186.511 35.2224 187.203 35.4852 187.924 35.6894C189.369 36.0986 190.678 35.9829 191.834 36.4863C191.871 36.5023 191.904 36.526 191.93 36.5559C191.957 36.5858 191.977 36.6212 191.988 36.6595C192 36.6978 192.003 36.7381 191.997 36.7778C191.992 36.8174 191.978 36.8554 191.956 36.889C191.738 37.2296 189.636 36.6855 189.204 36.5998C181.306 35.0168 175.272 28.3312 173.391 20.6452Z" fill="white"/>
<path d="M175.041 17.9346C174.676 14.549 176.753 11.3042 180.399 10.3313C183.012 9.6338 185.957 10.0009 187.927 11.7835C188.723 12.5027 189.27 13.3246 189.57 14.2492C189.774 14.8754 190.414 17.8143 189.592 18.0815C189.558 18.0922 189.522 18.0954 189.487 18.0906C189.452 18.0859 189.418 18.0734 189.389 18.0543C189.36 18.0351 189.336 18.0098 189.32 17.9804C189.304 17.9511 189.295 17.9186 189.296 17.8857C189.298 16.9434 189.371 15.9502 189.138 15.0895C187.834 10.262 181.615 9.14432 177.778 12.3831C175.841 14.0167 175.241 16.9863 175.927 19.2093C176.334 20.5241 176.843 21.8036 177.452 23.0477C177.572 23.2897 177.642 23.542 177.663 23.8044C177.665 23.8418 177.656 23.879 177.635 23.9111C177.614 23.9432 177.583 23.9686 177.545 23.984C177.508 23.9993 177.467 24.0038 177.427 23.9968C177.387 23.9899 177.35 23.9718 177.322 23.9451C176.06 22.7336 175.21 19.4887 175.041 17.9346Z" fill="white"/>
<path d="M178.397 19.6504C177.487 16.94 178.046 13.2533 181.08 12.3055C183.518 11.5444 185.474 12.2053 186.95 14.2883C186.989 14.3466 187.006 14.4179 186.998 14.4885C186.99 14.5591 186.957 14.6241 186.907 14.6712C186.856 14.7183 186.79 14.7442 186.723 14.7439C186.655 14.7436 186.589 14.7171 186.539 14.6696C185.901 14.0312 185.241 13.3209 184.408 13.0246C182.252 12.2533 179.726 12.8895 178.908 15.3298C178.245 17.3038 179.007 20.0622 179.944 21.9992C181.438 25.0845 183.143 27.4616 186.026 29.4618C186.079 29.4966 186.117 29.5446 186.142 29.6056L186.257 29.8867C186.288 29.9636 186.265 30.0014 186.186 30L185.773 29.9934C185.719 29.9934 185.669 29.9782 185.623 29.9477C181.803 27.4267 179.894 24.1171 178.397 19.6504Z" fill="white"/>
<path d="M170.041 16.8986C170.034 16.8972 170.028 16.8944 170.023 16.8902C170.017 16.8861 170.012 16.8807 170.009 16.8744C170.005 16.8681 170.002 16.861 170.001 16.8535C170 16.8461 170 16.8384 170.001 16.8309L170.109 16.1221C170.173 15.7046 170.243 15.2925 170.314 14.9095C170.385 14.5265 170.457 14.18 170.525 13.89C170.593 13.6 170.656 13.3722 170.71 13.2196C170.764 13.0669 170.808 12.9925 170.84 13.0006L170.942 13.02C170.974 13.026 170.993 13.1142 170.999 13.2795C171.004 13.4449 170.995 13.6841 170.973 13.9836C170.95 14.2831 170.915 14.6369 170.868 15.0248C170.821 15.4127 170.764 15.827 170.7 16.2441L170.59 16.9529C170.588 16.9676 170.581 16.9807 170.57 16.9894C170.56 16.998 170.546 17.0016 170.534 16.9993L170.041 16.8986Z" fill="white"/>
<path d="M34.7622 16.1217C35.0693 16.1074 35.2667 15.9603 35.3544 15.6805C35.3767 15.6102 35.4169 15.5468 35.4711 15.4963C35.9636 15.0336 36.3944 14.4575 36.9038 14.0998C38.7744 12.7919 40.7498 12.6505 42.8298 13.6757C42.8833 13.7024 42.9279 13.7443 42.9581 13.796C42.9883 13.8478 43.0027 13.9072 42.9996 13.967C42.9048 15.5862 42.7562 17.2076 42.5539 18.8311C42.4973 19.2837 42.3197 19.6699 42.0211 19.9898C41.9716 20.0426 41.9108 20.0719 41.8386 20.0776C39.2216 20.2961 36.9187 19.3087 35.5603 22.3415C35.4032 22.6913 35.3247 23.0997 35.3247 23.5666C35.3219 27.9202 35.3212 32.2909 35.3226 36.6787C35.3226 36.7209 35.3144 36.7627 35.2985 36.8017C35.2826 36.8407 35.2593 36.8761 35.2299 36.9059C35.2006 36.9357 35.1657 36.9594 35.1273 36.9755C35.089 36.9917 35.0478 37 35.0063 37H28.1316C28.0439 37 28 36.955 28 36.8651V13.8235C28 13.7252 28.0382 13.6308 28.1065 13.5607C28.1748 13.4906 28.2677 13.4504 28.3651 13.4487C29.6499 13.4287 30.9637 13.4301 32.3065 13.453C34.2465 13.4873 34.3547 14.3611 34.6412 16.0253C34.654 16.0938 34.6943 16.126 34.7622 16.1217Z" fill="white"/>
<path d="M104.641 22.588C105.193 19.7278 103.121 18.2956 100.4 18.8474C97.9942 19.334 95.2096 22.1436 93.2137 18.8179C92.8352 18.1861 92.4661 17.5543 92.1064 16.9224C92.0688 16.855 92.0789 16.7953 92.1367 16.7434C94.0069 15.0837 96.6203 13.7063 99.2164 13.3482C100.124 13.2233 100.583 13.1594 100.595 13.1566C106.537 12.2193 111.933 15.5408 111.972 21.7455C112.003 26.6669 112.008 31.5897 111.987 36.5139C111.987 36.5391 111.977 36.5632 111.958 36.5809C111.94 36.5987 111.915 36.6087 111.889 36.6087C110.527 36.6073 109.155 36.608 107.774 36.6108C106.73 36.615 106.01 35.5851 105.78 34.7089C105.765 34.6503 105.734 34.5966 105.691 34.5531C105.648 34.5097 105.593 34.478 105.533 34.4612C105.473 34.4444 105.41 34.443 105.349 34.4573C105.288 34.4716 105.232 34.501 105.187 34.5426C103.655 35.9439 101.802 36.7435 99.6282 36.9415C96.3711 37.2406 92.5549 36.4613 91.4281 33.0177C88.8276 25.0648 98.6963 23.0555 104.27 22.8955C104.478 22.8885 104.602 22.786 104.641 22.588ZM98.5468 29.2772C97.8339 30.3555 98.3149 31.5771 99.5762 31.9372C101.128 32.3816 102.974 31.695 104.142 30.6925C104.842 30.0922 104.836 29.1234 104.721 28.302C104.649 27.7797 104.699 27.3753 104.038 27.4574C102.322 27.6723 99.4917 27.8492 98.5468 29.2772Z" fill="white"/>
<path d="M56.5292 36.941C51.5542 37.349 46.6195 35.6724 44.3751 30.9512C41.0436 23.9486 43.804 14.7113 52.2379 13.2482C57.3085 12.3686 62.6806 13.7704 65.3306 18.3626C67.4497 22.0352 67.5282 27.0883 65.6979 30.8899C63.9695 34.4842 60.5275 36.6111 56.5292 36.941ZM51.6115 29.6424C52.8558 31.8434 56.009 31.9766 57.7268 30.505C60.1029 28.469 59.8565 22.2868 58.1345 19.9611C57.0665 18.5212 55.045 18.2442 53.444 18.8341C51.8961 19.4029 51.1444 20.7603 50.8875 22.3164C50.5032 24.6336 50.4203 27.5345 51.6115 29.6424Z" fill="white"/>
<path d="M115.688 29.3786C113.515 22.4524 116.509 14.1178 124.408 13.1407C128.2 12.6712 131.596 13.312 134.465 16.0486C134.637 16.2122 134.751 16.3919 134.807 16.5879C134.827 16.657 134.817 16.7211 134.778 16.7804C133.921 18.117 133.245 19.0496 132.751 19.5783C131.901 20.4835 131.024 20.0669 130.01 19.4874C127.88 18.2671 125.432 17.8399 123.728 19.9357C122.272 21.7249 122.258 24.5652 122.575 26.9105C122.834 28.8351 123.674 30.601 125.554 31.2397C127.109 31.7684 128.54 31.43 129.827 30.3979C130.351 29.9778 130.941 29.6718 131.596 29.4801C131.654 29.4632 131.711 29.466 131.768 29.4886L132.678 29.8396C132.747 29.8664 132.805 29.9087 132.852 29.9665C133.395 30.6193 134.079 31.4716 134.903 32.5234C135.709 33.5554 131.264 35.9346 130.555 36.2159C128.393 37.0724 125.277 37.2289 123.029 36.677C119.318 35.7697 116.834 33.0331 115.688 29.3786Z" fill="white"/>
<path d="M79.7224 28.1404C79.8092 28.0506 79.8838 27.9049 79.9461 27.7033C81.313 23.2598 82.7356 18.8322 84.214 14.4205C84.5202 13.5115 85.389 13.0918 86.2882 13.0853C88.1517 13.0737 90.0145 13.073 91.8766 13.0831C91.949 13.0831 91.9881 13.1194 91.9939 13.1919C92.0525 13.8225 91.6725 14.3205 91.54 14.7554C91.2489 15.7058 90.719 16.8953 90.48 17.5194C88.269 23.2982 86.0551 29.0748 83.8382 34.8493C83.7195 35.1566 83.5892 35.4582 83.4473 35.7539C83.2822 36.0975 83.2909 36.6368 82.8717 36.9435C82.8209 36.9802 82.7601 36.9999 82.6979 37H76.2559C76.1835 37 76.1343 36.9659 76.1082 36.8978L67.0143 13.3832C67.002 13.3513 66.9976 13.317 67.0012 13.283C67.0049 13.2491 67.0166 13.2165 67.0354 13.1882C67.0541 13.1598 67.0793 13.1365 67.1089 13.1201C67.1385 13.1037 67.1716 13.0947 67.2054 13.094C69.1949 13.0462 71.2735 12.92 73.2673 13.0744C74.4467 13.1636 75.0961 13.7638 75.4371 14.8729C76.7634 19.1497 78.126 23.557 79.5247 28.0948C79.5638 28.2224 79.6297 28.2376 79.7224 28.1404Z" fill="white"/>
<path d="M148.263 25.6113C149.504 22.0849 150.77 18.4415 152.06 14.681C152.47 13.4887 153.303 13.0627 154.582 13.0627C156.297 13.0613 158.007 13.0613 159.715 13.0627C159.761 13.0627 159.807 13.074 159.848 13.0955C159.889 13.1171 159.924 13.1483 159.95 13.1865C159.976 13.2246 159.993 13.2686 159.998 13.3145C160.003 13.3605 159.997 13.407 159.981 13.4501C159.816 13.8769 159.637 14.3193 159.444 14.7774C155.535 24.0465 151.608 33.3085 147.664 42.5633C147.282 43.4624 146.613 43.9227 145.655 43.9441C143.798 43.984 141.95 44.0026 140.113 43.9997C140.07 43.9999 140.027 43.989 139.989 43.9683C139.951 43.9475 139.918 43.9174 139.895 43.8809C139.872 43.8444 139.858 43.8026 139.855 43.7593C139.852 43.7161 139.861 43.6729 139.879 43.6337C141.194 40.798 142.536 37.9744 143.904 35.163C144.159 34.6343 144.161 34.1933 143.912 33.626C140.952 26.8515 137.987 20.0991 135.017 13.3688C135.004 13.3365 134.998 13.3013 135.001 13.2662C135.004 13.2312 135.015 13.1976 135.035 13.1682C135.054 13.1389 135.08 13.1149 135.111 13.0984C135.141 13.0818 135.176 13.0732 135.211 13.0734C137.052 13.072 138.856 13.0484 140.622 13.0027C141.998 12.9685 143.116 13.2404 143.644 14.6532C144.945 18.1425 146.334 21.7973 147.81 25.6177C147.968 26.0245 148.119 26.0223 148.263 25.6113Z" fill="white"/>
<path d="M180.213 19.4443C179.464 17.3087 180.727 14.6228 183.388 15.044C184.353 15.1964 185.403 16.0917 185.932 16.8283C186.813 18.0538 187.614 19.3427 188.631 20.4645C188.882 20.7411 189.082 21.0529 189.232 21.4C189.255 21.4536 189.239 21.491 189.184 21.5122C188.847 21.6434 188.61 21.6159 188.471 21.4296C187.315 19.8662 186.155 18.3077 184.99 16.7542C184.269 15.7912 182.908 15.243 181.809 15.988C180.539 16.8516 180.511 18.5596 181.036 19.8655C182.416 23.3028 184.975 26.2913 188.374 27.902C189.817 28.5864 191.351 29.0379 192.976 29.2566C193.371 29.3088 193.679 29.416 193.903 29.5783C193.946 29.609 193.977 29.653 193.991 29.7032C194.006 29.7535 194.002 29.807 193.982 29.8553C193.961 29.9036 193.924 29.9439 193.877 29.9697C193.831 29.9954 193.776 30.0052 193.723 29.9974C190.05 29.4259 186.722 28.4523 184.047 25.6775C182.322 23.8898 181.044 21.812 180.213 19.4443Z" fill="white"/>
<path d="M196.234 16.2191C196.281 16.1254 196.363 16.0583 196.48 16.0177C196.586 15.9818 196.669 16.0005 196.729 16.0739C196.916 16.3081 197.006 16.568 197 16.8537C196.944 18.977 196.829 20.5617 196.657 21.6077C196.622 21.8122 196.457 21.941 196.162 21.9941C196.052 22.0144 195.998 21.9824 196 21.8981L196.028 16.4931C196.028 16.4291 196.058 16.3737 196.118 16.3268L196.178 16.2847C196.202 16.2659 196.221 16.2441 196.234 16.2191Z" fill="white"/>
<path d="M182.952 18.7737C182.537 19.4749 183.343 20.1999 183.677 20.7064C184.489 21.9392 185.347 23.1322 186.248 24.2856C186.261 24.3016 186.269 24.32 186.273 24.3396C186.277 24.3591 186.276 24.3791 186.27 24.3981C186.263 24.4171 186.253 24.4346 186.238 24.4492C186.224 24.4638 186.206 24.4751 186.186 24.4822L185.971 24.5597C185.889 24.5901 185.817 24.5769 185.756 24.52C184.481 23.36 181.705 20.2257 182.026 18.5076C182.037 18.4459 182.07 18.3904 182.12 18.3507C183.01 17.6475 183.685 18.0944 184.242 18.875C185.825 21.0937 187.34 23.2269 190.157 24.2339C190.735 24.4405 191.266 24.7126 191.858 24.8397C192.758 25.0344 193.662 25.2052 194.571 25.3522C195.035 25.429 195.123 25.6164 194.833 25.9143C194.803 25.9456 194.764 25.9695 194.722 25.9841C194.679 25.9986 194.633 26.0033 194.588 25.9977C193.118 25.8124 191.689 25.4754 190.303 24.9867C187.871 24.1267 185.954 22.5397 184.567 20.5276C184.126 19.892 183.922 19.2504 183.154 18.732C183.068 18.6751 183.001 18.689 182.952 18.7737Z" fill="white"/>
<path d="M170.068 19.1422C170.085 19.0979 170.117 19.0601 170.159 19.0346C170.202 19.009 170.252 18.9971 170.302 19.0006C170.353 19.0042 170.4 19.023 170.438 19.0542C170.476 19.0854 170.502 19.1273 170.511 19.1735C171.412 23.141 172.72 26.8562 175.552 30.0123C176.32 30.8676 177.116 31.6957 177.941 32.4967C177.96 32.5156 177.976 32.538 177.986 32.5625C177.996 32.5871 178.001 32.6133 178 32.6397C177.999 32.6661 177.993 32.6922 177.981 32.7163C177.969 32.7405 177.952 32.7623 177.932 32.7804L177.73 32.9578C177.669 33.0134 177.607 33.0141 177.544 32.9598C174.169 30.0978 171.892 26.6073 170.713 22.4881C170.493 21.7205 169.779 19.8535 170.068 19.1422Z" fill="white"/>
<path d="M195.829 23.9606C195.827 23.9675 195.824 23.974 195.82 23.9796C195.815 23.9853 195.81 23.9899 195.804 23.9934C195.798 23.9968 195.791 23.999 195.784 23.9997C195.778 24.0005 195.771 23.9997 195.764 23.9976L191.473 22.7978C191.33 22.7579 191.201 22.6914 191.113 22.6129C191.025 22.5344 190.986 22.4504 191.005 22.3794L191.063 22.1575C191.071 22.1222 191.094 22.0911 191.13 22.066C191.165 22.041 191.213 22.0224 191.269 22.0115C191.326 22.0005 191.391 21.9974 191.46 22.0022C191.529 22.007 191.601 22.0197 191.671 22.0396L195.963 23.2394C195.976 23.2432 195.987 23.2521 195.993 23.2642C196 23.2763 196.002 23.2906 195.998 23.3041L195.829 23.9606Z" fill="white"/>
<path d="M169.773 26.6961C170.218 27.9416 170.724 28.8998 170.903 28.8362C171.082 28.7727 170.866 27.7116 170.421 26.4661C169.976 25.2206 169.471 24.2624 169.292 24.326C169.113 24.3895 169.328 25.4506 169.773 26.6961Z" fill="white"/>
<path d="M194.777 27.5303C195.091 27.7952 195.073 27.9498 194.723 27.9942C194.638 28.0043 194.53 28.0012 194.398 27.9847C193.645 27.8877 192.917 27.8744 192.194 27.6976C190.725 27.3383 189.519 27.0664 188.059 26.342C187.984 26.3053 187.981 26.2635 188.047 26.2166L188.291 26.0397C188.355 25.9941 188.424 25.9878 188.498 26.0207L188.745 26.1291C188.814 26.1608 188.889 26.1716 188.97 26.1614C189.175 26.1361 189.345 26.1836 189.481 26.304C189.537 26.3534 189.605 26.3845 189.686 26.3972C190.262 26.4941 190.799 26.7489 191.318 26.844C192.41 27.0455 193.495 27.2432 194.572 27.4371C194.651 27.4508 194.722 27.4833 194.777 27.5303Z" fill="white"/>
<path d="M192.84 33.5217C192.873 33.5275 192.903 33.5404 192.929 33.5592C192.954 33.578 192.974 33.602 192.986 33.6292C192.998 33.6564 193.003 33.6859 192.998 33.7148C192.994 33.7438 192.982 33.7713 192.962 33.795C192.811 33.9752 192.62 34.0198 192.36 33.9927C187.297 33.4713 182.436 31.4535 179.286 27.8753C179.08 27.6414 178.986 27.4289 179.002 27.2376C179.006 27.1848 179.029 27.1345 179.068 27.0936C179.106 27.0527 179.158 27.0232 179.217 27.0092C179.275 26.9951 179.337 26.9973 179.394 27.0153C179.451 27.0333 179.5 27.0663 179.535 27.1097C181.348 29.3569 183.699 30.9934 186.588 32.0195C187.006 32.1687 187.437 32.3858 187.764 32.4653C189.419 32.8736 191.111 33.2258 192.84 33.5217Z" fill="white"/>
<path d="M172.003 31.2241C171.997 31.1928 172 31.1608 172.01 31.1307C172.02 31.1007 172.037 31.0736 172.059 31.0519C172.082 31.0302 172.109 31.0146 172.139 31.0065C172.169 30.9983 172.201 30.9979 172.231 31.0052C172.352 31.0355 172.47 31.127 172.585 31.2799C175.231 34.7602 178.32 37.3916 182.398 38.8911C182.705 39.0047 184.236 39.488 183.969 39.8391C183.918 39.9058 183.848 39.9552 183.769 39.9806C183.689 40.0061 183.604 40.0065 183.525 39.9816C181.249 39.2739 179.151 38.2343 177.232 36.8628C175.705 35.7722 174.442 34.3863 173.064 32.9137C172.922 32.7636 172.82 32.6238 172.759 32.4944C172.726 32.4297 172.683 32.3739 172.628 32.3271C172.286 32.0338 172.077 31.6661 172.003 31.2241Z" fill="white"/>
<path d="M193.223 31.72L189.623 30.8387C189.437 30.7929 189.248 30.9068 189.202 31.093L189.197 31.1138C189.151 31.3 189.265 31.4881 189.452 31.5338L193.052 32.4151C193.239 32.4609 193.427 32.347 193.473 32.1608L193.478 32.14C193.524 31.9538 193.41 31.7657 193.223 31.72Z" fill="white"/>
<path d="M177.218 38.6472L173.201 35.1912C173.048 35.0597 172.817 35.0766 172.685 35.2289L172.674 35.2419C172.542 35.3942 172.559 35.6243 172.712 35.7558L176.729 39.2118C176.882 39.3433 177.113 39.3264 177.245 39.1741L177.256 39.1611C177.388 39.0088 177.371 38.7787 177.218 38.6472Z" fill="white"/>
<path d="M189.774 38.4438C189.815 38.4554 189.854 38.4749 189.887 38.5011C189.92 38.5274 189.947 38.5598 189.966 38.5964C189.985 38.633 189.997 38.673 189.999 38.714C190.002 38.755 189.996 38.7961 189.981 38.8347C189.716 39.5332 185.037 37.8094 184.398 37.5275C182.859 36.8461 180.373 35.9254 180.017 35.1479C179.978 35.0639 180.007 35.0183 180.103 35.0112C180.299 34.9962 180.6 34.9813 180.778 35.0731C182.424 35.9432 184.118 36.7094 185.863 37.3715C187.048 37.8201 188.467 38.0722 189.774 38.4438Z" fill="white"/>
</svg>
