<svg width="206" height="53" viewBox="0 0 206 53" fill="none" xmlns="http://www.w3.org/2000/svg">
<path d="M43.5351 10.5742L44.3853 13.3628C44.4094 13.4395 44.4447 13.4458 44.4913 13.3816C44.5657 13.2782 44.5071 10.3675 44.5116 9.98694L44.5454 6.19061C44.5456 6.15527 44.5532 6.12039 44.5676 6.08839C44.582 6.05638 44.6029 6.028 44.6288 6.00522C44.6548 5.98244 44.6851 5.9658 44.7178 5.95644C44.7506 5.94707 44.7848 5.94522 44.8183 5.95099C49.4888 6.78027 51.771 13.1913 52.6573 17.3329C53.9563 23.4033 53.9706 29.476 52.7001 35.5511C51.8747 39.5001 49.3986 46.4914 44.6875 46.926C44.6729 46.9276 44.6581 46.926 44.644 46.9214C44.63 46.9167 44.617 46.909 44.606 46.8989C44.595 46.8887 44.5861 46.8763 44.5799 46.8623C44.5738 46.8484 44.5705 46.8333 44.5702 46.8179C44.5274 44.4123 44.7281 41.9597 44.4192 39.587C44.4101 39.5087 44.3951 39.5079 44.374 39.5847C43.1179 44.1163 40.0261 52.066 34.5347 52.2728C34.5201 52.2734 34.5056 52.271 34.4919 52.2656C34.4783 52.2602 34.4658 52.252 34.4552 52.2415C34.4447 52.2309 34.4363 52.2183 34.4306 52.2043C34.4249 52.1903 34.422 52.1752 34.422 52.16C34.4099 51.1358 34.4054 50.1232 34.4084 49.1225C34.4107 48.5328 34.5122 47.7717 34.3453 47.0622C34.3152 46.9338 34.2664 46.926 34.1987 47.0387C31.7428 51.1686 27.8752 54.2602 23.304 50.7951C22.1283 49.7568 21.136 48.5516 20.3271 47.1797C20.3103 47.1503 20.2838 47.1283 20.2524 47.1175C20.221 47.1067 20.1867 47.1079 20.1557 47.121C19.9573 47.2079 20.0295 51.6126 20.0272 52.153C20.0272 52.1835 20.0156 52.2128 19.9948 52.2344C19.9741 52.2559 19.946 52.2681 19.9167 52.2681C14.1096 52.2634 10.8712 42.8947 9.75263 38.295C9.73459 38.2198 9.72106 38.2214 9.71204 38.2997C9.367 41.3701 9.63537 44.2032 9.59253 47.8046C9.59256 47.82 9.58955 47.8353 9.58369 47.8494C9.57783 47.8636 9.56924 47.8763 9.55846 47.8869C9.54768 47.8975 9.53494 47.9056 9.52102 47.9109C9.5071 47.9161 9.49228 47.9183 9.47751 47.9173C4.27483 47.6072 1.69265 38.7272 1.00708 34.4235C0.0749446 28.5661 0.33654 22.7721 1.79188 17.0416C2.74131 13.2993 5.04835 7.57195 9.34896 6.98465C9.3792 6.98068 9.40991 6.9834 9.43907 6.99264C9.46823 7.00188 9.49519 7.01744 9.51818 7.03829C9.54117 7.05913 9.55967 7.0848 9.57248 7.11361C9.5853 7.14242 9.59213 7.17372 9.59253 7.20547L9.63312 14.4998C9.63462 14.7269 9.66694 14.7324 9.73009 14.5162C11.0967 9.89532 12.5919 5.08883 16.331 1.99022C17.3879 1.19149 18.5681 0.727911 19.8716 0.599488C19.8923 0.597523 19.9131 0.600072 19.9327 0.606979C19.9524 0.613887 19.9704 0.625001 19.9857 0.639599C20.001 0.654198 20.0132 0.671963 20.0215 0.691756C20.0298 0.711548 20.0341 0.732933 20.034 0.754536V5.71607C20.034 5.75266 20.0476 5.78781 20.072 5.81411C20.0964 5.84042 20.1297 5.85581 20.1648 5.85703C20.1963 5.85703 20.3249 5.7889 20.3407 5.76071C22.438 2.06775 26.4341 -1.21411 30.5634 1.72006C31.9796 2.72709 33.1929 4.1006 34.2032 5.84058C34.2109 5.85405 34.2214 5.86557 34.2339 5.87434C34.2464 5.88312 34.2606 5.88894 34.2756 5.8914C34.2906 5.89385 34.3061 5.89289 34.3208 5.88858C34.3356 5.88427 34.3493 5.8767 34.3611 5.86642C34.4716 5.7654 34.4107 1.30895 34.4084 0.810915C34.4084 0.775911 34.4156 0.741304 34.4296 0.709485C34.4436 0.677666 34.464 0.649389 34.4896 0.626609C34.5151 0.603828 34.545 0.587085 34.5774 0.577535C34.6097 0.567985 34.6436 0.56586 34.6768 0.571298C39.5299 1.34419 41.9114 6.3621 43.5351 10.5742Z" fill="white"/>
<path d="M100.644 13.7035L103.919 4.44398C103.942 4.37504 103.986 4.31548 104.043 4.27343C104.1 4.23137 104.169 4.20887 104.239 4.20899H108.87C108.892 4.20898 108.914 4.21476 108.934 4.22583C108.955 4.2369 108.972 4.25293 108.985 4.27254C108.997 4.29216 109.006 4.31476 109.008 4.33842C109.011 4.36209 109.008 4.38609 109 4.40838L100.644 27.5299L99.5739 30.4376C97.3099 36.4207 95.118 42.4323 92.9982 48.4724C92.9863 48.5055 92.9654 48.5341 92.9382 48.5548C92.9109 48.5755 92.8785 48.5873 92.845 48.5887L92.5227 48.6053L87.5808 48.648C87.5046 48.6488 87.43 48.6251 87.3668 48.5802C87.3036 48.5353 87.2549 48.4712 87.227 48.3964L71.1349 4.36328C71.1282 4.34622 71.1256 4.32767 71.1274 4.3093C71.1291 4.29092 71.1352 4.2733 71.145 4.25801C71.1549 4.24272 71.1682 4.23023 71.1837 4.22168C71.1992 4.21312 71.2165 4.20876 71.2341 4.20899L76.1444 4.21137C76.1677 4.21151 76.1904 4.21885 76.2093 4.23242C76.2282 4.24599 76.2425 4.26514 76.2503 4.28732C80.7798 16.991 85.3003 29.6677 89.8118 42.3176C89.8989 42.5597 89.9635 42.7092 90.0056 42.7662C90.1934 43.0241 90.3399 43.0004 90.445 42.695C93.7952 33.0486 97.1469 23.5564 100.5 14.2186C100.56 14.0508 100.608 13.8792 100.644 13.7035Z" fill="white"/>
<path d="M163.985 44.0229C163.531 44.6233 163.045 45.3915 162.543 45.9565C158.486 50.502 150.772 51.3033 145.69 48.4219C140.084 45.2402 139.309 37.4303 144.821 33.4308C147.184 31.7147 150.452 30.7763 153.272 30.3934C156.211 29.9915 159.149 29.5834 162.086 29.1689C163.575 28.9609 164.619 28.1336 164.503 26.4671C164.115 20.9264 157.673 19.6831 153.534 20.4229C149.843 21.0848 146.458 23.5337 145.71 27.6183C145.707 27.6356 145.7 27.6519 145.69 27.666C145.68 27.6801 145.667 27.6917 145.652 27.6998C145.637 27.708 145.621 27.7125 145.604 27.7131C145.588 27.7138 145.571 27.7104 145.556 27.7034L141.844 26.0487C141.797 26.0273 141.757 25.9891 141.734 25.9407C141.71 25.8923 141.703 25.8369 141.714 25.784C144.319 13.5538 165.555 11.989 168.537 24.7439C168.761 25.7005 168.874 27.2353 168.877 29.3486C168.885 34.1864 168.885 39.0235 168.879 43.8598C168.878 44.7092 169.185 45.2859 169.8 45.5901C170.996 46.1787 172.271 45.1599 172.846 44.0749C172.856 44.0558 172.871 44.0396 172.888 44.0277C172.906 44.0157 172.926 44.0084 172.947 44.0064C172.967 44.0043 172.988 44.0075 173.008 44.0157C173.028 44.0239 173.045 44.0369 173.059 44.0536L175.252 46.7625C175.285 46.8037 175.304 46.8564 175.303 46.9107C175.303 46.965 175.284 47.0174 175.25 47.058C171.664 51.379 164.691 51.5752 164.451 44.186C164.435 43.6865 164.28 43.6321 163.985 44.0229ZM145.641 39.4206C143.564 48.3439 164.216 48.819 164.315 35.7048C164.319 34.92 164.341 34.1037 164.38 33.2559C164.381 33.2248 164.376 33.1938 164.364 33.1651C164.353 33.1363 164.336 33.1106 164.315 33.0896C164.293 33.0687 164.267 33.053 164.239 33.0437C164.212 33.0345 164.182 33.0319 164.153 33.0361C161.15 33.4615 158.103 33.8689 155.01 34.2581C152.136 34.6198 146.501 35.7284 145.641 39.4206Z" fill="white"/>
<path d="M119.325 49.4983C113.523 47.9112 109.134 42.9433 107.939 36.7276C105.843 25.843 112.427 15.2715 123.537 15.8955C133.03 16.4269 138.016 25.0696 137.37 34.462C137.368 34.4943 137.354 34.5245 137.332 34.5465C137.309 34.5685 137.28 34.5807 137.249 34.5806H112.308C112.269 34.5807 112.23 34.5899 112.194 34.6075C112.159 34.6251 112.127 34.6507 112.102 34.6825C112.077 34.7143 112.058 34.7516 112.048 34.7918C112.037 34.8319 112.035 34.874 112.042 34.9151C112.786 39.6821 115.1 42.9671 118.983 44.7701C124.454 47.311 131.315 45.5554 134.458 39.966C134.474 39.9363 134.501 39.914 134.532 39.9032C134.563 39.8923 134.597 39.8935 134.628 39.9067L137.992 41.4084C138.024 41.4226 138.052 41.4434 138.077 41.4696C138.101 41.4958 138.119 41.5268 138.132 41.5609C138.145 41.595 138.15 41.6314 138.149 41.668C138.148 41.7045 138.14 41.7405 138.126 41.7738C134.983 49.1069 126.027 51.3346 119.325 49.4983ZM112.324 30.4075L132.646 30.4241C132.663 30.4242 132.68 30.4205 132.696 30.4133C132.711 30.4061 132.725 30.3956 132.737 30.3824C132.749 30.3693 132.757 30.3537 132.763 30.3368C132.768 30.3198 132.77 30.3019 132.769 30.2842C131.764 17.0651 115.384 16.8278 112.382 28.9888C112.276 29.4174 112.209 29.8358 112.181 30.2438C112.179 30.2647 112.182 30.2858 112.188 30.3056C112.195 30.3254 112.205 30.3436 112.218 30.3589C112.232 30.3743 112.248 30.3866 112.266 30.3949C112.284 30.4033 112.304 30.4076 112.324 30.4075Z" fill="white"/>
<path d="M183.362 48.5628L179.155 48.652C179.128 48.6526 179.101 48.6475 179.076 48.6369C179.05 48.6264 179.027 48.6105 179.008 48.5904C178.988 48.5703 178.973 48.5463 178.962 48.5197C178.951 48.4932 178.946 48.4647 178.946 48.4359L178.955 17.2985C178.955 17.2593 178.97 17.2216 178.995 17.1939C179.021 17.1661 179.056 17.1506 179.093 17.1506H182.781C182.822 17.1504 182.862 17.1666 182.893 17.1961C182.924 17.2256 182.943 17.2663 182.948 17.3103L183.313 21.4438C183.341 21.7538 183.453 21.7921 183.647 21.5588C185.892 18.8603 187.885 17.0871 191.314 16.3192C198.383 14.6 204.656 17.8152 205.747 25.8145C205.85 26.566 205.901 27.8389 205.901 29.6332C205.901 35.9274 205.901 42.2255 205.901 48.5275C205.901 48.5496 205.893 48.5707 205.878 48.5865C205.864 48.6023 205.844 48.6115 205.823 48.6121L201.632 48.645C201.6 48.645 201.569 48.6316 201.547 48.6078C201.524 48.584 201.512 48.5518 201.512 48.5181C201.515 42.1065 201.51 35.7027 201.498 29.3068C201.495 28.0448 201.38 26.9191 201.153 25.9295C200.093 21.3169 196.347 19.4475 192.158 20.044C187.818 20.6617 184.462 23.797 183.605 28.3392C183.441 29.2113 183.358 30.7723 183.355 33.0222C183.348 38.2001 183.35 43.3802 183.362 48.5628Z" fill="white"/>
</svg>
